{"glyphs":{"0":{"ha":867,"x_min":70,"x_max":790,"o":"m 498 784 q 664 744 598 784 q 760 632 729 703 q 790 469 790 562 q 734 232 790 342 q 582 55 679 121 q 366 -11 484 -11 q 200 33 267 -11 q 102 148 134 76 q 70 305 70 219 q 128 548 70 439 q 285 721 186 658 q 498 784 383 784 m 387 84 q 533 138 474 84 q 621 278 592 193 q 650 455 650 363 q 610 629 650 568 q 481 690 570 690 q 323 630 384 690 q 236 485 262 571 q 210 316 210 399 q 230 199 210 252 q 290 115 250 146 q 387 84 330 84 z "},"1":{"ha":631,"x_min":119,"x_max":458,"o":"m 296 605 q 134 565 217 579 l 119 651 q 261 705 184 665 q 401 788 337 744 l 458 774 l 350 0 l 214 0 l 296 605 z "},"2":{"ha":847,"x_min":42,"x_max":722,"o":"m 42 88 q 298 236 180 156 q 486 396 415 315 q 557 546 557 477 q 523 646 557 614 q 417 679 488 679 q 189 576 312 679 l 139 654 q 217 717 170 686 q 326 768 264 747 q 455 788 388 788 q 596 757 539 788 q 680 674 653 726 q 707 560 707 622 q 577 313 707 428 q 235 91 448 198 l 722 117 l 704 0 l 64 0 l 42 88 z "},"3":{"ha":749,"x_min":29,"x_max":638,"o":"m 128 -118 q 296 -92 218 -118 q 424 -14 375 -65 q 472 108 472 37 q 283 261 472 259 l 187 238 l 199 354 q 487 571 487 413 q 454 637 487 613 q 369 662 422 662 q 257 640 307 662 q 151 576 206 617 l 109 677 q 180 727 134 702 q 287 770 226 753 q 416 788 349 788 q 527 767 477 788 q 608 704 577 747 q 638 597 638 661 q 603 485 638 538 q 510 390 568 431 q 389 327 453 349 q 518 298 464 327 q 601 223 573 270 q 629 119 629 176 q 557 -58 629 20 q 372 -179 486 -136 q 138 -222 258 -222 q 29 -214 92 -222 l 40 -111 q 128 -118 96 -118 z "},"4":{"ha":857,"x_min":14,"x_max":766,"o":"m 522 852 l 618 791 l 214 156 l 160 89 l 469 100 l 508 416 l 639 440 l 596 108 l 766 118 l 752 0 l 583 0 l 551 -254 l 422 -254 l 456 0 l 38 0 l 14 64 q 247 432 135 248 q 490 852 358 617 l 522 852 z "},"5":{"ha":757,"x_min":31,"x_max":712,"o":"m 100 -133 q 294 -105 205 -133 q 437 -21 383 -77 q 492 115 492 35 q 450 245 492 201 q 330 289 409 289 q 242 279 292 289 q 153 253 191 269 l 103 304 l 212 777 l 583 777 l 598 788 l 712 788 l 686 663 l 316 663 l 237 374 q 314 388 270 382 q 392 393 358 393 q 586 326 524 393 q 648 141 648 258 q 578 -53 648 33 q 388 -186 509 -138 q 119 -235 267 -235 q 31 -223 64 -235 l 46 -128 q 100 -133 75 -133 z "},"6":{"ha":857,"x_min":98,"x_max":753,"o":"m 709 987 q 524 890 609 951 q 378 752 439 829 q 285 589 317 675 q 516 671 376 671 q 651 634 598 671 q 729 539 705 598 q 753 410 753 481 q 708 210 753 307 q 579 51 664 113 q 378 -11 494 -11 q 225 36 289 -11 q 130 161 162 82 q 98 334 98 239 q 173 655 98 505 q 380 912 248 806 q 680 1065 513 1019 l 709 987 m 410 83 q 527 132 480 83 q 596 252 574 180 q 618 391 618 323 q 581 524 618 480 q 484 567 543 567 q 341 536 396 567 q 250 466 286 505 q 236 389 240 421 q 232 321 232 357 q 275 151 232 218 q 410 83 318 83 z "},"7":{"ha":743,"x_min":69,"x_max":719,"o":"m 69 667 l 92 777 l 697 777 l 719 748 l 310 -217 l 189 -172 l 566 670 l 69 667 z "},"8":{"ha":861,"x_min":83,"x_max":779,"o":"m 332 557 q 235 662 269 608 q 201 787 201 715 q 242 937 201 874 q 355 1031 283 999 q 518 1064 427 1064 q 651 1037 591 1064 q 744 959 710 1009 q 779 841 779 908 q 746 713 779 774 q 661 608 714 652 q 550 545 608 564 q 685 420 635 485 q 735 276 735 355 q 688 123 735 189 q 559 24 640 58 q 378 -11 477 -11 q 237 18 304 -11 q 126 103 170 46 q 83 239 83 159 q 117 371 83 309 q 208 480 151 433 q 332 557 264 528 m 645 831 q 626 910 645 877 q 574 960 606 943 q 503 977 542 977 q 418 955 456 977 q 359 895 380 932 q 338 812 338 857 q 374 696 338 747 q 481 596 411 646 q 599 691 553 629 q 645 831 645 753 m 401 81 q 497 103 454 81 q 564 163 540 125 q 589 250 589 202 q 542 384 589 323 q 402 507 495 446 q 278 403 328 471 q 227 256 229 336 q 249 165 227 205 q 310 103 271 125 q 401 81 349 81 z "},"9":{"ha":857,"x_min":94,"x_max":749,"o":"m 562 189 q 351 100 479 100 q 205 137 262 100 q 121 235 147 174 q 94 368 94 296 q 139 568 94 471 q 268 727 183 665 q 469 789 353 789 q 622 742 558 789 q 717 617 685 696 q 749 444 749 538 q 674 122 749 273 q 467 -137 599 -29 q 168 -290 334 -244 l 138 -212 q 323 -114 238 -176 q 469 25 408 -53 q 562 189 530 103 m 384 204 q 513 237 464 204 q 597 312 563 269 q 611 389 607 357 q 615 456 615 420 q 572 627 615 559 q 437 695 529 695 q 320 646 367 695 q 251 526 273 597 q 229 387 229 455 q 272 249 229 294 q 384 204 315 204 z "},"\u0000":{"ha":0,"x_min":0,"x_max":0,"o":""},"\r":{"ha":0,"x_min":0,"x_max":0,"o":""}," ":{"ha":329,"x_min":0,"x_max":0,"o":""},"A":{"ha":858,"x_min":-52,"x_max":797,"o":"m 618 269 l 215 269 l 92 0 l -52 0 l 454 1038 l 603 1038 l 797 0 l 663 0 l 618 269 m 600 371 l 522 838 l 513 917 l 262 371 l 600 371 z "},"Á":{"ha":858,"x_min":-52,"x_max":797,"o":"m 618 269 l 215 269 l 92 0 l -52 0 l 454 1038 l 603 1038 l 797 0 l 663 0 l 618 269 m 600 371 l 522 838 l 513 917 l 262 371 l 600 371 m 695 1356 l 779 1270 q 719 1194 759 1234 q 635 1124 680 1155 q 557 1080 590 1093 l 508 1124 l 695 1356 z "},"Ă":{"ha":858,"x_min":-52,"x_max":797,"o":"m 618 269 l 215 269 l 92 0 l -52 0 l 454 1038 l 603 1038 l 797 0 l 663 0 l 618 269 m 600 371 l 522 838 l 513 917 l 262 371 l 600 371 m 342 1330 q 343 1343 342 1339 l 435 1343 q 437 1322 437 1327 q 455 1264 445 1289 q 488 1222 465 1240 q 550 1204 511 1204 q 616 1224 591 1204 q 655 1268 642 1243 q 680 1326 669 1293 q 686 1343 686 1343 l 775 1343 q 773 1320 775 1332 q 736 1216 765 1265 q 658 1136 707 1166 q 545 1105 609 1105 q 430 1137 476 1105 q 363 1221 385 1170 q 342 1330 342 1272 z "},"Ǎ":{"ha":858,"x_min":-52,"x_max":810,"o":"m 618 269 l 215 269 l 92 0 l -52 0 l 454 1038 l 603 1038 l 797 0 l 663 0 l 618 269 m 600 371 l 522 838 l 513 917 l 262 371 l 600 371 m 372 1365 l 543 1206 l 755 1365 l 810 1306 l 597 1103 l 477 1103 l 313 1305 l 372 1365 z "},"Â":{"ha":858,"x_min":-52,"x_max":797,"o":"m 618 269 l 215 269 l 92 0 l -52 0 l 454 1038 l 603 1038 l 797 0 l 663 0 l 618 269 m 600 371 l 522 838 l 513 917 l 262 371 l 600 371 m 534 1360 l 655 1360 l 784 1127 l 720 1081 l 577 1240 l 365 1075 l 313 1127 l 534 1360 z "},"Ä":{"ha":858,"x_min":-52,"x_max":797,"o":"m 618 269 l 215 269 l 92 0 l -52 0 l 454 1038 l 603 1038 l 797 0 l 663 0 l 618 269 m 600 371 l 522 838 l 513 917 l 262 371 l 600 371 m 324 1227 q 339 1277 324 1253 q 376 1314 353 1300 q 421 1329 399 1329 q 481 1306 458 1329 q 504 1253 504 1284 q 489 1202 504 1226 q 451 1164 475 1179 q 401 1150 427 1150 q 347 1173 370 1150 q 324 1227 324 1196 m 607 1231 q 622 1278 607 1256 q 661 1315 637 1301 q 706 1329 684 1329 q 765 1307 743 1329 q 788 1254 788 1285 q 774 1203 788 1227 q 736 1165 760 1179 q 685 1150 712 1150 q 630 1174 653 1150 q 607 1231 607 1198 z "},"À":{"ha":858,"x_min":-52,"x_max":797,"o":"m 618 269 l 215 269 l 92 0 l -52 0 l 454 1038 l 603 1038 l 797 0 l 663 0 l 618 269 m 600 371 l 522 838 l 513 917 l 262 371 l 600 371 m 417 1356 l 604 1124 l 555 1080 q 477 1124 522 1093 q 393 1194 433 1155 q 333 1270 353 1234 l 417 1356 z "},"Ā":{"ha":858,"x_min":-52,"x_max":797,"o":"m 618 269 l 215 269 l 92 0 l -52 0 l 454 1038 l 603 1038 l 797 0 l 663 0 l 618 269 m 600 371 l 522 838 l 513 917 l 262 371 l 600 371 m 703 1274 l 699 1173 l 354 1173 l 357 1274 l 703 1274 z "},"Ą":{"ha":858,"x_min":-52,"x_max":797,"o":"m 673 -195 q 715 -189 694 -195 q 761 -164 735 -182 l 795 -231 q 724 -276 766 -256 q 629 -295 682 -295 q 556 -279 586 -295 q 513 -238 527 -262 q 498 -191 498 -214 q 526 -111 498 -148 q 586 -51 554 -75 q 665 0 618 -28 l 663 0 l 618 269 l 215 269 l 92 0 l -52 0 l 454 1038 l 603 1038 l 797 0 l 770 0 q 669 -81 708 -45 q 630 -150 630 -117 q 643 -185 630 -175 q 673 -195 656 -195 m 600 371 l 522 838 l 513 917 l 262 371 l 600 371 z "},"Å":{"ha":858,"x_min":-52,"x_max":797,"o":"m 618 269 l 215 269 l 92 0 l -52 0 l 440 1009 q 362 1068 389 1027 q 335 1170 335 1109 q 370 1272 335 1230 q 458 1335 404 1314 q 570 1356 513 1356 q 707 1309 656 1356 q 758 1177 758 1261 q 717 1064 758 1108 q 609 1004 676 1021 l 797 0 l 663 0 l 618 269 m 559 1283 q 467 1256 505 1283 q 429 1166 429 1229 q 443 1116 429 1139 q 480 1080 456 1093 q 533 1067 504 1067 q 627 1093 593 1067 q 661 1188 661 1119 q 633 1256 661 1230 q 559 1283 605 1283 m 600 371 l 522 838 l 513 917 l 262 371 l 600 371 z "},"Ã":{"ha":858,"x_min":-52,"x_max":823,"o":"m 618 269 l 215 269 l 92 0 l -52 0 l 454 1038 l 603 1038 l 797 0 l 663 0 l 618 269 m 600 371 l 522 838 l 513 917 l 262 371 l 600 371 m 292 1221 q 337 1277 306 1250 q 407 1320 368 1303 q 479 1336 445 1336 q 544 1321 518 1336 q 599 1280 570 1307 q 634 1251 620 1260 q 667 1241 649 1241 q 713 1256 695 1241 q 753 1300 732 1271 l 765 1316 l 823 1255 q 783 1193 811 1221 q 717 1148 755 1164 q 641 1131 679 1131 q 591 1139 612 1131 q 555 1157 570 1146 q 522 1185 541 1168 q 482 1216 499 1206 q 442 1226 465 1226 q 401 1214 418 1226 q 363 1178 385 1202 l 351 1164 l 292 1221 z "},"Æ":{"ha":1196,"x_min":-87,"x_max":1149,"o":"m 751 937 l 705 579 l 1002 584 l 994 471 l 694 481 l 645 101 l 1120 112 l 1110 0 l 498 0 l 534 282 l 206 282 l 58 0 l -87 0 l 435 955 l 237 970 l 247 1038 l 1149 1038 l 1145 931 l 751 937 m 547 385 l 617 941 l 556 945 l 260 385 l 547 385 z "},"Ǽ":{"ha":1196,"x_min":-87,"x_max":1149,"o":"m 856 1356 l 940 1270 q 880 1194 920 1234 q 795 1124 840 1155 q 718 1080 751 1093 l 669 1124 l 856 1356 m 751 937 l 705 579 l 1002 584 l 994 471 l 694 481 l 645 101 l 1120 112 l 1110 0 l 498 0 l 534 282 l 206 282 l 58 0 l -87 0 l 435 955 l 237 970 l 247 1038 l 1149 1038 l 1145 931 l 751 937 m 547 385 l 617 941 l 556 945 l 260 385 l 547 385 z "},"B":{"ha":841,"x_min":75,"x_max":774,"o":"m 568 544 q 669 508 624 536 q 742 435 715 480 q 769 332 768 389 q 648 73 772 156 q 310 -9 525 -9 q 260 -7 290 -9 q 220 -5 231 -5 q 137 0 168 0 l 75 0 l 205 1038 l 264 1038 q 362 1043 297 1038 q 469 1048 431 1048 q 705 984 636 1048 q 774 819 774 919 q 719 646 774 715 q 568 544 664 576 m 640 805 q 593 918 640 881 q 438 955 546 955 q 383 953 416 955 q 328 948 350 951 l 283 586 q 332 585 313 585 l 398 585 q 521 611 466 585 q 608 686 576 636 q 640 805 640 735 m 339 86 q 626 311 626 86 q 570 446 626 401 q 409 490 515 490 q 270 486 335 490 l 221 99 q 276 90 239 93 q 339 86 313 86 z "},"Ḃ":{"ha":841,"x_min":75,"x_max":774,"o":"m 359 1227 q 374 1277 359 1253 q 411 1314 389 1300 q 456 1329 434 1329 q 516 1306 494 1329 q 539 1253 539 1284 q 525 1202 539 1226 q 486 1164 510 1179 q 436 1150 463 1150 q 382 1173 405 1150 q 359 1227 359 1196 m 568 544 q 669 508 624 536 q 742 435 715 480 q 769 332 768 389 q 648 73 772 156 q 310 -9 525 -9 q 260 -7 290 -9 q 220 -5 231 -5 q 137 0 168 0 l 75 0 l 205 1038 l 264 1038 q 362 1043 297 1038 q 469 1048 431 1048 q 705 984 636 1048 q 774 819 774 919 q 719 646 774 715 q 568 544 664 576 m 640 805 q 593 918 640 881 q 438 955 546 955 q 383 953 416 955 q 328 948 350 951 l 283 586 q 332 585 313 585 l 398 585 q 521 611 466 585 q 608 686 576 636 q 640 805 640 735 m 339 86 q 626 311 626 86 q 570 446 626 401 q 409 490 515 490 q 270 486 335 490 l 221 99 q 276 90 239 93 q 339 86 313 86 z "},"C":{"ha":774,"x_min":73,"x_max":774,"o":"m 554 1048 q 652 1040 613 1048 q 738 1015 690 1031 l 774 1003 l 727 892 q 703 905 724 893 q 641 927 682 918 q 549 936 600 936 q 353 860 429 936 q 243 672 277 784 q 210 451 210 561 q 234 270 210 350 q 310 143 259 189 q 438 96 361 96 q 544 109 494 96 q 630 139 594 122 q 682 170 665 156 l 702 57 q 601 11 670 33 q 414 -11 531 -11 q 215 55 291 -11 q 105 222 138 120 q 73 442 73 324 q 136 758 73 620 q 309 972 199 896 q 554 1048 419 1048 z "},"Ć":{"ha":774,"x_min":73,"x_max":787,"o":"m 554 1048 q 652 1040 613 1048 q 738 1015 690 1031 l 774 1003 l 727 892 q 703 905 724 893 q 641 927 682 918 q 549 936 600 936 q 353 860 429 936 q 243 672 277 784 q 210 451 210 561 q 234 270 210 350 q 310 143 259 189 q 438 96 361 96 q 544 109 494 96 q 630 139 594 122 q 682 170 665 156 l 702 57 q 601 11 670 33 q 414 -11 531 -11 q 215 55 291 -11 q 105 222 138 120 q 73 442 73 324 q 136 758 73 620 q 309 972 199 896 q 554 1048 419 1048 m 703 1356 l 787 1270 q 727 1194 767 1234 q 643 1124 688 1155 q 566 1080 598 1093 l 516 1124 l 703 1356 z "},"Č":{"ha":774,"x_min":73,"x_max":819,"o":"m 554 1048 q 652 1040 613 1048 q 738 1015 690 1031 l 774 1003 l 727 892 q 703 905 724 893 q 641 927 682 918 q 549 936 600 936 q 353 860 429 936 q 243 672 277 784 q 210 451 210 561 q 234 270 210 350 q 310 143 259 189 q 438 96 361 96 q 544 109 494 96 q 630 139 594 122 q 682 170 665 156 l 702 57 q 601 11 670 33 q 414 -11 531 -11 q 215 55 291 -11 q 105 222 138 120 q 73 442 73 324 q 136 758 73 620 q 309 972 199 896 q 554 1048 419 1048 m 380 1365 l 551 1206 l 763 1365 l 819 1306 l 605 1103 l 486 1103 l 321 1305 l 380 1365 z "},"Ç":{"ha":774,"x_min":73,"x_max":774,"o":"m 549 936 q 353 860 429 936 q 243 672 277 784 q 210 451 210 561 q 234 270 210 350 q 310 143 259 189 q 438 96 361 96 q 544 109 494 96 q 630 139 594 122 q 682 170 665 156 l 702 57 q 622 17 675 37 q 481 -8 569 -2 q 496 -111 496 -50 q 444 -266 496 -218 q 308 -313 391 -313 q 249 -308 280 -313 q 208 -294 218 -302 l 224 -192 q 273 -201 242 -201 q 351 -175 321 -201 q 380 -79 380 -149 l 380 -33 l 380 -9 q 201 66 270 0 q 102 232 132 133 q 73 442 73 330 q 136 758 73 620 q 309 972 199 896 q 554 1048 419 1048 q 652 1040 613 1048 q 738 1015 690 1031 l 774 1003 l 727 892 q 703 905 724 893 q 641 927 682 918 q 549 936 600 936 z "},"Ĉ":{"ha":774,"x_min":73,"x_max":792,"o":"m 554 1048 q 652 1040 613 1048 q 738 1015 690 1031 l 774 1003 l 727 892 q 703 905 724 893 q 641 927 682 918 q 549 936 600 936 q 353 860 429 936 q 243 672 277 784 q 210 451 210 561 q 234 270 210 350 q 310 143 259 189 q 438 96 361 96 q 544 109 494 96 q 630 139 594 122 q 682 170 665 156 l 702 57 q 601 11 670 33 q 414 -11 531 -11 q 215 55 291 -11 q 105 222 138 120 q 73 442 73 324 q 136 758 73 620 q 309 972 199 896 q 554 1048 419 1048 m 543 1360 l 663 1360 l 792 1127 l 728 1081 l 585 1240 l 373 1075 l 321 1127 l 543 1360 z "},"Ċ":{"ha":774,"x_min":73,"x_max":774,"o":"m 473 1227 q 487 1277 473 1253 q 525 1314 502 1300 q 570 1329 547 1329 q 630 1306 607 1329 q 652 1253 652 1284 q 638 1202 652 1226 q 600 1164 623 1179 q 549 1150 576 1150 q 495 1173 518 1150 q 473 1227 473 1196 m 554 1048 q 652 1040 613 1048 q 738 1015 690 1031 l 774 1003 l 727 892 q 703 905 724 893 q 641 927 682 918 q 549 936 600 936 q 353 860 429 936 q 243 672 277 784 q 210 451 210 561 q 234 270 210 350 q 310 143 259 189 q 438 96 361 96 q 544 109 494 96 q 630 139 594 122 q 682 170 665 156 l 702 57 q 601 11 670 33 q 414 -11 531 -11 q 215 55 291 -11 q 105 222 138 120 q 73 442 73 324 q 136 758 73 620 q 309 972 199 896 q 554 1048 419 1048 z "},"D":{"ha":934,"x_min":75,"x_max":880,"o":"m 880 609 q 814 291 880 434 q 627 66 747 148 q 354 -11 507 -15 q 277 -6 311 -9 q 210 -2 249 -3 q 143 0 170 0 l 75 0 l 205 1038 l 269 1038 q 375 1043 299 1038 q 489 1048 455 1048 q 786 932 692 1048 q 880 609 880 815 m 382 91 q 582 170 500 95 q 702 359 663 244 q 741 602 741 475 q 712 808 741 732 q 619 917 682 884 q 449 949 556 949 q 385 945 422 949 q 327 937 347 941 l 223 111 q 297 95 254 100 q 382 91 341 90 z "},"Ǳ":{"ha":1718,"x_min":75,"x_max":1736,"o":"m 880 609 q 814 291 880 434 q 627 66 747 148 q 354 -11 507 -15 q 277 -6 311 -9 q 210 -2 249 -3 q 143 0 170 0 l 75 0 l 205 1038 l 269 1038 q 375 1043 299 1038 q 489 1048 455 1048 q 786 932 692 1048 q 880 609 880 815 m 382 91 q 582 170 500 95 q 702 359 663 244 q 741 602 741 475 q 712 808 741 732 q 619 917 682 884 q 449 949 556 949 q 385 945 422 949 q 327 937 347 941 l 223 111 q 297 95 254 100 q 382 91 341 90 m 1472 825 l 1563 933 l 1095 924 l 1110 1038 l 1719 1038 l 1736 979 l 1207 205 l 1123 107 l 1633 115 l 1614 0 l 962 0 l 944 60 l 1472 825 z "},"Ǆ":{"ha":1718,"x_min":75,"x_max":1736,"o":"m 880 609 q 814 291 880 434 q 627 66 747 148 q 354 -11 507 -15 q 277 -6 311 -9 q 210 -2 249 -3 q 143 0 170 0 l 75 0 l 205 1038 l 269 1038 q 375 1043 299 1038 q 489 1048 455 1048 q 786 932 692 1048 q 880 609 880 815 m 382 91 q 582 170 500 95 q 702 359 663 244 q 741 602 741 475 q 712 808 741 732 q 619 917 682 884 q 449 949 556 949 q 385 945 422 949 q 327 937 347 941 l 223 111 q 297 95 254 100 q 382 91 341 90 m 1472 825 l 1563 933 l 1095 924 l 1110 1038 l 1719 1038 l 1736 979 l 1207 205 l 1123 107 l 1633 115 l 1614 0 l 962 0 l 944 60 l 1472 825 m 1276 1365 l 1447 1206 l 1659 1365 l 1714 1306 l 1501 1103 l 1381 1103 l 1217 1305 l 1276 1365 z "},"Ð":{"ha":934,"x_min":28,"x_max":880,"o":"m 880 609 q 814 291 880 434 q 627 66 747 148 q 354 -11 507 -15 q 277 -6 311 -9 q 210 -2 249 -3 q 143 0 170 0 l 75 0 l 136 490 l 28 490 l 39 578 l 147 578 l 205 1038 l 269 1038 q 375 1043 299 1038 q 489 1048 455 1048 q 786 932 692 1048 q 880 609 880 815 m 382 91 q 582 170 500 95 q 702 359 663 244 q 741 602 741 475 q 712 808 741 732 q 619 917 682 884 q 449 949 556 949 q 385 945 422 949 q 327 937 347 941 l 281 578 l 541 578 l 530 490 l 271 490 l 223 111 q 297 95 254 100 q 382 91 341 90 z "},"Ď":{"ha":934,"x_min":75,"x_max":880,"o":"m 370 1365 l 541 1206 l 753 1365 l 808 1306 l 595 1103 l 475 1103 l 311 1305 l 370 1365 m 880 609 q 814 291 880 434 q 627 66 747 148 q 354 -11 507 -15 q 277 -6 311 -9 q 210 -2 249 -3 q 143 0 170 0 l 75 0 l 205 1038 l 269 1038 q 375 1043 299 1038 q 489 1048 455 1048 q 786 932 692 1048 q 880 609 880 815 m 382 91 q 582 170 500 95 q 702 359 663 244 q 741 602 741 475 q 712 808 741 732 q 619 917 682 884 q 449 949 556 949 q 385 945 422 949 q 327 937 347 941 l 223 111 q 297 95 254 100 q 382 91 341 90 z "},"Đ":{"ha":934,"x_min":28,"x_max":880,"o":"m 880 609 q 814 291 880 434 q 627 66 747 148 q 354 -11 507 -15 q 277 -6 311 -9 q 210 -2 249 -3 q 143 0 170 0 l 75 0 l 136 490 l 28 490 l 39 578 l 147 578 l 205 1038 l 269 1038 q 375 1043 299 1038 q 489 1048 455 1048 q 786 932 692 1048 q 880 609 880 815 m 382 91 q 582 170 500 95 q 702 359 663 244 q 741 602 741 475 q 712 808 741 732 q 619 917 682 884 q 449 949 556 949 q 385 945 422 949 q 327 937 347 941 l 281 578 l 541 578 l 530 490 l 271 490 l 223 111 q 297 95 254 100 q 382 91 341 90 z "},"Ḋ":{"ha":934,"x_min":75,"x_max":880,"o":"m 429 1227 q 443 1277 429 1253 q 480 1314 458 1300 q 526 1329 503 1329 q 586 1306 563 1329 q 608 1253 608 1284 q 594 1202 608 1226 q 555 1164 579 1179 q 505 1150 532 1150 q 451 1173 474 1150 q 429 1227 429 1196 m 880 609 q 814 291 880 434 q 627 66 747 148 q 354 -11 507 -15 q 277 -6 311 -9 q 210 -2 249 -3 q 143 0 170 0 l 75 0 l 205 1038 l 269 1038 q 375 1043 299 1038 q 489 1048 455 1048 q 786 932 692 1048 q 880 609 880 815 m 382 91 q 582 170 500 95 q 702 359 663 244 q 741 602 741 475 q 712 808 741 732 q 619 917 682 884 q 449 949 556 949 q 385 945 422 949 q 327 937 347 941 l 223 111 q 297 95 254 100 q 382 91 341 90 z "},"ǲ":{"ha":1588,"x_min":75,"x_max":1588,"o":"m 880 609 q 814 291 880 434 q 627 66 747 148 q 354 -11 507 -15 q 277 -6 311 -9 q 210 -2 249 -3 q 143 0 170 0 l 75 0 l 205 1038 l 269 1038 q 375 1043 299 1038 q 489 1048 455 1048 q 786 932 692 1048 q 880 609 880 815 m 382 91 q 582 170 500 95 q 702 359 663 244 q 741 602 741 475 q 712 808 741 732 q 619 917 682 884 q 449 949 556 949 q 385 945 422 949 q 327 937 347 941 l 223 111 q 297 95 254 100 q 382 91 341 90 m 1086 106 l 1491 106 l 1481 0 l 954 0 l 915 40 l 1308 553 l 1416 667 l 1050 667 l 1065 773 l 1556 773 l 1588 738 l 1183 208 l 1086 106 z "},"ǅ":{"ha":1588,"x_min":75,"x_max":1622,"o":"m 880 609 q 814 291 880 434 q 627 66 747 148 q 354 -11 507 -15 q 277 -6 311 -9 q 210 -2 249 -3 q 143 0 170 0 l 75 0 l 205 1038 l 269 1038 q 375 1043 299 1038 q 489 1048 455 1048 q 786 932 692 1048 q 880 609 880 815 m 382 91 q 582 170 500 95 q 702 359 663 244 q 741 602 741 475 q 712 808 741 732 q 619 917 682 884 q 449 949 556 949 q 385 945 422 949 q 327 937 347 941 l 223 111 q 297 95 254 100 q 382 91 341 90 m 1086 106 l 1491 106 l 1481 0 l 954 0 l 915 40 l 1308 553 l 1416 667 l 1050 667 l 1065 773 l 1556 773 l 1588 738 l 1183 208 l 1086 106 m 1183 1142 l 1354 977 l 1567 1142 l 1622 1083 l 1409 874 l 1289 874 l 1124 1082 l 1183 1142 z "},"E":{"ha":772,"x_min":75,"x_max":726,"o":"m 726 1038 l 721 931 l 327 937 l 281 579 l 578 584 l 570 471 l 270 481 l 221 101 l 696 112 l 686 0 l 75 0 l 205 1038 l 726 1038 z "},"É":{"ha":772,"x_min":75,"x_max":726,"o":"m 633 1356 l 717 1270 q 657 1194 696 1234 q 572 1124 617 1155 q 495 1080 528 1093 l 446 1124 l 633 1356 m 726 1038 l 721 931 l 327 937 l 281 579 l 578 584 l 570 471 l 270 481 l 221 101 l 696 112 l 686 0 l 75 0 l 205 1038 l 726 1038 z "},"Ĕ":{"ha":772,"x_min":75,"x_max":726,"o":"m 280 1330 q 281 1343 280 1339 l 372 1343 q 375 1322 374 1327 q 392 1264 382 1289 q 425 1222 402 1240 q 488 1204 448 1204 q 554 1224 528 1204 q 593 1268 580 1243 q 618 1326 606 1293 q 623 1343 623 1343 l 713 1343 q 711 1320 713 1332 q 674 1216 703 1265 q 596 1136 645 1166 q 483 1105 547 1105 q 368 1137 414 1105 q 301 1221 322 1170 q 280 1330 280 1272 m 726 1038 l 721 931 l 327 937 l 281 579 l 578 584 l 570 471 l 270 481 l 221 101 l 696 112 l 686 0 l 75 0 l 205 1038 l 726 1038 z "},"Ě":{"ha":772,"x_min":75,"x_max":748,"o":"m 309 1365 l 480 1206 l 692 1365 l 748 1306 l 534 1103 l 415 1103 l 250 1305 l 309 1365 m 726 1038 l 721 931 l 327 937 l 281 579 l 578 584 l 570 471 l 270 481 l 221 101 l 696 112 l 686 0 l 75 0 l 205 1038 l 726 1038 z "},"Ê":{"ha":772,"x_min":75,"x_max":726,"o":"m 726 1038 l 721 931 l 327 937 l 281 579 l 578 584 l 570 471 l 270 481 l 221 101 l 696 112 l 686 0 l 75 0 l 205 1038 l 726 1038 m 472 1360 l 593 1360 l 722 1127 l 658 1081 l 515 1240 l 302 1075 l 250 1127 l 472 1360 z "},"Ë":{"ha":772,"x_min":75,"x_max":726,"o":"m 262 1227 q 276 1277 262 1253 q 314 1314 291 1300 q 359 1329 336 1329 q 419 1306 396 1329 q 441 1253 441 1284 q 427 1202 441 1226 q 389 1164 412 1179 q 338 1150 365 1150 q 284 1173 307 1150 q 262 1227 262 1196 m 545 1231 q 560 1278 545 1256 q 598 1315 575 1301 q 644 1329 622 1329 q 703 1307 680 1329 q 726 1254 726 1285 q 711 1203 726 1227 q 673 1165 697 1179 q 623 1150 650 1150 q 568 1174 591 1150 q 545 1231 545 1198 m 726 1038 l 721 931 l 327 937 l 281 579 l 578 584 l 570 471 l 270 481 l 221 101 l 696 112 l 686 0 l 75 0 l 205 1038 l 726 1038 z "},"Ė":{"ha":772,"x_min":75,"x_max":726,"o":"m 402 1227 q 417 1277 402 1253 q 454 1314 431 1300 q 499 1329 477 1329 q 559 1306 536 1329 q 582 1253 582 1284 q 567 1202 582 1226 q 529 1164 553 1179 q 479 1150 505 1150 q 425 1173 448 1150 q 402 1227 402 1196 m 726 1038 l 721 931 l 327 937 l 281 579 l 578 584 l 570 471 l 270 481 l 221 101 l 696 112 l 686 0 l 75 0 l 205 1038 l 726 1038 z "},"È":{"ha":772,"x_min":75,"x_max":726,"o":"m 355 1356 l 542 1124 l 492 1080 q 415 1124 460 1093 q 331 1194 370 1155 q 271 1270 291 1234 l 355 1356 m 726 1038 l 721 931 l 327 937 l 281 579 l 578 584 l 570 471 l 270 481 l 221 101 l 696 112 l 686 0 l 75 0 l 205 1038 l 726 1038 z "},"Ē":{"ha":772,"x_min":75,"x_max":726,"o":"m 640 1274 l 637 1173 l 292 1173 l 294 1274 l 640 1274 m 726 1038 l 721 931 l 327 937 l 281 579 l 578 584 l 570 471 l 270 481 l 221 101 l 696 112 l 686 0 l 75 0 l 205 1038 l 726 1038 z "},"Ę":{"ha":772,"x_min":75,"x_max":726,"o":"m 327 937 l 281 579 l 578 584 l 570 471 l 270 481 l 221 101 l 696 112 l 686 0 l 652 0 q 551 -81 590 -45 q 512 -150 512 -117 q 525 -185 512 -175 q 555 -195 538 -195 q 597 -189 576 -195 q 643 -164 617 -182 l 677 -231 q 606 -276 648 -256 q 511 -295 564 -295 q 438 -279 468 -295 q 395 -238 409 -262 q 380 -191 380 -214 q 408 -111 380 -148 q 468 -51 436 -75 q 547 0 500 -28 l 75 0 l 205 1038 l 726 1038 l 721 931 l 327 937 z "},"F":{"ha":717,"x_min":75,"x_max":741,"o":"m 741 1038 l 732 931 l 327 937 l 282 579 l 601 585 l 593 471 l 270 481 l 209 0 l 75 0 l 205 1038 l 741 1038 z "},"Ḟ":{"ha":717,"x_min":75,"x_max":741,"o":"m 391 1227 q 405 1277 391 1253 q 443 1314 420 1300 q 488 1329 465 1329 q 548 1306 525 1329 q 570 1253 570 1284 q 556 1202 570 1226 q 517 1164 541 1179 q 467 1150 494 1150 q 413 1173 436 1150 q 391 1227 391 1196 m 741 1038 l 732 931 l 327 937 l 282 579 l 601 585 l 593 471 l 270 481 l 209 0 l 75 0 l 205 1038 l 741 1038 z "},"G":{"ha":909,"x_min":71,"x_max":844,"o":"m 544 494 l 833 494 l 778 64 q 740 57 760 62 q 685 41 720 52 l 667 36 q 537 2 597 14 q 412 -11 478 -11 q 223 52 298 -11 q 112 213 148 114 q 74 425 76 313 q 136 749 71 607 q 317 970 201 891 q 573 1048 432 1048 q 712 1038 655 1048 q 818 1010 769 1027 l 844 1003 l 802 882 q 712 922 772 904 q 571 940 652 940 q 367 864 448 940 q 248 676 286 789 q 210 450 210 564 q 232 277 210 357 q 304 145 254 197 q 437 94 355 94 q 544 107 484 94 q 657 144 603 120 l 688 387 l 530 387 l 544 494 z "},"Ǵ":{"ha":909,"x_min":71,"x_max":844,"o":"m 544 494 l 833 494 l 778 64 q 740 57 760 62 q 685 41 720 52 l 667 36 q 537 2 597 14 q 412 -11 478 -11 q 223 52 298 -11 q 112 213 148 114 q 74 425 76 313 q 136 749 71 607 q 317 970 201 891 q 573 1048 432 1048 q 712 1038 655 1048 q 818 1010 769 1027 l 844 1003 l 802 882 q 712 922 772 904 q 571 940 652 940 q 367 864 448 940 q 248 676 286 789 q 210 450 210 564 q 232 277 210 357 q 304 145 254 197 q 437 94 355 94 q 544 107 484 94 q 657 144 603 120 l 688 387 l 530 387 l 544 494 m 725 1356 l 809 1270 q 749 1194 789 1234 q 665 1124 709 1155 q 587 1080 620 1093 l 538 1124 l 725 1356 z "},"Ğ":{"ha":909,"x_min":71,"x_max":844,"o":"m 372 1330 q 373 1343 372 1339 l 465 1343 q 467 1322 467 1327 q 485 1264 475 1289 q 517 1222 494 1240 q 580 1204 541 1204 q 646 1224 621 1204 q 685 1268 672 1243 q 710 1326 699 1293 q 715 1343 715 1343 l 805 1343 q 803 1320 805 1332 q 766 1216 795 1265 q 688 1136 737 1166 q 575 1105 639 1105 q 460 1137 506 1105 q 393 1221 414 1170 q 372 1330 372 1272 m 544 494 l 833 494 l 778 64 q 740 57 760 62 q 685 41 720 52 l 667 36 q 537 2 597 14 q 412 -11 478 -11 q 223 52 298 -11 q 112 213 148 114 q 74 425 76 313 q 136 749 71 607 q 317 970 201 891 q 573 1048 432 1048 q 712 1038 655 1048 q 818 1010 769 1027 l 844 1003 l 802 882 q 712 922 772 904 q 571 940 652 940 q 367 864 448 940 q 248 676 286 789 q 210 450 210 564 q 232 277 210 357 q 304 145 254 197 q 437 94 355 94 q 544 107 484 94 q 657 144 603 120 l 688 387 l 530 387 l 544 494 z "},"Ǧ":{"ha":909,"x_min":71,"x_max":844,"o":"m 544 494 l 833 494 l 778 64 q 740 57 760 62 q 685 41 720 52 l 667 36 q 537 2 597 14 q 412 -11 478 -11 q 223 52 298 -11 q 112 213 148 114 q 74 425 76 313 q 136 749 71 607 q 317 970 201 891 q 573 1048 432 1048 q 712 1038 655 1048 q 818 1010 769 1027 l 844 1003 l 802 882 q 712 922 772 904 q 571 940 652 940 q 367 864 448 940 q 248 676 286 789 q 210 450 210 564 q 232 277 210 357 q 304 145 254 197 q 437 94 355 94 q 544 107 484 94 q 657 144 603 120 l 688 387 l 530 387 l 544 494 m 401 1365 l 572 1206 l 785 1365 l 840 1306 l 627 1103 l 507 1103 l 342 1305 l 401 1365 z "},"Ĝ":{"ha":909,"x_min":71,"x_max":844,"o":"m 544 494 l 833 494 l 778 64 q 740 57 760 62 q 685 41 720 52 l 667 36 q 537 2 597 14 q 412 -11 478 -11 q 223 52 298 -11 q 112 213 148 114 q 74 425 76 313 q 136 749 71 607 q 317 970 201 891 q 573 1048 432 1048 q 712 1038 655 1048 q 818 1010 769 1027 l 844 1003 l 802 882 q 712 922 772 904 q 571 940 652 940 q 367 864 448 940 q 248 676 286 789 q 210 450 210 564 q 232 277 210 357 q 304 145 254 197 q 437 94 355 94 q 544 107 484 94 q 657 144 603 120 l 688 387 l 530 387 l 544 494 m 564 1360 l 685 1360 l 814 1127 l 750 1081 l 607 1240 l 395 1075 l 342 1127 l 564 1360 z "},"Ģ":{"ha":909,"x_min":71,"x_max":844,"o":"m 353 -116 l 454 -47 q 509 -95 491 -58 q 528 -183 528 -132 q 509 -278 528 -235 q 461 -347 490 -321 q 404 -380 432 -373 l 350 -346 l 352 -328 q 388 -287 377 -309 q 398 -227 398 -264 q 384 -180 398 -203 q 349 -153 369 -157 l 353 -116 m 544 494 l 833 494 l 778 64 q 740 57 760 62 q 685 41 720 52 l 667 36 q 537 2 597 14 q 412 -11 478 -11 q 223 52 298 -11 q 112 213 148 114 q 74 425 76 313 q 136 749 71 607 q 317 970 201 891 q 573 1048 432 1048 q 712 1038 655 1048 q 818 1010 769 1027 l 844 1003 l 802 882 q 712 922 772 904 q 571 940 652 940 q 367 864 448 940 q 248 676 286 789 q 210 450 210 564 q 232 277 210 357 q 304 145 254 197 q 437 94 355 94 q 544 107 484 94 q 657 144 603 120 l 688 387 l 530 387 l 544 494 z "},"Ġ":{"ha":909,"x_min":71,"x_max":844,"o":"m 494 1227 q 509 1277 494 1253 q 546 1314 524 1300 q 591 1329 569 1329 q 651 1306 629 1329 q 674 1253 674 1284 q 660 1202 674 1226 q 621 1164 645 1179 q 571 1150 597 1150 q 517 1173 540 1150 q 494 1227 494 1196 m 544 494 l 833 494 l 778 64 q 740 57 760 62 q 685 41 720 52 l 667 36 q 537 2 597 14 q 412 -11 478 -11 q 223 52 298 -11 q 112 213 148 114 q 74 425 76 313 q 136 749 71 607 q 317 970 201 891 q 573 1048 432 1048 q 712 1038 655 1048 q 818 1010 769 1027 l 844 1003 l 802 882 q 712 922 772 904 q 571 940 652 940 q 367 864 448 940 q 248 676 286 789 q 210 450 210 564 q 232 277 210 357 q 304 145 254 197 q 437 94 355 94 q 544 107 484 94 q 657 144 603 120 l 688 387 l 530 387 l 544 494 z "},"Ḡ":{"ha":909,"x_min":71,"x_max":844,"o":"m 544 494 l 833 494 l 778 64 q 740 57 760 62 q 685 41 720 52 l 667 36 q 537 2 597 14 q 412 -11 478 -11 q 223 52 298 -11 q 112 213 148 114 q 74 425 76 313 q 136 749 71 607 q 317 970 201 891 q 573 1048 432 1048 q 712 1038 655 1048 q 818 1010 769 1027 l 844 1003 l 802 882 q 712 922 772 904 q 571 940 652 940 q 367 864 448 940 q 248 676 286 789 q 210 450 210 564 q 232 277 210 357 q 304 145 254 197 q 437 94 355 94 q 544 107 484 94 q 657 144 603 120 l 688 387 l 530 387 l 544 494 m 732 1274 l 729 1173 l 384 1173 l 387 1274 l 732 1274 z "},"H":{"ha":956,"x_min":75,"x_max":917,"o":"m 917 1038 l 786 0 l 652 0 l 711 471 l 269 471 l 209 0 l 75 0 l 205 1038 l 340 1038 l 281 572 l 724 572 l 783 1038 l 917 1038 z "},"Ħ":{"ha":956,"x_min":35,"x_max":1027,"o":"m 1018 677 l 871 677 l 786 0 l 652 0 l 703 401 l 260 401 l 209 0 l 75 0 l 160 677 l 35 677 l 45 779 l 173 779 l 205 1038 l 340 1038 l 307 779 l 750 779 l 783 1038 l 917 1038 l 884 779 l 1027 779 l 1018 677 m 737 677 l 294 677 l 273 503 l 715 503 l 737 677 z "},"Ĥ":{"ha":956,"x_min":75,"x_max":917,"o":"m 917 1038 l 786 0 l 652 0 l 711 471 l 269 471 l 209 0 l 75 0 l 205 1038 l 340 1038 l 281 572 l 724 572 l 783 1038 l 917 1038 m 562 1360 l 682 1360 l 811 1127 l 747 1081 l 604 1240 l 392 1075 l 340 1127 l 562 1360 z "},"I":{"ha":393,"x_min":86,"x_max":351,"o":"m 351 1038 l 220 0 l 86 0 l 217 1038 l 351 1038 z "},"Ĳ":{"ha":788,"x_min":86,"x_max":744,"o":"m 351 1038 l 220 0 l 86 0 l 217 1038 l 351 1038 m 744 1038 q 667 395 707 692 q 612 51 628 98 q 539 -92 585 -37 q 435 -173 493 -146 q 302 -214 377 -201 l 278 -154 q 373 -104 330 -137 q 444 -29 416 -71 q 482 58 472 14 q 534 364 511 191 q 584 800 556 537 q 610 1038 604 985 l 744 1038 z "},"Í":{"ha":393,"x_min":86,"x_max":534,"o":"m 351 1038 l 220 0 l 86 0 l 217 1038 l 351 1038 m 450 1356 l 534 1270 q 474 1194 514 1234 q 390 1124 435 1155 q 313 1080 345 1093 l 263 1124 l 450 1356 z "},"Ĭ":{"ha":393,"x_min":86,"x_max":530,"o":"m 351 1038 l 220 0 l 86 0 l 217 1038 l 351 1038 m 98 1330 q 98 1343 98 1339 l 190 1343 q 193 1322 192 1327 q 210 1264 200 1289 q 243 1222 220 1240 q 305 1204 266 1204 q 372 1224 346 1204 q 411 1268 397 1243 q 435 1326 424 1293 q 441 1343 441 1343 l 530 1343 q 528 1320 530 1332 q 491 1216 520 1265 q 413 1136 463 1166 q 300 1105 364 1105 q 185 1137 231 1105 q 119 1221 140 1170 q 98 1330 98 1272 z "},"Ǐ":{"ha":393,"x_min":68,"x_max":566,"o":"m 351 1038 l 220 0 l 86 0 l 217 1038 l 351 1038 m 127 1365 l 298 1206 l 510 1365 l 566 1306 l 352 1103 l 233 1103 l 68 1305 l 127 1365 z "},"Î":{"ha":393,"x_min":68,"x_max":539,"o":"m 351 1038 l 220 0 l 86 0 l 217 1038 l 351 1038 m 290 1360 l 410 1360 l 539 1127 l 475 1081 l 332 1240 l 120 1075 l 68 1127 l 290 1360 z "},"Ï":{"ha":393,"x_min":79,"x_max":543,"o":"m 351 1038 l 220 0 l 86 0 l 217 1038 l 351 1038 m 79 1227 q 94 1277 79 1253 q 131 1314 109 1300 q 176 1329 154 1329 q 236 1306 214 1329 q 259 1253 259 1284 q 244 1202 259 1226 q 206 1164 230 1179 q 156 1150 182 1150 q 102 1173 125 1150 q 79 1227 79 1196 m 362 1231 q 377 1278 362 1256 q 416 1315 393 1301 q 461 1329 439 1329 q 520 1307 498 1329 q 543 1254 543 1285 q 529 1203 543 1227 q 491 1165 515 1179 q 440 1150 467 1150 q 385 1174 408 1150 q 362 1231 362 1198 z "},"İ":{"ha":393,"x_min":86,"x_max":399,"o":"m 351 1038 l 220 0 l 86 0 l 217 1038 l 351 1038 m 220 1227 q 234 1277 220 1253 q 272 1314 249 1300 q 317 1329 294 1329 q 377 1306 354 1329 q 399 1253 399 1284 q 385 1202 399 1226 q 347 1164 370 1179 q 296 1150 323 1150 q 242 1173 265 1150 q 220 1227 220 1196 z "},"Ì":{"ha":393,"x_min":86,"x_max":359,"o":"m 351 1038 l 220 0 l 86 0 l 217 1038 l 351 1038 m 172 1356 l 359 1124 l 310 1080 q 233 1124 277 1093 q 148 1194 188 1155 q 88 1270 109 1234 l 172 1356 z "},"Ī":{"ha":393,"x_min":86,"x_max":458,"o":"m 351 1038 l 220 0 l 86 0 l 217 1038 l 351 1038 m 458 1274 l 454 1173 l 109 1173 l 112 1274 l 458 1274 z "},"Į":{"ha":393,"x_min":-80,"x_max":351,"o":"m 192 0 q 91 -81 130 -45 q 52 -150 52 -117 q 65 -185 52 -175 q 94 -195 78 -195 q 136 -189 116 -195 q 182 -164 157 -182 l 217 -231 q 145 -276 188 -256 q 51 -295 103 -295 q -22 -279 7 -295 q -66 -238 -52 -262 q -80 -191 -80 -214 q -52 -111 -80 -148 q 8 -51 -24 -75 q 86 0 40 -28 l 217 1038 l 351 1038 l 220 0 l 192 0 z "},"Ĩ":{"ha":393,"x_min":47,"x_max":578,"o":"m 351 1038 l 220 0 l 86 0 l 217 1038 l 351 1038 m 47 1221 q 92 1277 61 1250 q 162 1320 123 1303 q 235 1336 200 1336 q 299 1321 273 1336 q 354 1280 325 1307 q 390 1251 375 1260 q 422 1241 404 1241 q 469 1256 450 1241 q 508 1300 487 1271 l 520 1316 l 578 1255 q 538 1193 566 1221 q 472 1148 510 1164 q 396 1131 434 1131 q 346 1139 368 1131 q 310 1157 325 1146 q 277 1185 296 1168 q 237 1216 254 1206 q 197 1226 220 1226 q 157 1214 173 1226 q 118 1178 140 1202 l 106 1164 l 47 1221 z "},"J":{"ha":395,"x_min":-115,"x_max":351,"o":"m 351 1038 q 274 395 313 692 q 219 51 235 98 q 145 -92 191 -37 q 42 -173 100 -146 q -92 -214 -16 -201 l -115 -154 q -20 -104 -63 -137 q 51 -29 22 -71 q 89 58 79 14 q 140 364 118 191 q 191 800 163 537 q 216 1038 210 985 l 351 1038 z "},"Ĵ":{"ha":395,"x_min":-115,"x_max":535,"o":"m 351 1038 q 274 395 313 692 q 219 51 235 98 q 145 -92 191 -37 q 42 -173 100 -146 q -92 -214 -16 -201 l -115 -154 q -20 -104 -63 -137 q 51 -29 22 -71 q 89 58 79 14 q 140 364 118 191 q 191 800 163 537 q 216 1038 210 985 l 351 1038 m 286 1360 l 406 1360 l 535 1127 l 471 1081 l 328 1240 l 116 1075 l 64 1127 l 286 1360 z "},"K":{"ha":844,"x_min":75,"x_max":886,"o":"m 469 574 q 545 448 505 517 q 621 313 585 378 q 641 276 629 297 q 667 231 652 256 q 805 0 751 81 l 644 0 q 538 195 629 20 q 519 230 534 200 q 384 479 425 406 l 251 332 l 209 0 l 75 0 l 205 1038 l 340 1038 l 274 514 l 729 1038 l 886 1038 l 469 574 z "},"Ķ":{"ha":844,"x_min":75,"x_max":886,"o":"m 325 -115 l 426 -46 q 481 -94 463 -57 q 499 -182 499 -130 q 480 -277 499 -234 q 432 -346 461 -319 q 376 -378 404 -372 l 321 -345 l 323 -327 q 359 -285 349 -307 q 370 -225 370 -263 q 355 -179 370 -201 q 321 -151 340 -156 l 325 -115 m 469 574 q 545 448 505 517 q 621 313 585 378 q 641 276 629 297 q 667 231 652 256 q 805 0 751 81 l 644 0 q 538 195 629 20 q 519 230 534 200 q 384 479 425 406 l 251 332 l 209 0 l 75 0 l 205 1038 l 340 1038 l 274 514 l 729 1038 l 886 1038 l 469 574 z "},"L":{"ha":663,"x_min":75,"x_max":610,"o":"m 340 1038 l 223 112 l 610 115 l 595 0 l 75 0 l 205 1038 l 340 1038 z "},"Ǉ":{"ha":1058,"x_min":75,"x_max":1014,"o":"m 340 1038 l 223 112 l 610 115 l 595 0 l 75 0 l 205 1038 l 340 1038 m 1014 1038 q 937 395 977 692 q 882 51 898 98 q 809 -92 854 -37 q 705 -173 763 -146 q 572 -214 647 -201 l 548 -154 q 643 -104 600 -137 q 714 -29 686 -71 q 752 58 742 14 q 804 364 781 191 q 854 800 826 537 q 880 1038 873 985 l 1014 1038 z "},"Ĺ":{"ha":663,"x_min":75,"x_max":610,"o":"m 448 1358 l 532 1271 q 472 1196 512 1235 q 388 1125 433 1156 q 311 1082 343 1094 l 261 1126 l 448 1358 m 340 1038 l 223 112 l 610 115 l 595 0 l 75 0 l 205 1038 l 340 1038 z "},"Ľ":{"ha":663,"x_min":75,"x_max":682,"o":"m 340 1038 l 223 112 l 610 115 l 595 0 l 75 0 l 205 1038 l 340 1038 m 530 726 q 557 937 557 843 q 552 1014 557 977 q 536 1066 546 1051 l 543 1088 l 663 1119 q 678 1055 674 1092 q 682 963 682 1019 q 660 815 682 895 q 602 682 637 736 l 534 709 l 530 726 z "},"Ļ":{"ha":663,"x_min":75,"x_max":610,"o":"m 256 -115 l 357 -46 q 412 -94 394 -57 q 431 -182 431 -130 q 412 -277 431 -234 q 364 -346 393 -319 q 307 -378 335 -372 l 253 -345 l 255 -327 q 291 -285 280 -307 q 301 -225 301 -263 q 287 -179 301 -201 q 252 -151 272 -156 l 256 -115 m 340 1038 l 223 112 l 610 115 l 595 0 l 75 0 l 205 1038 l 340 1038 z "},"Ŀ":{"ha":743,"x_min":75,"x_max":705,"o":"m 340 1038 l 223 112 l 610 115 l 595 0 l 75 0 l 205 1038 l 340 1038 m 624 694 q 685 672 665 694 q 705 618 705 650 q 676 538 705 568 q 598 509 647 509 q 541 531 564 509 q 517 585 517 552 q 531 638 517 614 q 568 679 544 663 q 624 694 593 694 z "},"ǈ":{"ha":1056,"x_min":75,"x_max":1036,"o":"m 340 1038 l 223 112 l 610 115 l 595 0 l 75 0 l 205 1038 l 340 1038 m 983 773 l 879 3 q 826 -184 865 -104 q 728 -306 787 -263 q 598 -349 670 -349 q 507 -322 545 -349 l 543 -247 q 559 -254 547 -251 q 579 -256 572 -256 q 670 -217 636 -256 q 722 -113 705 -177 q 752 47 739 -50 l 851 773 l 983 773 m 854 1022 q 868 1071 854 1048 q 905 1108 882 1095 q 953 1122 928 1122 q 1013 1101 989 1122 q 1036 1048 1036 1079 q 1021 997 1036 1021 q 983 959 1007 973 q 932 944 960 944 q 878 967 901 944 q 854 1022 854 990 z "},"Ł":{"ha":663,"x_min":-35,"x_max":610,"o":"m 610 115 l 595 0 l 75 0 l 123 384 l -10 328 l -35 408 l 135 481 l 205 1038 l 340 1038 l 277 542 l 525 649 l 549 563 l 265 444 l 223 112 l 610 115 z "},"M":{"ha":1215,"x_min":33,"x_max":1100,"o":"m 463 1038 l 572 319 l 582 204 l 616 319 l 905 1038 l 1100 1038 l 1076 0 l 939 0 l 973 692 l 989 951 l 897 724 l 601 -2 l 506 -12 l 397 707 l 372 951 l 330 701 l 168 0 l 33 0 l 290 1038 l 463 1038 z "},"Ṁ":{"ha":1215,"x_min":33,"x_max":1100,"o":"m 618 1227 q 632 1277 618 1253 q 670 1314 647 1300 q 715 1329 692 1329 q 775 1306 752 1329 q 798 1253 798 1284 q 783 1202 798 1226 q 745 1164 768 1179 q 694 1150 721 1150 q 641 1173 663 1150 q 618 1227 618 1196 m 463 1038 l 572 319 l 582 204 l 616 319 l 905 1038 l 1100 1038 l 1076 0 l 939 0 l 973 692 l 989 951 l 897 724 l 601 -2 l 506 -12 l 397 707 l 372 951 l 330 701 l 168 0 l 33 0 l 290 1038 l 463 1038 z "},"N":{"ha":949,"x_min":75,"x_max":910,"o":"m 345 1038 l 644 317 l 686 177 l 699 346 l 783 1038 l 910 1038 l 779 0 l 648 0 l 340 729 l 304 886 l 286 684 l 200 0 l 75 0 l 205 1038 l 345 1038 z "},"Ǌ":{"ha":1344,"x_min":75,"x_max":1300,"o":"m 345 1038 l 644 317 l 686 177 l 699 346 l 783 1038 l 910 1038 l 779 0 l 648 0 l 340 729 l 304 886 l 286 684 l 200 0 l 75 0 l 205 1038 l 345 1038 m 1300 1038 q 1223 395 1263 692 q 1168 51 1184 98 q 1095 -92 1141 -37 q 991 -173 1049 -146 q 858 -214 933 -201 l 834 -154 q 929 -104 886 -137 q 1000 -29 972 -71 q 1038 58 1028 14 q 1090 364 1067 191 q 1140 800 1112 537 q 1166 1038 1160 985 l 1300 1038 z "},"Ń":{"ha":949,"x_min":75,"x_max":910,"o":"m 736 1356 l 821 1270 q 761 1194 800 1234 q 676 1124 721 1155 q 599 1080 631 1093 l 549 1124 l 736 1356 m 345 1038 l 644 317 l 686 177 l 699 346 l 783 1038 l 910 1038 l 779 0 l 648 0 l 340 729 l 304 886 l 286 684 l 200 0 l 75 0 l 205 1038 l 345 1038 z "},"Ň":{"ha":949,"x_min":75,"x_max":910,"o":"m 413 1365 l 584 1206 l 796 1365 l 852 1306 l 638 1103 l 519 1103 l 354 1305 l 413 1365 m 345 1038 l 644 317 l 686 177 l 699 346 l 783 1038 l 910 1038 l 779 0 l 648 0 l 340 729 l 304 886 l 286 684 l 200 0 l 75 0 l 205 1038 l 345 1038 z "},"Ņ":{"ha":949,"x_min":75,"x_max":910,"o":"m 340 -116 l 441 -47 q 496 -95 478 -58 q 515 -183 515 -132 q 496 -278 515 -235 q 448 -347 477 -321 q 391 -380 419 -373 l 337 -346 l 339 -328 q 375 -287 364 -309 q 385 -227 385 -264 q 371 -180 385 -203 q 336 -153 356 -157 l 340 -116 m 345 1038 l 644 317 l 686 177 l 699 346 l 783 1038 l 910 1038 l 779 0 l 648 0 l 340 729 l 304 886 l 286 684 l 200 0 l 75 0 l 205 1038 l 345 1038 z "},"Ṅ":{"ha":949,"x_min":75,"x_max":910,"o":"m 345 1038 l 644 317 l 686 177 l 699 346 l 783 1038 l 910 1038 l 779 0 l 648 0 l 340 729 l 304 886 l 286 684 l 200 0 l 75 0 l 205 1038 l 345 1038 m 506 1227 q 520 1277 506 1253 q 558 1314 535 1300 q 603 1329 581 1329 q 663 1306 640 1329 q 686 1253 686 1284 q 671 1202 686 1226 q 633 1164 656 1179 q 583 1150 609 1150 q 529 1173 551 1150 q 506 1227 506 1196 z "},"Ŋ":{"ha":1028,"x_min":75,"x_max":910,"o":"m 910 1038 l 779 0 l 777 0 q 660 -145 736 -94 q 475 -214 584 -195 l 451 -154 q 567 -87 517 -133 q 642 16 617 -41 l 340 729 l 304 886 l 286 684 l 200 0 l 75 0 l 205 1038 l 345 1038 l 644 317 l 686 177 l 699 346 l 783 1038 l 910 1038 z "},"ǋ":{"ha":1342,"x_min":75,"x_max":1322,"o":"m 345 1038 l 644 317 l 686 177 l 699 346 l 783 1038 l 910 1038 l 779 0 l 648 0 l 340 729 l 304 886 l 286 684 l 200 0 l 75 0 l 205 1038 l 345 1038 m 1270 773 l 1165 3 q 1112 -184 1151 -104 q 1015 -306 1073 -263 q 884 -349 956 -349 q 793 -322 831 -349 l 829 -247 q 846 -254 833 -251 q 865 -256 858 -256 q 957 -217 922 -256 q 1008 -113 991 -177 q 1038 47 1025 -50 l 1137 773 l 1270 773 m 1141 1022 q 1155 1071 1141 1048 q 1191 1108 1168 1095 q 1239 1122 1214 1122 q 1299 1101 1276 1122 q 1322 1048 1322 1079 q 1308 997 1322 1021 q 1270 959 1293 973 q 1219 944 1246 944 q 1164 967 1187 944 q 1141 1022 1141 990 z "},"Ñ":{"ha":949,"x_min":75,"x_max":910,"o":"m 333 1221 q 378 1277 347 1250 q 448 1320 410 1303 q 521 1336 486 1336 q 585 1321 559 1336 q 640 1280 611 1307 q 676 1251 661 1260 q 709 1241 690 1241 q 755 1256 736 1241 q 794 1300 773 1271 l 806 1316 l 864 1255 q 824 1193 852 1221 q 758 1148 796 1164 q 682 1131 720 1131 q 632 1139 654 1131 q 596 1157 611 1146 q 563 1185 582 1168 q 524 1216 541 1206 q 484 1226 507 1226 q 443 1214 459 1226 q 404 1178 427 1202 l 392 1164 l 333 1221 m 345 1038 l 644 317 l 686 177 l 699 346 l 783 1038 l 910 1038 l 779 0 l 648 0 l 340 729 l 304 886 l 286 684 l 200 0 l 75 0 l 205 1038 l 345 1038 z "},"O":{"ha":935,"x_min":73,"x_max":885,"o":"m 73 431 q 136 745 73 604 q 308 967 198 886 q 552 1048 417 1048 q 735 990 661 1048 q 848 832 810 931 q 885 609 885 732 q 824 295 885 437 q 654 71 764 153 q 406 -11 545 -11 q 223 48 298 -11 q 111 207 148 106 q 73 431 73 307 m 745 599 q 690 860 743 777 q 530 942 638 942 q 364 871 437 942 q 250 685 290 800 q 213 439 210 569 q 269 176 216 260 q 428 92 321 92 q 595 162 522 92 q 708 348 668 231 q 745 599 747 464 z "},"Ó":{"ha":935,"x_min":73,"x_max":885,"o":"m 718 1356 l 802 1270 q 742 1194 781 1234 q 657 1124 702 1155 q 580 1080 612 1093 l 530 1124 l 718 1356 m 73 431 q 136 745 73 604 q 308 967 198 886 q 552 1048 417 1048 q 735 990 661 1048 q 848 832 810 931 q 885 609 885 732 q 824 295 885 437 q 654 71 764 153 q 406 -11 545 -11 q 223 48 298 -11 q 111 207 148 106 q 73 431 73 307 m 745 599 q 690 860 743 777 q 530 942 638 942 q 364 871 437 942 q 250 685 290 800 q 213 439 210 569 q 269 176 216 260 q 428 92 321 92 q 595 162 522 92 q 708 348 668 231 q 745 599 747 464 z "},"Ŏ":{"ha":935,"x_min":73,"x_max":885,"o":"m 365 1330 q 366 1343 365 1339 l 457 1343 q 460 1322 459 1327 q 477 1264 467 1289 q 510 1222 487 1240 q 572 1204 533 1204 q 639 1224 613 1204 q 678 1268 665 1243 q 703 1326 691 1293 q 708 1343 708 1343 l 798 1343 q 795 1320 798 1332 q 759 1216 787 1265 q 681 1136 730 1166 q 568 1105 631 1105 q 453 1137 498 1105 q 386 1221 407 1170 q 365 1330 365 1272 m 73 431 q 136 745 73 604 q 308 967 198 886 q 552 1048 417 1048 q 735 990 661 1048 q 848 832 810 931 q 885 609 885 732 q 824 295 885 437 q 654 71 764 153 q 406 -11 545 -11 q 223 48 298 -11 q 111 207 148 106 q 73 431 73 307 m 745 599 q 690 860 743 777 q 530 942 638 942 q 364 871 437 942 q 250 685 290 800 q 213 439 210 569 q 269 176 216 260 q 428 92 321 92 q 595 162 522 92 q 708 348 668 231 q 745 599 747 464 z "},"Ǒ":{"ha":935,"x_min":73,"x_max":885,"o":"m 73 431 q 136 745 73 604 q 308 967 198 886 q 552 1048 417 1048 q 735 990 661 1048 q 848 832 810 931 q 885 609 885 732 q 824 295 885 437 q 654 71 764 153 q 406 -11 545 -11 q 223 48 298 -11 q 111 207 148 106 q 73 431 73 307 m 745 599 q 690 860 743 777 q 530 942 638 942 q 364 871 437 942 q 250 685 290 800 q 213 439 210 569 q 269 176 216 260 q 428 92 321 92 q 595 162 522 92 q 708 348 668 231 q 745 599 747 464 m 394 1365 l 565 1206 l 777 1365 l 833 1306 l 619 1103 l 500 1103 l 335 1305 l 394 1365 z "},"Ô":{"ha":935,"x_min":73,"x_max":885,"o":"m 73 431 q 136 745 73 604 q 308 967 198 886 q 552 1048 417 1048 q 735 990 661 1048 q 848 832 810 931 q 885 609 885 732 q 824 295 885 437 q 654 71 764 153 q 406 -11 545 -11 q 223 48 298 -11 q 111 207 148 106 q 73 431 73 307 m 745 599 q 690 860 743 777 q 530 942 638 942 q 364 871 437 942 q 250 685 290 800 q 213 439 210 569 q 269 176 216 260 q 428 92 321 92 q 595 162 522 92 q 708 348 668 231 q 745 599 747 464 m 557 1360 l 677 1360 l 806 1127 l 743 1081 l 600 1240 l 387 1075 l 335 1127 l 557 1360 z "},"Ö":{"ha":935,"x_min":73,"x_max":885,"o":"m 347 1227 q 361 1277 347 1253 q 398 1314 376 1300 q 444 1329 421 1329 q 504 1306 481 1329 q 526 1253 526 1284 q 512 1202 526 1226 q 473 1164 497 1179 q 423 1150 450 1150 q 369 1173 392 1150 q 347 1227 347 1196 m 629 1231 q 645 1278 629 1256 q 683 1315 660 1301 q 728 1329 707 1329 q 788 1307 765 1329 q 810 1254 810 1285 q 796 1203 810 1227 q 758 1165 782 1179 q 707 1150 734 1150 q 652 1174 675 1150 q 629 1231 629 1198 m 73 431 q 136 745 73 604 q 308 967 198 886 q 552 1048 417 1048 q 735 990 661 1048 q 848 832 810 931 q 885 609 885 732 q 824 295 885 437 q 654 71 764 153 q 406 -11 545 -11 q 223 48 298 -11 q 111 207 148 106 q 73 431 73 307 m 745 599 q 690 860 743 777 q 530 942 638 942 q 364 871 437 942 q 250 685 290 800 q 213 439 210 569 q 269 176 216 260 q 428 92 321 92 q 595 162 522 92 q 708 348 668 231 q 745 599 747 464 z "},"Ò":{"ha":935,"x_min":73,"x_max":885,"o":"m 439 1356 l 627 1124 l 577 1080 q 500 1124 545 1093 q 415 1194 455 1155 q 355 1270 376 1234 l 439 1356 m 73 431 q 136 745 73 604 q 308 967 198 886 q 552 1048 417 1048 q 735 990 661 1048 q 848 832 810 931 q 885 609 885 732 q 824 295 885 437 q 654 71 764 153 q 406 -11 545 -11 q 223 48 298 -11 q 111 207 148 106 q 73 431 73 307 m 745 599 q 690 860 743 777 q 530 942 638 942 q 364 871 437 942 q 250 685 290 800 q 213 439 210 569 q 269 176 216 260 q 428 92 321 92 q 595 162 522 92 q 708 348 668 231 q 745 599 747 464 z "},"Ő":{"ha":935,"x_min":73,"x_max":957,"o":"m 73 431 q 136 745 73 604 q 308 967 198 886 q 552 1048 417 1048 q 735 990 661 1048 q 848 832 810 931 q 885 609 885 732 q 824 295 885 437 q 654 71 764 153 q 406 -11 545 -11 q 223 48 298 -11 q 111 207 148 106 q 73 431 73 307 m 745 599 q 690 860 743 777 q 530 942 638 942 q 364 871 437 942 q 250 685 290 800 q 213 439 210 569 q 269 176 216 260 q 428 92 321 92 q 595 162 522 92 q 708 348 668 231 q 745 599 747 464 m 584 1356 l 674 1276 q 613 1194 658 1240 q 517 1109 568 1147 q 436 1058 466 1072 l 372 1102 l 584 1356 m 865 1356 l 957 1276 q 891 1192 938 1238 q 792 1108 845 1146 q 704 1058 739 1071 l 654 1102 l 865 1356 z "},"Ō":{"ha":935,"x_min":73,"x_max":885,"o":"m 725 1274 l 722 1173 l 376 1173 l 379 1274 l 725 1274 m 73 431 q 136 745 73 604 q 308 967 198 886 q 552 1048 417 1048 q 735 990 661 1048 q 848 832 810 931 q 885 609 885 732 q 824 295 885 437 q 654 71 764 153 q 406 -11 545 -11 q 223 48 298 -11 q 111 207 148 106 q 73 431 73 307 m 745 599 q 690 860 743 777 q 530 942 638 942 q 364 871 437 942 q 250 685 290 800 q 213 439 210 569 q 269 176 216 260 q 428 92 321 92 q 595 162 522 92 q 708 348 668 231 q 745 599 747 464 z "},"Ø":{"ha":935,"x_min":39,"x_max":890,"o":"m 786 942 q 860 796 836 882 q 885 609 885 710 q 824 295 885 437 q 654 71 764 153 q 406 -11 545 -11 q 201 65 285 -11 l 99 -90 l 39 -56 l 155 119 q 94 258 115 178 q 73 431 73 338 q 136 745 73 604 q 308 967 198 886 q 552 1048 417 1048 q 736 990 659 1048 l 830 1133 l 890 1099 l 786 942 m 530 942 q 367 873 439 942 q 254 692 294 805 q 213 453 213 580 q 241 235 213 321 l 664 893 q 530 942 614 942 m 428 92 q 592 159 520 92 q 705 339 665 227 q 745 585 745 452 q 705 831 745 743 l 277 163 q 428 92 328 92 z "},"Ǿ":{"ha":935,"x_min":39,"x_max":890,"o":"m 786 942 q 860 796 836 882 q 885 609 885 710 q 824 295 885 437 q 654 71 764 153 q 406 -11 545 -11 q 201 65 285 -11 l 99 -90 l 39 -56 l 155 119 q 94 258 115 178 q 73 431 73 338 q 136 745 73 604 q 308 967 198 886 q 552 1048 417 1048 q 736 990 659 1048 l 830 1133 l 890 1099 l 786 942 m 530 942 q 367 873 439 942 q 254 692 294 805 q 213 453 213 580 q 241 235 213 321 l 664 893 q 530 942 614 942 m 428 92 q 592 159 520 92 q 705 339 665 227 q 745 585 745 452 q 705 831 745 743 l 277 163 q 428 92 328 92 m 695 1356 l 779 1270 q 719 1194 759 1234 q 635 1124 680 1155 q 557 1080 590 1093 l 508 1124 l 695 1356 z "},"Õ":{"ha":935,"x_min":73,"x_max":885,"o":"m 314 1221 q 359 1277 328 1250 q 429 1320 391 1303 q 502 1336 467 1336 q 566 1321 541 1336 q 621 1280 592 1307 q 657 1251 642 1260 q 690 1241 671 1241 q 736 1256 718 1241 q 775 1300 754 1271 l 787 1316 l 845 1255 q 805 1193 833 1221 q 739 1148 777 1164 q 663 1131 701 1131 q 613 1139 635 1131 q 577 1157 592 1146 q 544 1185 563 1168 q 505 1216 522 1206 q 465 1226 488 1226 q 424 1214 440 1226 q 385 1178 408 1202 l 373 1164 l 314 1221 m 73 431 q 136 745 73 604 q 308 967 198 886 q 552 1048 417 1048 q 735 990 661 1048 q 848 832 810 931 q 885 609 885 732 q 824 295 885 437 q 654 71 764 153 q 406 -11 545 -11 q 223 48 298 -11 q 111 207 148 106 q 73 431 73 307 m 745 599 q 690 860 743 777 q 530 942 638 942 q 364 871 437 942 q 250 685 290 800 q 213 439 210 569 q 269 176 216 260 q 428 92 321 92 q 595 162 522 92 q 708 348 668 231 q 745 599 747 464 z "},"Œ":{"ha":1428,"x_min":73,"x_max":1380,"o":"m 981 937 l 936 579 l 1233 584 l 1225 471 l 924 481 l 876 101 l 1350 112 l 1341 0 l 729 0 l 751 178 q 601 39 689 88 q 406 -11 513 -11 q 223 48 298 -11 q 111 207 148 106 q 73 431 73 307 q 136 745 73 604 q 308 967 198 886 q 552 1048 417 1048 q 728 993 657 1048 q 835 840 799 938 l 860 1038 l 1380 1038 l 1375 931 l 981 937 m 428 92 q 595 162 522 92 q 708 348 668 231 q 745 599 747 464 q 690 860 743 777 q 530 942 638 942 q 364 871 437 942 q 250 685 290 800 q 213 439 210 569 q 269 176 216 260 q 428 92 321 92 z "},"P":{"ha":800,"x_min":75,"x_max":794,"o":"m 284 1038 q 379 1043 315 1038 q 484 1048 446 1048 q 715 981 636 1048 q 794 774 794 913 q 741 551 794 646 q 594 404 688 455 q 378 353 499 353 q 254 359 294 353 l 209 0 l 75 0 l 205 1038 l 284 1038 m 374 458 q 587 538 519 458 q 658 772 655 617 q 463 948 661 948 q 395 944 435 948 q 326 934 355 940 l 268 468 q 317 461 286 465 q 374 458 349 458 z "},"Ṗ":{"ha":800,"x_min":75,"x_max":794,"o":"m 448 1227 q 463 1277 448 1253 q 500 1314 477 1300 q 545 1329 523 1329 q 605 1306 583 1329 q 628 1253 628 1284 q 613 1202 628 1226 q 575 1164 599 1179 q 525 1150 551 1150 q 471 1173 494 1150 q 448 1227 448 1196 m 284 1038 q 379 1043 315 1038 q 484 1048 446 1048 q 715 981 636 1048 q 794 774 794 913 q 741 551 794 646 q 594 404 688 455 q 378 353 499 353 q 254 359 294 353 l 209 0 l 75 0 l 205 1038 l 284 1038 m 374 458 q 587 538 519 458 q 658 772 655 617 q 463 948 661 948 q 395 944 435 948 q 326 934 355 940 l 268 468 q 317 461 286 465 q 374 458 349 458 z "},"Þ":{"ha":821,"x_min":75,"x_max":772,"o":"m 772 604 q 720 381 772 477 q 572 234 667 286 q 356 183 477 183 q 233 190 272 183 l 209 0 l 75 0 l 205 1038 l 340 1038 l 319 870 q 358 873 330 871 q 397 877 364 874 q 463 880 429 880 q 693 811 614 880 q 772 604 772 743 m 636 603 q 441 779 640 779 q 374 774 414 779 q 305 764 334 770 l 246 298 q 296 292 264 295 q 353 289 327 289 q 565 368 497 289 q 636 603 633 448 z "},"Q":{"ha":935,"x_min":73,"x_max":885,"o":"m 488 -3 q 520 -80 490 -54 q 591 -112 549 -105 q 694 -119 633 -119 q 760 -115 721 -119 q 825 -100 799 -110 l 825 -205 q 738 -233 801 -222 q 616 -244 675 -244 q 503 -222 554 -244 q 421 -155 452 -199 q 390 -45 390 -110 q 392 -11 390 -29 q 216 53 288 -7 q 109 212 144 113 q 73 431 73 310 q 136 745 73 604 q 308 967 198 886 q 552 1048 417 1048 q 735 990 661 1048 q 848 832 810 931 q 885 609 885 732 q 836 323 885 454 q 695 106 786 192 q 488 -3 605 20 m 213 439 q 269 176 216 260 q 428 92 321 92 q 595 162 522 92 q 708 348 668 231 q 745 599 747 464 q 690 860 743 777 q 530 942 638 942 q 364 871 437 942 q 250 685 290 800 q 213 439 210 569 z "},"R":{"ha":861,"x_min":73,"x_max":802,"o":"m 561 460 q 613 381 585 435 q 655 283 641 328 q 740 85 712 146 q 787 -1 768 24 l 633 1 q 545 208 601 51 q 478 376 513 313 q 401 441 444 438 q 346 442 387 441 q 263 443 306 443 l 208 0 l 73 0 l 204 1038 l 273 1038 q 376 1043 311 1038 q 483 1048 441 1048 q 721 984 640 1048 q 802 799 802 919 q 773 650 802 718 q 691 532 745 582 q 561 460 637 483 m 428 549 q 558 582 506 549 q 634 672 610 614 q 656 804 658 730 q 606 909 654 872 q 468 945 558 945 q 393 942 439 945 q 326 935 347 938 l 277 551 q 428 549 311 549 z "},"Ŕ":{"ha":861,"x_min":73,"x_max":802,"o":"m 561 460 q 613 381 585 435 q 655 283 641 328 q 740 85 712 146 q 787 -1 768 24 l 633 1 q 545 208 601 51 q 478 376 513 313 q 401 441 444 438 q 346 442 387 441 q 263 443 306 443 l 208 0 l 73 0 l 204 1038 l 273 1038 q 376 1043 311 1038 q 483 1048 441 1048 q 721 984 640 1048 q 802 799 802 919 q 773 650 802 718 q 691 532 745 582 q 561 460 637 483 m 428 549 q 558 582 506 549 q 634 672 610 614 q 656 804 658 730 q 606 909 654 872 q 468 945 558 945 q 393 942 439 945 q 326 935 347 938 l 277 551 q 428 549 311 549 m 669 1356 l 753 1270 q 693 1194 732 1234 q 608 1124 653 1155 q 531 1080 564 1093 l 481 1124 l 669 1356 z "},"Ř":{"ha":861,"x_min":73,"x_max":802,"o":"m 345 1365 l 516 1206 l 728 1365 l 784 1306 l 570 1103 l 451 1103 l 286 1305 l 345 1365 m 561 460 q 613 381 585 435 q 655 283 641 328 q 740 85 712 146 q 787 -1 768 24 l 633 1 q 545 208 601 51 q 478 376 513 313 q 401 441 444 438 q 346 442 387 441 q 263 443 306 443 l 208 0 l 73 0 l 204 1038 l 273 1038 q 376 1043 311 1038 q 483 1048 441 1048 q 721 984 640 1048 q 802 799 802 919 q 773 650 802 718 q 691 532 745 582 q 561 460 637 483 m 428 549 q 558 582 506 549 q 634 672 610 614 q 656 804 658 730 q 606 909 654 872 q 468 945 558 945 q 393 942 439 945 q 326 935 347 938 l 277 551 q 428 549 311 549 z "},"Ŗ":{"ha":861,"x_min":73,"x_max":802,"o":"m 333 -116 l 434 -47 q 489 -95 471 -58 q 507 -183 507 -132 q 488 -278 507 -235 q 440 -347 469 -321 q 384 -380 412 -373 l 330 -346 l 332 -328 q 367 -287 357 -309 q 378 -227 378 -264 q 363 -180 378 -203 q 329 -153 349 -157 l 333 -116 m 561 460 q 613 381 585 435 q 655 283 641 328 q 740 85 712 146 q 787 -1 768 24 l 633 1 q 545 208 601 51 q 478 376 513 313 q 401 441 444 438 q 346 442 387 441 q 263 443 306 443 l 208 0 l 73 0 l 204 1038 l 273 1038 q 376 1043 311 1038 q 483 1048 441 1048 q 721 984 640 1048 q 802 799 802 919 q 773 650 802 718 q 691 532 745 582 q 561 460 637 483 m 428 549 q 558 582 506 549 q 634 672 610 614 q 656 804 658 730 q 606 909 654 872 q 468 945 558 945 q 393 942 439 945 q 326 935 347 938 l 277 551 q 428 549 311 549 z "},"S":{"ha":708,"x_min":20,"x_max":672,"o":"m 57 159 q 104 130 70 145 q 184 104 139 115 q 269 94 229 94 q 423 132 361 94 q 485 253 485 170 q 452 362 485 312 q 338 465 419 412 q 229 549 275 507 q 154 648 183 591 q 124 778 124 705 q 164 923 124 862 q 276 1016 205 984 q 439 1048 348 1048 q 582 1031 524 1048 q 672 991 640 1015 l 629 888 q 548 932 600 918 q 448 946 496 946 q 317 915 372 946 q 258 806 262 884 q 272 715 256 753 q 320 647 287 678 q 417 572 353 616 q 524 491 480 530 q 596 399 567 452 q 625 279 625 347 q 578 119 625 184 q 452 22 532 54 q 267 -11 371 -11 q 163 -1 214 -11 q 74 23 112 9 q 20 51 35 37 l 57 159 z "},"Ś":{"ha":708,"x_min":20,"x_max":700,"o":"m 57 159 q 104 130 70 145 q 184 104 139 115 q 269 94 229 94 q 423 132 361 94 q 485 253 485 170 q 452 362 485 312 q 338 465 419 412 q 229 549 275 507 q 154 648 183 591 q 124 778 124 705 q 164 923 124 862 q 276 1016 205 984 q 439 1048 348 1048 q 582 1031 524 1048 q 672 991 640 1015 l 629 888 q 548 932 600 918 q 448 946 496 946 q 317 915 372 946 q 258 806 262 884 q 272 715 256 753 q 320 647 287 678 q 417 572 353 616 q 524 491 480 530 q 596 399 567 452 q 625 279 625 347 q 578 119 625 184 q 452 22 532 54 q 267 -11 371 -11 q 163 -1 214 -11 q 74 23 112 9 q 20 51 35 37 l 57 159 m 616 1356 l 700 1270 q 640 1194 680 1234 q 555 1124 600 1155 q 478 1080 511 1093 l 429 1124 l 616 1356 z "},"Š":{"ha":708,"x_min":20,"x_max":731,"o":"m 57 159 q 104 130 70 145 q 184 104 139 115 q 269 94 229 94 q 423 132 361 94 q 485 253 485 170 q 452 362 485 312 q 338 465 419 412 q 229 549 275 507 q 154 648 183 591 q 124 778 124 705 q 164 923 124 862 q 276 1016 205 984 q 439 1048 348 1048 q 582 1031 524 1048 q 672 991 640 1015 l 629 888 q 548 932 600 918 q 448 946 496 946 q 317 915 372 946 q 258 806 262 884 q 272 715 256 753 q 320 647 287 678 q 417 572 353 616 q 524 491 480 530 q 596 399 567 452 q 625 279 625 347 q 578 119 625 184 q 452 22 532 54 q 267 -11 371 -11 q 163 -1 214 -11 q 74 23 112 9 q 20 51 35 37 l 57 159 m 292 1365 l 463 1206 l 675 1365 l 731 1306 l 517 1103 l 398 1103 l 233 1305 l 292 1365 z "},"Ş":{"ha":708,"x_min":20,"x_max":672,"o":"m 439 1048 q 582 1031 524 1048 q 672 991 640 1015 l 629 888 q 548 932 600 918 q 448 946 496 946 q 317 915 372 946 q 258 806 262 884 q 272 715 256 753 q 320 647 287 678 q 417 572 353 616 q 524 491 480 530 q 596 399 567 452 q 625 279 625 347 q 588 135 625 196 q 488 39 552 75 q 338 -7 423 3 q 354 -112 354 -49 q 301 -267 354 -219 q 165 -315 249 -315 q 107 -309 138 -315 q 65 -296 76 -304 l 82 -193 q 130 -203 100 -203 q 209 -176 179 -203 q 238 -81 238 -150 l 238 -35 l 238 -10 q 145 2 191 -7 q 67 25 100 12 q 20 51 34 39 l 57 159 q 104 130 70 145 q 184 104 139 115 q 269 94 229 94 q 423 132 361 94 q 485 253 485 170 q 452 362 485 312 q 338 465 419 412 q 229 549 275 507 q 154 648 183 591 q 124 778 124 705 q 164 923 124 862 q 276 1016 205 984 q 439 1048 348 1048 z "},"Ŝ":{"ha":708,"x_min":20,"x_max":705,"o":"m 57 159 q 104 130 70 145 q 184 104 139 115 q 269 94 229 94 q 423 132 361 94 q 485 253 485 170 q 452 362 485 312 q 338 465 419 412 q 229 549 275 507 q 154 648 183 591 q 124 778 124 705 q 164 923 124 862 q 276 1016 205 984 q 439 1048 348 1048 q 582 1031 524 1048 q 672 991 640 1015 l 629 888 q 548 932 600 918 q 448 946 496 946 q 317 915 372 946 q 258 806 262 884 q 272 715 256 753 q 320 647 287 678 q 417 572 353 616 q 524 491 480 530 q 596 399 567 452 q 625 279 625 347 q 578 119 625 184 q 452 22 532 54 q 267 -11 371 -11 q 163 -1 214 -11 q 74 23 112 9 q 20 51 35 37 l 57 159 m 455 1360 l 576 1360 l 705 1127 l 641 1081 l 498 1240 l 286 1075 l 233 1127 l 455 1360 z "},"Ș":{"ha":708,"x_min":20,"x_max":672,"o":"m 190 -116 l 291 -47 q 346 -95 328 -58 q 364 -183 364 -132 q 345 -278 364 -235 q 297 -347 326 -321 q 241 -380 269 -373 l 186 -346 l 189 -328 q 224 -287 214 -309 q 235 -227 235 -264 q 220 -180 235 -203 q 186 -153 205 -157 l 190 -116 m 57 159 q 104 130 70 145 q 184 104 139 115 q 269 94 229 94 q 423 132 361 94 q 485 253 485 170 q 452 362 485 312 q 338 465 419 412 q 229 549 275 507 q 154 648 183 591 q 124 778 124 705 q 164 923 124 862 q 276 1016 205 984 q 439 1048 348 1048 q 582 1031 524 1048 q 672 991 640 1015 l 629 888 q 548 932 600 918 q 448 946 496 946 q 317 915 372 946 q 258 806 262 884 q 272 715 256 753 q 320 647 287 678 q 417 572 353 616 q 524 491 480 530 q 596 399 567 452 q 625 279 625 347 q 578 119 625 184 q 452 22 532 54 q 267 -11 371 -11 q 163 -1 214 -11 q 74 23 112 9 q 20 51 35 37 l 57 159 z "},"Ṡ":{"ha":708,"x_min":20,"x_max":672,"o":"m 385 1227 q 400 1277 385 1253 q 437 1314 414 1300 q 482 1329 460 1329 q 542 1306 519 1329 q 565 1253 565 1284 q 550 1202 565 1226 q 512 1164 536 1179 q 462 1150 488 1150 q 408 1173 431 1150 q 385 1227 385 1196 m 57 159 q 104 130 70 145 q 184 104 139 115 q 269 94 229 94 q 423 132 361 94 q 485 253 485 170 q 452 362 485 312 q 338 465 419 412 q 229 549 275 507 q 154 648 183 591 q 124 778 124 705 q 164 923 124 862 q 276 1016 205 984 q 439 1048 348 1048 q 582 1031 524 1048 q 672 991 640 1015 l 629 888 q 548 932 600 918 q 448 946 496 946 q 317 915 372 946 q 258 806 262 884 q 272 715 256 753 q 320 647 287 678 q 417 572 353 616 q 524 491 480 530 q 596 399 567 452 q 625 279 625 347 q 578 119 625 184 q 452 22 532 54 q 267 -11 371 -11 q 163 -1 214 -11 q 74 23 112 9 q 20 51 35 37 l 57 159 z "},"ẞ":{"ha":1014,"x_min":69,"x_max":949,"o":"m 140 511 q 224 797 161 677 q 390 979 286 916 q 633 1043 493 1043 q 752 1032 704 1043 q 851 1001 801 1021 q 896 985 879 990 q 929 981 912 981 l 918 909 l 688 602 q 808 570 747 602 q 909 477 869 537 q 949 338 949 416 q 907 162 949 243 q 785 33 865 81 q 595 -16 705 -16 q 439 0 496 -16 q 340 43 382 15 l 412 155 q 486 114 433 132 q 591 96 538 96 q 689 119 640 96 q 771 193 738 142 q 804 321 804 244 q 736 468 804 417 q 512 520 669 519 l 513 562 l 758 898 q 694 924 731 914 q 622 933 656 933 q 475 894 545 933 q 355 778 404 855 q 292 589 306 700 l 210 0 l 69 0 l 140 511 z "},"T":{"ha":761,"x_min":87,"x_max":810,"o":"m 87 931 l 102 1038 l 810 1038 l 796 931 l 511 939 l 393 0 l 258 0 l 377 939 l 87 931 z "},"Ŧ":{"ha":761,"x_min":87,"x_max":810,"o":"m 511 939 l 466 578 l 650 578 l 639 490 l 454 490 l 393 0 l 258 0 l 320 490 l 138 490 l 149 578 l 332 578 l 377 939 l 87 931 l 102 1038 l 810 1038 l 796 931 l 511 939 z "},"Ť":{"ha":761,"x_min":87,"x_max":810,"o":"m 313 1365 l 484 1206 l 696 1365 l 752 1306 l 538 1103 l 419 1103 l 254 1305 l 313 1365 m 87 931 l 102 1038 l 810 1038 l 796 931 l 511 939 l 393 0 l 258 0 l 377 939 l 87 931 z "},"Ţ":{"ha":761,"x_min":87,"x_max":810,"o":"m 810 1038 l 796 931 l 511 939 l 393 0 l 363 0 q 382 -112 382 -42 q 329 -267 382 -219 q 193 -315 277 -315 q 135 -309 165 -315 q 93 -296 104 -304 l 110 -193 q 158 -203 127 -203 q 236 -176 207 -203 q 266 -81 266 -150 l 267 -26 q 266 0 267 -8 l 258 0 l 377 939 l 87 931 l 102 1038 l 810 1038 z "},"Ț":{"ha":761,"x_min":87,"x_max":810,"o":"m 218 -116 l 319 -47 q 374 -95 355 -58 q 392 -183 392 -132 q 373 -278 392 -235 q 325 -347 354 -321 q 269 -380 296 -373 l 214 -346 l 216 -328 q 252 -287 241 -309 q 262 -227 262 -264 q 248 -180 262 -203 q 214 -153 233 -157 l 218 -116 m 87 931 l 102 1038 l 810 1038 l 796 931 l 511 939 l 393 0 l 258 0 l 377 939 l 87 931 z "},"Ṫ":{"ha":761,"x_min":87,"x_max":810,"o":"m 406 1227 q 421 1277 406 1253 q 458 1314 435 1300 q 503 1329 481 1329 q 563 1306 541 1329 q 586 1253 586 1284 q 571 1202 586 1226 q 533 1164 557 1179 q 483 1150 509 1150 q 429 1173 452 1150 q 406 1227 406 1196 m 87 931 l 102 1038 l 810 1038 l 796 931 l 511 939 l 393 0 l 258 0 l 377 939 l 87 931 z "},"U":{"ha":924,"x_min":99,"x_max":897,"o":"m 188 1038 l 322 1038 l 245 426 q 237 306 237 348 q 286 151 237 203 q 427 98 335 98 q 603 178 538 98 q 690 437 667 258 l 766 1038 l 897 1038 l 819 425 q 747 171 799 267 q 611 32 694 75 q 408 -11 527 -11 q 178 70 257 -11 q 99 296 99 151 q 106 381 99 321 l 108 402 l 188 1038 z "},"Ú":{"ha":924,"x_min":99,"x_max":897,"o":"m 709 1356 l 793 1270 q 733 1194 772 1234 q 648 1124 693 1155 q 571 1080 604 1093 l 522 1124 l 709 1356 m 188 1038 l 322 1038 l 245 426 q 237 306 237 348 q 286 151 237 203 q 427 98 335 98 q 603 178 538 98 q 690 437 667 258 l 766 1038 l 897 1038 l 819 425 q 747 171 799 267 q 611 32 694 75 q 408 -11 527 -11 q 178 70 257 -11 q 99 296 99 151 q 106 381 99 321 l 108 402 l 188 1038 z "},"Ŭ":{"ha":924,"x_min":99,"x_max":897,"o":"m 356 1330 q 357 1343 356 1339 l 448 1343 q 451 1322 450 1327 q 468 1264 458 1289 q 501 1222 478 1240 q 564 1204 524 1204 q 630 1224 604 1204 q 669 1268 656 1243 q 694 1326 682 1293 q 699 1343 699 1343 l 789 1343 q 787 1320 789 1332 q 750 1216 779 1265 q 672 1136 721 1166 q 559 1105 623 1105 q 444 1137 490 1105 q 377 1221 398 1170 q 356 1330 356 1272 m 188 1038 l 322 1038 l 245 426 q 237 306 237 348 q 286 151 237 203 q 427 98 335 98 q 603 178 538 98 q 690 437 667 258 l 766 1038 l 897 1038 l 819 425 q 747 171 799 267 q 611 32 694 75 q 408 -11 527 -11 q 178 70 257 -11 q 99 296 99 151 q 106 381 99 321 l 108 402 l 188 1038 z "},"Ǔ":{"ha":924,"x_min":99,"x_max":897,"o":"m 188 1038 l 322 1038 l 245 426 q 237 306 237 348 q 286 151 237 203 q 427 98 335 98 q 603 178 538 98 q 690 437 667 258 l 766 1038 l 897 1038 l 819 425 q 747 171 799 267 q 611 32 694 75 q 408 -11 527 -11 q 178 70 257 -11 q 99 296 99 151 q 106 381 99 321 l 108 402 l 188 1038 m 385 1365 l 556 1206 l 768 1365 l 824 1306 l 610 1103 l 491 1103 l 326 1305 l 385 1365 z "},"Û":{"ha":924,"x_min":99,"x_max":897,"o":"m 188 1038 l 322 1038 l 245 426 q 237 306 237 348 q 286 151 237 203 q 427 98 335 98 q 603 178 538 98 q 690 437 667 258 l 766 1038 l 897 1038 l 819 425 q 747 171 799 267 q 611 32 694 75 q 408 -11 527 -11 q 178 70 257 -11 q 99 296 99 151 q 106 381 99 321 l 108 402 l 188 1038 m 548 1360 l 669 1360 l 798 1127 l 734 1081 l 591 1240 l 378 1075 l 326 1127 l 548 1360 z "},"Ü":{"ha":924,"x_min":99,"x_max":897,"o":"m 338 1227 q 352 1277 338 1253 q 390 1314 367 1300 q 435 1329 412 1329 q 495 1306 472 1329 q 517 1253 517 1284 q 503 1202 517 1226 q 465 1164 488 1179 q 414 1150 441 1150 q 360 1173 383 1150 q 338 1227 338 1196 m 621 1231 q 636 1278 621 1256 q 674 1315 651 1301 q 720 1329 698 1329 q 779 1307 756 1329 q 802 1254 802 1285 q 787 1203 802 1227 q 749 1165 773 1179 q 699 1150 726 1150 q 644 1174 667 1150 q 621 1231 621 1198 m 188 1038 l 322 1038 l 245 426 q 237 306 237 348 q 286 151 237 203 q 427 98 335 98 q 603 178 538 98 q 690 437 667 258 l 766 1038 l 897 1038 l 819 425 q 747 171 799 267 q 611 32 694 75 q 408 -11 527 -11 q 178 70 257 -11 q 99 296 99 151 q 106 381 99 321 l 108 402 l 188 1038 z "},"Ù":{"ha":924,"x_min":99,"x_max":897,"o":"m 431 1356 l 618 1124 l 568 1080 q 491 1124 536 1093 q 407 1194 446 1155 q 347 1270 367 1234 l 431 1356 m 188 1038 l 322 1038 l 245 426 q 237 306 237 348 q 286 151 237 203 q 427 98 335 98 q 603 178 538 98 q 690 437 667 258 l 766 1038 l 897 1038 l 819 425 q 747 171 799 267 q 611 32 694 75 q 408 -11 527 -11 q 178 70 257 -11 q 99 296 99 151 q 106 381 99 321 l 108 402 l 188 1038 z "},"Ű":{"ha":924,"x_min":99,"x_max":948,"o":"m 188 1038 l 322 1038 l 245 426 q 237 306 237 348 q 286 151 237 203 q 427 98 335 98 q 603 178 538 98 q 690 437 667 258 l 766 1038 l 897 1038 l 819 425 q 747 171 799 267 q 611 32 694 75 q 408 -11 527 -11 q 178 70 257 -11 q 99 296 99 151 q 106 381 99 321 l 108 402 l 188 1038 m 575 1356 l 665 1276 q 604 1194 649 1240 q 508 1109 559 1147 q 427 1058 457 1072 l 363 1102 l 575 1356 m 857 1356 l 948 1276 q 883 1192 929 1238 q 783 1108 836 1146 q 695 1058 730 1071 l 645 1102 l 857 1356 z "},"Ū":{"ha":924,"x_min":99,"x_max":897,"o":"m 716 1274 l 713 1173 l 368 1173 l 370 1274 l 716 1274 m 188 1038 l 322 1038 l 245 426 q 237 306 237 348 q 286 151 237 203 q 427 98 335 98 q 603 178 538 98 q 690 437 667 258 l 766 1038 l 897 1038 l 819 425 q 747 171 799 267 q 611 32 694 75 q 408 -11 527 -11 q 178 70 257 -11 q 99 296 99 151 q 106 381 99 321 l 108 402 l 188 1038 z "},"Ų":{"ha":924,"x_min":99,"x_max":897,"o":"m 897 1038 l 819 425 q 735 152 797 251 q 571 15 673 52 q 444 -150 444 -112 q 457 -185 444 -175 q 487 -195 471 -195 q 529 -189 509 -195 q 575 -164 549 -182 l 610 -231 q 538 -276 581 -256 q 444 -295 496 -295 q 371 -279 400 -295 q 327 -238 341 -262 q 313 -191 313 -214 q 358 -93 313 -138 q 465 -8 403 -47 q 408 -11 441 -11 q 178 70 257 -11 q 99 296 99 151 q 106 381 99 321 l 108 402 l 188 1038 l 322 1038 l 245 426 q 237 306 237 348 q 286 151 237 203 q 427 98 335 98 q 603 178 538 98 q 690 437 667 258 l 766 1038 l 897 1038 z "},"Ů":{"ha":924,"x_min":99,"x_max":897,"o":"m 188 1038 l 322 1038 l 245 426 q 237 306 237 348 q 286 151 237 203 q 427 98 335 98 q 603 178 538 98 q 690 437 667 258 l 766 1038 l 897 1038 l 819 425 q 747 171 799 267 q 611 32 694 75 q 408 -11 527 -11 q 178 70 257 -11 q 99 296 99 151 q 106 381 99 321 l 108 402 l 188 1038 m 349 1238 q 383 1339 349 1297 q 472 1403 418 1381 q 584 1424 526 1424 q 721 1376 670 1424 q 771 1244 771 1329 q 740 1144 771 1185 q 657 1083 709 1103 q 543 1063 606 1063 q 399 1108 450 1063 q 349 1238 349 1154 m 675 1256 q 647 1324 675 1297 q 573 1351 618 1351 q 481 1324 519 1351 q 443 1234 443 1297 q 456 1184 443 1206 q 494 1148 470 1161 q 547 1135 517 1135 q 641 1161 606 1135 q 675 1256 675 1187 z "},"Ũ":{"ha":924,"x_min":99,"x_max":897,"o":"m 305 1221 q 351 1277 319 1250 q 420 1320 382 1303 q 493 1336 458 1336 q 557 1321 532 1336 q 612 1280 583 1307 q 648 1251 633 1260 q 681 1241 663 1241 q 727 1256 709 1241 q 766 1300 745 1271 l 779 1316 l 836 1255 q 797 1193 825 1221 q 730 1148 768 1164 q 654 1131 692 1131 q 605 1139 626 1131 q 569 1157 583 1146 q 535 1185 554 1168 q 496 1216 513 1206 q 456 1226 479 1226 q 415 1214 431 1226 q 376 1178 399 1202 l 364 1164 l 305 1221 m 188 1038 l 322 1038 l 245 426 q 237 306 237 348 q 286 151 237 203 q 427 98 335 98 q 603 178 538 98 q 690 437 667 258 l 766 1038 l 897 1038 l 819 425 q 747 171 799 267 q 611 32 694 75 q 408 -11 527 -11 q 178 70 257 -11 q 99 296 99 151 q 106 381 99 321 l 108 402 l 188 1038 z "},"V":{"ha":793,"x_min":87,"x_max":872,"o":"m 221 1038 l 332 291 l 349 140 l 407 291 l 730 1038 l 872 1038 l 399 0 l 258 0 l 87 1038 l 221 1038 z "},"W":{"ha":1202,"x_min":85,"x_max":1280,"o":"m 1280 1038 l 854 -7 l 717 -7 l 652 576 l 643 694 l 605 576 l 381 -7 l 243 -7 l 85 1038 l 220 1038 l 315 296 l 336 149 l 378 295 l 610 890 l 594 1038 l 723 1038 l 802 296 l 812 149 l 862 295 l 1145 1038 l 1280 1038 z "},"Ẃ":{"ha":1202,"x_min":85,"x_max":1280,"o":"m 865 1356 l 949 1270 q 889 1194 929 1234 q 805 1124 850 1155 q 728 1080 760 1093 l 678 1124 l 865 1356 m 1280 1038 l 854 -7 l 717 -7 l 652 576 l 643 694 l 605 576 l 381 -7 l 243 -7 l 85 1038 l 220 1038 l 315 296 l 336 149 l 378 295 l 610 890 l 594 1038 l 723 1038 l 802 296 l 812 149 l 862 295 l 1145 1038 l 1280 1038 z "},"Ŵ":{"ha":1202,"x_min":85,"x_max":1280,"o":"m 1280 1038 l 854 -7 l 717 -7 l 652 576 l 643 694 l 605 576 l 381 -7 l 243 -7 l 85 1038 l 220 1038 l 315 296 l 336 149 l 378 295 l 610 890 l 594 1038 l 723 1038 l 802 296 l 812 149 l 862 295 l 1145 1038 l 1280 1038 m 705 1360 l 825 1360 l 954 1127 l 890 1081 l 747 1240 l 535 1075 l 483 1127 l 705 1360 z "},"Ẅ":{"ha":1202,"x_min":85,"x_max":1280,"o":"m 494 1227 q 509 1277 494 1253 q 546 1314 524 1300 q 591 1329 569 1329 q 651 1306 629 1329 q 674 1253 674 1284 q 660 1202 674 1226 q 621 1164 645 1179 q 571 1150 597 1150 q 517 1173 540 1150 q 494 1227 494 1196 m 777 1231 q 792 1278 777 1256 q 831 1315 808 1301 q 876 1329 854 1329 q 936 1307 913 1329 q 958 1254 958 1285 q 944 1203 958 1227 q 906 1165 930 1179 q 855 1150 882 1150 q 800 1174 823 1150 q 777 1231 777 1198 m 1280 1038 l 854 -7 l 717 -7 l 652 576 l 643 694 l 605 576 l 381 -7 l 243 -7 l 85 1038 l 220 1038 l 315 296 l 336 149 l 378 295 l 610 890 l 594 1038 l 723 1038 l 802 296 l 812 149 l 862 295 l 1145 1038 l 1280 1038 z "},"Ẁ":{"ha":1202,"x_min":85,"x_max":1280,"o":"m 587 1356 l 774 1124 l 725 1080 q 648 1124 692 1093 q 563 1194 603 1155 q 503 1270 524 1234 l 587 1356 m 1280 1038 l 854 -7 l 717 -7 l 652 576 l 643 694 l 605 576 l 381 -7 l 243 -7 l 85 1038 l 220 1038 l 315 296 l 336 149 l 378 295 l 610 890 l 594 1038 l 723 1038 l 802 296 l 812 149 l 862 295 l 1145 1038 l 1280 1038 z "},"X":{"ha":785,"x_min":-40,"x_max":842,"o":"m 123 1038 l 271 1038 l 426 632 l 690 1038 l 842 1038 l 477 511 l 713 0 l 558 0 l 390 420 l 123 0 l -40 0 l 338 538 l 123 1038 z "},"Y":{"ha":734,"x_min":56,"x_max":839,"o":"m 56 1038 l 200 1038 l 368 568 l 390 517 l 416 568 l 695 1038 l 839 1038 l 437 400 l 385 0 l 258 0 l 309 400 l 56 1038 z "},"Ý":{"ha":734,"x_min":56,"x_max":839,"o":"m 56 1038 l 200 1038 l 368 568 l 390 517 l 416 568 l 695 1038 l 839 1038 l 437 400 l 385 0 l 258 0 l 309 400 l 56 1038 m 621 1356 l 705 1270 q 645 1194 684 1234 q 560 1124 605 1155 q 483 1080 515 1093 l 433 1124 l 621 1356 z "},"Ŷ":{"ha":734,"x_min":56,"x_max":839,"o":"m 56 1038 l 200 1038 l 368 568 l 390 517 l 416 568 l 695 1038 l 839 1038 l 437 400 l 385 0 l 258 0 l 309 400 l 56 1038 m 460 1360 l 581 1360 l 709 1127 l 646 1081 l 503 1240 l 290 1075 l 238 1127 l 460 1360 z "},"Ÿ":{"ha":734,"x_min":56,"x_max":839,"o":"m 56 1038 l 200 1038 l 368 568 l 390 517 l 416 568 l 695 1038 l 839 1038 l 437 400 l 385 0 l 258 0 l 309 400 l 56 1038 m 250 1227 q 264 1277 250 1253 q 301 1314 279 1300 q 347 1329 324 1329 q 407 1306 384 1329 q 429 1253 429 1284 q 415 1202 429 1226 q 376 1164 400 1179 q 326 1150 353 1150 q 272 1173 295 1150 q 250 1227 250 1196 m 532 1231 q 548 1278 532 1256 q 586 1315 563 1301 q 631 1329 610 1329 q 691 1307 668 1329 q 713 1254 713 1285 q 699 1203 713 1227 q 661 1165 685 1179 q 610 1150 637 1150 q 555 1174 578 1150 q 532 1231 532 1198 z "},"Ẏ":{"ha":734,"x_min":56,"x_max":839,"o":"m 56 1038 l 200 1038 l 368 568 l 390 517 l 416 568 l 695 1038 l 839 1038 l 437 400 l 385 0 l 258 0 l 309 400 l 56 1038 m 390 1227 q 405 1277 390 1253 q 442 1314 419 1300 q 487 1329 465 1329 q 547 1306 524 1329 q 570 1253 570 1284 q 555 1202 570 1226 q 517 1164 541 1179 q 467 1150 493 1150 q 413 1173 435 1150 q 390 1227 390 1196 z "},"Ỳ":{"ha":734,"x_min":56,"x_max":839,"o":"m 56 1038 l 200 1038 l 368 568 l 390 517 l 416 568 l 695 1038 l 839 1038 l 437 400 l 385 0 l 258 0 l 309 400 l 56 1038 m 342 1356 l 530 1124 l 480 1080 q 403 1124 448 1093 q 318 1194 358 1155 q 258 1270 279 1234 l 342 1356 z "},"Z":{"ha":785,"x_min":10,"x_max":802,"o":"m 538 825 l 629 933 l 161 924 l 176 1038 l 785 1038 l 802 979 l 273 205 l 189 107 l 699 115 l 680 0 l 28 0 l 10 60 l 538 825 z "},"Ź":{"ha":785,"x_min":10,"x_max":802,"o":"m 538 825 l 629 933 l 161 924 l 176 1038 l 785 1038 l 802 979 l 273 205 l 189 107 l 699 115 l 680 0 l 28 0 l 10 60 l 538 825 m 665 1356 l 749 1270 q 689 1194 729 1234 q 605 1124 650 1155 q 528 1080 560 1093 l 478 1124 l 665 1356 z "},"Ž":{"ha":785,"x_min":10,"x_max":802,"o":"m 342 1365 l 513 1206 l 725 1365 l 781 1306 l 567 1103 l 448 1103 l 283 1305 l 342 1365 m 538 825 l 629 933 l 161 924 l 176 1038 l 785 1038 l 802 979 l 273 205 l 189 107 l 699 115 l 680 0 l 28 0 l 10 60 l 538 825 z "},"Ż":{"ha":785,"x_min":10,"x_max":802,"o":"m 435 1227 q 449 1277 435 1253 q 487 1314 464 1300 q 532 1329 509 1329 q 592 1306 569 1329 q 614 1253 614 1284 q 600 1202 614 1226 q 562 1164 585 1179 q 511 1150 538 1150 q 457 1173 480 1150 q 435 1227 435 1196 m 538 825 l 629 933 l 161 924 l 176 1038 l 785 1038 l 802 979 l 273 205 l 189 107 l 699 115 l 680 0 l 28 0 l 10 60 l 538 825 z "},"a":{"ha":777,"x_min":55,"x_max":718,"o":"m 718 784 l 612 0 l 495 0 l 506 129 q 401 30 463 70 q 265 -11 338 -11 q 108 67 161 -11 q 55 282 55 145 q 102 513 55 397 q 247 707 149 629 q 488 784 345 784 q 564 778 522 784 q 641 761 606 771 l 718 784 m 289 92 q 413 143 353 92 q 513 260 472 193 l 572 670 q 467 687 521 687 q 314 626 376 687 q 222 476 252 566 q 192 298 192 386 q 217 142 192 193 q 289 92 242 92 z "},"á":{"ha":777,"x_min":55,"x_max":730,"o":"m 718 784 l 612 0 l 495 0 l 506 129 q 401 30 463 70 q 265 -11 338 -11 q 108 67 161 -11 q 55 282 55 145 q 102 513 55 397 q 247 707 149 629 q 488 784 345 784 q 564 778 522 784 q 641 761 606 771 l 718 784 m 289 92 q 413 143 353 92 q 513 260 472 193 l 572 670 q 467 687 521 687 q 314 626 376 687 q 222 476 252 566 q 192 298 192 386 q 217 142 192 193 q 289 92 242 92 m 627 1178 l 730 1085 q 670 1012 717 1061 q 567 917 623 962 q 475 858 512 872 l 418 906 l 627 1178 z "},"ă":{"ha":777,"x_min":55,"x_max":718,"o":"m 718 784 l 612 0 l 495 0 l 506 129 q 401 30 463 70 q 265 -11 338 -11 q 108 67 161 -11 q 55 282 55 145 q 102 513 55 397 q 247 707 149 629 q 488 784 345 784 q 564 778 522 784 q 641 761 606 771 l 718 784 m 289 92 q 413 143 353 92 q 513 260 472 193 l 572 670 q 467 687 521 687 q 314 626 376 687 q 222 476 252 566 q 192 298 192 386 q 217 142 192 193 q 289 92 242 92 m 278 1109 q 279 1122 278 1118 l 370 1122 q 373 1101 372 1107 q 390 1044 380 1068 q 423 1002 400 1020 q 486 984 446 984 q 552 1003 526 984 q 591 1047 578 1023 q 616 1106 604 1072 q 621 1122 621 1122 l 711 1122 q 709 1100 711 1112 q 672 996 701 1045 q 594 915 643 946 q 481 884 545 884 q 366 917 412 884 q 299 1001 320 949 q 278 1109 278 1052 z "},"ǎ":{"ha":777,"x_min":55,"x_max":769,"o":"m 718 784 l 612 0 l 495 0 l 506 129 q 401 30 463 70 q 265 -11 338 -11 q 108 67 161 -11 q 55 282 55 145 q 102 513 55 397 q 247 707 149 629 q 488 784 345 784 q 564 778 522 784 q 641 761 606 771 l 718 784 m 289 92 q 413 143 353 92 q 513 260 472 193 l 572 670 q 467 687 521 687 q 314 626 376 687 q 222 476 252 566 q 192 298 192 386 q 217 142 192 193 q 289 92 242 92 m 330 1142 l 501 977 l 713 1142 l 769 1083 l 555 874 l 436 874 l 271 1082 l 330 1142 z "},"â":{"ha":777,"x_min":55,"x_max":730,"o":"m 718 784 l 612 0 l 495 0 l 506 129 q 401 30 463 70 q 265 -11 338 -11 q 108 67 161 -11 q 55 282 55 145 q 102 513 55 397 q 247 707 149 629 q 488 784 345 784 q 564 778 522 784 q 641 761 606 771 l 718 784 m 289 92 q 413 143 353 92 q 513 260 472 193 l 572 670 q 467 687 521 687 q 314 626 376 687 q 222 476 252 566 q 192 298 192 386 q 217 142 192 193 q 289 92 242 92 m 481 1149 l 602 1149 l 730 895 l 667 849 l 524 1028 l 311 843 l 259 895 l 481 1149 z "},"ä":{"ha":777,"x_min":55,"x_max":728,"o":"m 718 784 l 612 0 l 495 0 l 506 129 q 401 30 463 70 q 265 -11 338 -11 q 108 67 161 -11 q 55 282 55 145 q 102 513 55 397 q 247 707 149 629 q 488 784 345 784 q 564 778 522 784 q 641 761 606 771 l 718 784 m 289 92 q 413 143 353 92 q 513 260 472 193 l 572 670 q 467 687 521 687 q 314 626 376 687 q 222 476 252 566 q 192 298 192 386 q 217 142 192 193 q 289 92 242 92 m 262 1022 q 276 1071 262 1048 q 313 1108 290 1095 q 361 1122 336 1122 q 420 1101 397 1122 q 444 1048 444 1079 q 429 997 444 1021 q 391 959 415 973 q 340 944 368 944 q 286 967 309 944 q 262 1022 262 990 m 547 1022 q 561 1071 547 1048 q 598 1108 575 1095 q 646 1122 621 1122 q 705 1101 682 1122 q 728 1048 728 1079 q 714 997 728 1021 q 676 959 700 973 q 625 944 652 944 q 570 967 593 944 q 547 1022 547 990 z "},"à":{"ha":777,"x_min":55,"x_max":718,"o":"m 718 784 l 612 0 l 495 0 l 506 129 q 401 30 463 70 q 265 -11 338 -11 q 108 67 161 -11 q 55 282 55 145 q 102 513 55 397 q 247 707 149 629 q 488 784 345 784 q 564 778 522 784 q 641 761 606 771 l 718 784 m 289 92 q 413 143 353 92 q 513 260 472 193 l 572 670 q 467 687 521 687 q 314 626 376 687 q 222 476 252 566 q 192 298 192 386 q 217 142 192 193 q 289 92 242 92 m 334 1178 l 529 905 l 471 858 q 394 910 444 869 q 297 1000 344 951 q 230 1085 251 1049 l 334 1178 z "},"ā":{"ha":777,"x_min":55,"x_max":718,"o":"m 718 784 l 612 0 l 495 0 l 506 129 q 401 30 463 70 q 265 -11 338 -11 q 108 67 161 -11 q 55 282 55 145 q 102 513 55 397 q 247 707 149 629 q 488 784 345 784 q 564 778 522 784 q 641 761 606 771 l 718 784 m 289 92 q 413 143 353 92 q 513 260 472 193 l 572 670 q 467 687 521 687 q 314 626 376 687 q 222 476 252 566 q 192 298 192 386 q 217 142 192 193 q 289 92 242 92 m 669 1050 l 665 949 l 320 949 l 323 1050 l 669 1050 z "},"ą":{"ha":796,"x_min":66,"x_max":728,"o":"m 514 -195 q 556 -189 536 -195 q 602 -164 576 -182 l 637 -231 q 565 -276 608 -256 q 471 -295 523 -295 q 398 -279 427 -295 q 354 -238 368 -262 q 340 -191 340 -214 q 368 -111 340 -148 q 428 -51 395 -75 q 506 0 460 -28 l 517 129 q 412 30 474 70 q 276 -11 349 -11 q 119 67 172 -11 q 66 282 66 145 q 113 513 66 397 q 257 707 159 629 q 498 784 355 784 q 574 778 532 784 q 652 761 616 771 l 728 784 l 623 0 l 612 0 q 510 -81 549 -45 q 471 -150 471 -117 q 485 -185 471 -175 q 514 -195 498 -195 m 300 92 q 424 143 364 92 q 524 260 483 193 l 583 670 q 477 687 532 687 q 325 626 387 687 q 233 476 262 566 q 203 298 203 386 q 228 142 203 193 q 300 92 253 92 z "},"å":{"ha":777,"x_min":55,"x_max":722,"o":"m 718 784 l 612 0 l 495 0 l 506 129 q 401 30 463 70 q 265 -11 338 -11 q 108 67 161 -11 q 55 282 55 145 q 102 513 55 397 q 247 707 149 629 q 488 784 345 784 q 564 778 522 784 q 641 761 606 771 l 718 784 m 289 92 q 413 143 353 92 q 513 260 472 193 l 572 670 q 467 687 521 687 q 314 626 376 687 q 222 476 252 566 q 192 298 192 386 q 217 142 192 193 q 289 92 242 92 m 300 1027 q 334 1129 300 1087 q 423 1193 369 1171 q 535 1214 477 1214 q 672 1166 621 1214 q 722 1034 722 1118 q 691 934 722 975 q 609 873 661 893 q 494 852 557 852 q 351 898 401 852 q 300 1027 300 944 m 626 1046 q 598 1114 626 1087 q 524 1141 570 1141 q 432 1114 470 1141 q 394 1023 394 1086 q 408 974 394 996 q 445 938 421 951 q 498 924 469 924 q 592 950 557 924 q 626 1046 626 977 z "},"ã":{"ha":777,"x_min":55,"x_max":750,"o":"m 718 784 l 612 0 l 495 0 l 506 129 q 401 30 463 70 q 265 -11 338 -11 q 108 67 161 -11 q 55 282 55 145 q 102 513 55 397 q 247 707 149 629 q 488 784 345 784 q 564 778 522 784 q 641 761 606 771 l 718 784 m 289 92 q 413 143 353 92 q 513 260 472 193 l 572 670 q 467 687 521 687 q 314 626 376 687 q 222 476 252 566 q 192 298 192 386 q 217 142 192 193 q 289 92 242 92 m 219 1007 q 264 1062 233 1036 q 334 1105 296 1089 q 407 1122 372 1122 q 471 1107 446 1122 q 526 1065 497 1093 q 562 1036 547 1046 q 595 1027 576 1027 q 641 1042 623 1027 q 680 1086 659 1057 l 692 1101 l 750 1041 q 710 979 739 1007 q 644 933 682 950 q 568 917 606 917 q 518 924 540 917 q 483 943 497 932 q 449 971 468 954 q 410 1002 427 991 q 370 1012 393 1012 q 329 1000 345 1012 q 290 964 313 988 l 278 950 l 219 1007 z "},"æ":{"ha":1107,"x_min":55,"x_max":1060,"o":"m 746 94 q 856 121 798 94 q 971 201 914 148 l 1008 126 q 945 64 987 96 q 848 11 904 33 q 730 -11 791 -11 q 567 40 630 -11 q 479 174 504 90 q 382 41 439 94 q 252 -11 326 -11 q 55 282 55 -11 q 102 513 55 397 q 247 707 149 629 q 488 784 345 784 q 549 781 524 784 q 608 767 575 779 q 682 732 642 756 q 869 784 768 784 q 975 762 932 784 q 1039 702 1018 740 q 1060 614 1060 663 q 984 439 1060 510 q 802 331 907 368 q 604 288 696 294 l 603 270 q 635 145 603 197 q 746 94 667 94 m 464 294 q 499 493 467 400 q 590 653 532 586 q 467 687 528 687 q 314 626 376 687 q 222 476 252 566 q 192 298 192 386 q 214 141 192 191 q 282 92 237 92 q 464 279 370 92 l 464 294 m 927 603 q 904 665 927 646 q 840 684 881 684 q 725 636 776 684 q 645 518 675 588 q 607 382 614 448 q 743 414 667 385 q 873 492 819 442 q 927 603 927 541 z "},"ǽ":{"ha":1107,"x_min":55,"x_max":1060,"o":"m 765 1175 l 868 1082 q 808 1009 855 1059 q 706 915 761 960 q 613 855 650 869 l 557 903 l 765 1175 m 746 94 q 856 121 798 94 q 971 201 914 148 l 1008 126 q 945 64 987 96 q 848 11 904 33 q 730 -11 791 -11 q 567 40 630 -11 q 479 174 504 90 q 382 41 439 94 q 252 -11 326 -11 q 55 282 55 -11 q 102 513 55 397 q 247 707 149 629 q 488 784 345 784 q 549 781 524 784 q 608 767 575 779 q 682 732 642 756 q 869 784 768 784 q 975 762 932 784 q 1039 702 1018 740 q 1060 614 1060 663 q 984 439 1060 510 q 802 331 907 368 q 604 288 696 294 l 603 270 q 635 145 603 197 q 746 94 667 94 m 464 294 q 499 493 467 400 q 590 653 532 586 q 467 687 528 687 q 314 626 376 687 q 222 476 252 566 q 192 298 192 386 q 214 141 192 191 q 282 92 237 92 q 464 279 370 92 l 464 294 m 927 603 q 904 665 927 646 q 840 684 881 684 q 725 636 776 684 q 645 518 675 588 q 607 382 614 448 q 743 414 667 385 q 873 492 819 442 q 927 603 927 541 z "},"b":{"ha":789,"x_min":56,"x_max":726,"o":"m 515 784 q 673 706 620 784 q 726 491 726 628 q 677 260 726 376 q 529 66 629 144 q 286 -11 430 -11 q 210 -4 252 -11 q 134 12 168 3 l 56 -11 l 205 1111 l 330 1111 l 293 778 l 269 647 q 377 744 313 705 q 515 784 441 784 m 307 86 q 462 147 398 86 q 557 298 526 208 q 589 475 589 388 q 564 631 589 581 q 492 681 538 681 q 363 630 426 681 q 258 515 300 580 l 203 102 q 307 86 251 86 z "},"ḃ":{"ha":789,"x_min":56,"x_max":726,"o":"m 515 784 q 673 706 620 784 q 726 491 726 628 q 677 260 726 376 q 529 66 629 144 q 286 -11 430 -11 q 210 -4 252 -11 q 134 12 168 3 l 56 -11 l 205 1111 l 330 1111 l 293 778 l 269 647 q 377 744 313 705 q 515 784 441 784 m 307 86 q 462 147 398 86 q 557 298 526 208 q 589 475 589 388 q 564 631 589 581 q 492 681 538 681 q 363 630 426 681 q 258 515 300 580 l 203 102 q 307 86 251 86 m 475 1022 q 489 1071 475 1048 q 525 1108 503 1095 q 573 1122 548 1122 q 633 1101 610 1122 q 656 1048 656 1079 q 642 997 656 1021 q 604 959 627 973 q 553 944 580 944 q 498 967 521 944 q 475 1022 475 990 z "},"c":{"ha":614,"x_min":58,"x_max":600,"o":"m 451 784 q 533 778 493 784 q 600 758 574 772 l 566 645 q 509 675 541 666 q 439 684 478 684 q 324 635 381 684 q 230 499 267 586 q 193 308 193 413 q 228 140 193 191 q 334 90 262 90 q 419 112 378 90 q 512 184 460 134 l 556 113 q 501 57 536 85 q 417 9 466 28 q 313 -11 369 -11 q 123 69 189 -11 q 58 294 58 149 q 103 520 58 407 q 239 709 149 634 q 451 784 328 784 z "},"ć":{"ha":614,"x_min":58,"x_max":692,"o":"m 589 1175 l 692 1082 q 632 1009 679 1059 q 529 915 585 960 q 437 855 474 869 l 380 903 l 589 1175 m 451 784 q 533 778 493 784 q 600 758 574 772 l 566 645 q 509 675 541 666 q 439 684 478 684 q 324 635 381 684 q 230 499 267 586 q 193 308 193 413 q 228 140 193 191 q 334 90 262 90 q 419 112 378 90 q 512 184 460 134 l 556 113 q 501 57 536 85 q 417 9 466 28 q 313 -11 369 -11 q 123 69 189 -11 q 58 294 58 149 q 103 520 58 407 q 239 709 149 634 q 451 784 328 784 z "},"č":{"ha":614,"x_min":58,"x_max":731,"o":"m 292 1139 l 463 974 l 675 1139 l 731 1080 l 517 871 l 398 871 l 233 1080 l 292 1139 m 451 784 q 533 778 493 784 q 600 758 574 772 l 566 645 q 509 675 541 666 q 439 684 478 684 q 324 635 381 684 q 230 499 267 586 q 193 308 193 413 q 228 140 193 191 q 334 90 262 90 q 419 112 378 90 q 512 184 460 134 l 556 113 q 501 57 536 85 q 417 9 466 28 q 313 -11 369 -11 q 123 69 189 -11 q 58 294 58 149 q 103 520 58 407 q 239 709 149 634 q 451 784 328 784 z "},"ç":{"ha":614,"x_min":58,"x_max":600,"o":"m 439 684 q 324 635 381 684 q 230 499 267 586 q 193 308 193 413 q 228 140 193 191 q 334 90 262 90 q 419 112 378 90 q 512 184 460 134 l 556 113 q 477 40 528 75 q 363 -6 427 5 q 378 -109 378 -47 q 326 -264 378 -216 q 190 -312 273 -312 q 131 -307 162 -312 q 90 -293 100 -301 l 106 -191 q 155 -200 124 -200 q 233 -174 203 -200 q 262 -78 262 -147 l 262 -31 l 262 -7 q 110 87 163 9 q 58 294 58 165 q 103 520 58 407 q 239 709 149 634 q 451 784 328 784 q 533 778 493 784 q 600 758 574 772 l 566 645 q 509 675 541 666 q 439 684 478 684 z "},"ĉ":{"ha":614,"x_min":58,"x_max":692,"o":"m 443 1146 l 564 1146 l 692 892 l 629 846 l 486 1025 l 273 840 l 221 892 l 443 1146 m 451 784 q 533 778 493 784 q 600 758 574 772 l 566 645 q 509 675 541 666 q 439 684 478 684 q 324 635 381 684 q 230 499 267 586 q 193 308 193 413 q 228 140 193 191 q 334 90 262 90 q 419 112 378 90 q 512 184 460 134 l 556 113 q 501 57 536 85 q 417 9 466 28 q 313 -11 369 -11 q 123 69 189 -11 q 58 294 58 149 q 103 520 58 407 q 239 709 149 634 q 451 784 328 784 z "},"ċ":{"ha":614,"x_min":58,"x_max":600,"o":"m 451 784 q 533 778 493 784 q 600 758 574 772 l 566 645 q 509 675 541 666 q 439 684 478 684 q 324 635 381 684 q 230 499 267 586 q 193 308 193 413 q 228 140 193 191 q 334 90 262 90 q 419 112 378 90 q 512 184 460 134 l 556 113 q 501 57 536 85 q 417 9 466 28 q 313 -11 369 -11 q 123 69 189 -11 q 58 294 58 149 q 103 520 58 407 q 239 709 149 634 q 451 784 328 784 m 370 1022 q 384 1071 370 1048 q 421 1108 398 1095 q 469 1122 444 1122 q 528 1101 505 1122 q 551 1048 551 1079 q 537 997 551 1021 q 499 959 523 973 q 448 944 475 944 q 393 967 416 944 q 370 1022 370 990 z "},"d":{"ha":787,"x_min":54,"x_max":768,"o":"m 768 1111 l 618 0 l 500 0 l 511 132 q 402 30 467 71 q 264 -11 338 -11 q 106 67 159 -11 q 54 282 54 145 q 102 513 54 397 q 250 707 151 629 q 493 784 349 784 q 590 774 536 784 l 636 1111 l 768 1111 m 288 92 q 416 145 353 92 q 521 264 478 197 l 576 670 q 472 687 530 687 q 317 626 381 687 q 222 475 254 566 q 191 298 191 385 q 216 142 191 193 q 288 92 241 92 z "},"ð":{"ha":802,"x_min":60,"x_max":738,"o":"m 535 1057 q 689 843 640 957 q 738 589 738 729 q 691 287 738 423 q 553 70 644 150 q 336 -11 463 -11 q 185 35 247 -11 q 92 154 123 81 q 60 302 60 226 q 114 559 60 450 q 255 726 168 668 q 439 784 342 784 q 541 765 492 784 q 613 707 589 746 q 566 860 598 798 q 468 981 533 922 l 366 867 l 294 926 l 401 1037 q 237 1127 304 1111 l 267 1208 q 360 1170 304 1198 q 465 1111 416 1143 q 525 1180 492 1140 q 569 1232 559 1219 l 635 1171 l 535 1057 m 605 528 q 586 592 605 554 q 529 659 567 630 q 435 688 490 688 q 306 630 358 688 q 229 482 254 572 q 203 294 203 392 q 221 190 203 239 q 273 112 239 142 q 355 83 308 83 q 459 126 410 83 q 541 243 507 170 q 588 406 574 317 l 593 435 q 605 528 605 509 z "},"ď":{"ha":969,"x_min":54,"x_max":981,"o":"m 768 1111 l 618 0 l 500 0 l 511 132 q 402 30 467 71 q 264 -11 338 -11 q 106 67 159 -11 q 54 282 54 145 q 102 513 54 397 q 250 707 151 629 q 493 784 349 784 q 590 774 536 784 l 636 1111 l 768 1111 m 288 92 q 416 145 353 92 q 521 264 478 197 l 576 670 q 472 687 530 687 q 317 626 381 687 q 222 475 254 566 q 191 298 191 385 q 216 142 191 193 q 288 92 241 92 m 829 726 q 857 937 857 843 q 851 1014 857 977 q 836 1066 846 1051 l 842 1088 l 962 1119 q 978 1055 974 1092 q 981 963 981 1019 q 959 815 981 895 q 901 682 937 736 l 833 709 l 829 726 z "},"đ":{"ha":787,"x_min":54,"x_max":831,"o":"m 821 856 l 734 856 l 618 0 l 500 0 l 511 132 q 402 30 467 71 q 264 -11 338 -11 q 106 67 159 -11 q 54 282 54 145 q 102 513 54 397 q 250 707 151 629 q 493 784 349 784 q 590 774 536 784 l 602 856 l 426 856 l 437 944 l 614 944 l 636 1111 l 768 1111 l 746 944 l 831 944 l 821 856 m 288 92 q 416 145 353 92 q 521 264 478 197 l 576 670 q 472 687 530 687 q 317 626 381 687 q 222 475 254 566 q 191 298 191 385 q 216 142 191 193 q 288 92 241 92 z "},"ḋ":{"ha":787,"x_min":54,"x_max":768,"o":"m 768 1111 l 618 0 l 500 0 l 511 132 q 402 30 467 71 q 264 -11 338 -11 q 106 67 159 -11 q 54 282 54 145 q 102 513 54 397 q 250 707 151 629 q 493 784 349 784 q 590 774 536 784 l 636 1111 l 768 1111 m 288 92 q 416 145 353 92 q 521 264 478 197 l 576 670 q 472 687 530 687 q 317 626 381 687 q 222 475 254 566 q 191 298 191 385 q 216 142 191 193 q 288 92 241 92 m 233 1022 q 247 1071 233 1048 q 284 1108 261 1095 q 332 1122 307 1122 q 391 1101 368 1122 q 414 1048 414 1079 q 400 997 414 1021 q 362 959 386 973 q 311 944 338 944 q 256 967 279 944 q 233 1022 233 990 z "},"ǳ":{"ha":1442,"x_min":54,"x_max":1442,"o":"m 768 1111 l 618 0 l 500 0 l 511 132 q 402 30 467 71 q 264 -11 338 -11 q 106 67 159 -11 q 54 282 54 145 q 102 513 54 397 q 250 707 151 629 q 493 784 349 784 q 590 774 536 784 l 636 1111 l 768 1111 m 288 92 q 416 145 353 92 q 521 264 478 197 l 576 670 q 472 687 530 687 q 317 626 381 687 q 222 475 254 566 q 191 298 191 385 q 216 142 191 193 q 288 92 241 92 m 940 106 l 1345 106 l 1335 0 l 808 0 l 768 40 l 1161 553 l 1270 667 l 904 667 l 919 773 l 1409 773 l 1442 738 l 1037 208 l 940 106 z "},"ǆ":{"ha":1442,"x_min":54,"x_max":1476,"o":"m 768 1111 l 618 0 l 500 0 l 511 132 q 402 30 467 71 q 264 -11 338 -11 q 106 67 159 -11 q 54 282 54 145 q 102 513 54 397 q 250 707 151 629 q 493 784 349 784 q 590 774 536 784 l 636 1111 l 768 1111 m 288 92 q 416 145 353 92 q 521 264 478 197 l 576 670 q 472 687 530 687 q 317 626 381 687 q 222 475 254 566 q 191 298 191 385 q 216 142 191 193 q 288 92 241 92 m 940 106 l 1345 106 l 1335 0 l 808 0 l 768 40 l 1161 553 l 1270 667 l 904 667 l 919 773 l 1409 773 l 1442 738 l 1037 208 l 940 106 m 1037 1142 l 1208 977 l 1420 1142 l 1476 1083 l 1262 874 l 1143 874 l 978 1082 l 1037 1142 z "},"e":{"ha":702,"x_min":56,"x_max":654,"o":"m 464 784 q 570 762 527 784 q 633 702 612 740 q 654 614 654 663 q 578 439 654 510 q 396 331 502 368 q 198 288 290 294 l 197 270 q 230 145 197 197 q 340 94 262 94 q 451 121 393 94 q 566 201 509 148 l 603 126 q 540 64 581 96 q 442 11 498 33 q 325 -11 386 -11 q 173 32 233 -11 q 84 144 112 75 q 58 294 56 213 q 114 542 62 430 q 257 719 165 654 q 464 784 348 784 m 522 603 q 498 665 522 646 q 435 684 475 684 q 320 636 370 684 q 239 518 269 588 q 201 382 209 448 q 337 414 261 385 q 467 492 413 442 q 522 603 522 541 z "},"é":{"ha":702,"x_min":56,"x_max":688,"o":"m 585 1175 l 688 1082 q 628 1009 675 1059 q 525 915 581 960 q 433 855 470 869 l 376 903 l 585 1175 m 464 784 q 570 762 527 784 q 633 702 612 740 q 654 614 654 663 q 578 439 654 510 q 396 331 502 368 q 198 288 290 294 l 197 270 q 230 145 197 197 q 340 94 262 94 q 451 121 393 94 q 566 201 509 148 l 603 126 q 540 64 581 96 q 442 11 498 33 q 325 -11 386 -11 q 173 32 233 -11 q 84 144 112 75 q 58 294 56 213 q 114 542 62 430 q 257 719 165 654 q 464 784 348 784 m 522 603 q 498 665 522 646 q 435 684 475 684 q 320 636 370 684 q 239 518 269 588 q 201 382 209 448 q 337 414 261 385 q 467 492 413 442 q 522 603 522 541 z "},"ĕ":{"ha":702,"x_min":56,"x_max":669,"o":"m 464 784 q 570 762 527 784 q 633 702 612 740 q 654 614 654 663 q 578 439 654 510 q 396 331 502 368 q 198 288 290 294 l 197 270 q 230 145 197 197 q 340 94 262 94 q 451 121 393 94 q 566 201 509 148 l 603 126 q 540 64 581 96 q 442 11 498 33 q 325 -11 386 -11 q 173 32 233 -11 q 84 144 112 75 q 58 294 56 213 q 114 542 62 430 q 257 719 165 654 q 464 784 348 784 m 522 603 q 498 665 522 646 q 435 684 475 684 q 320 636 370 684 q 239 518 269 588 q 201 382 209 448 q 337 414 261 385 q 467 492 413 442 q 522 603 522 541 m 236 1109 q 237 1122 236 1118 l 328 1122 q 331 1101 330 1107 q 348 1044 338 1068 q 381 1002 358 1020 q 444 984 404 984 q 510 1003 484 984 q 549 1047 536 1023 q 574 1106 562 1072 q 579 1122 579 1122 l 669 1122 q 667 1100 669 1112 q 630 996 659 1045 q 552 915 601 946 q 439 884 503 884 q 324 917 370 884 q 257 1001 278 949 q 236 1109 236 1052 z "},"ě":{"ha":702,"x_min":56,"x_max":727,"o":"m 288 1139 l 459 974 l 671 1139 l 727 1080 l 513 871 l 394 871 l 229 1080 l 288 1139 m 464 784 q 570 762 527 784 q 633 702 612 740 q 654 614 654 663 q 578 439 654 510 q 396 331 502 368 q 198 288 290 294 l 197 270 q 230 145 197 197 q 340 94 262 94 q 451 121 393 94 q 566 201 509 148 l 603 126 q 540 64 581 96 q 442 11 498 33 q 325 -11 386 -11 q 173 32 233 -11 q 84 144 112 75 q 58 294 56 213 q 114 542 62 430 q 257 719 165 654 q 464 784 348 784 m 522 603 q 498 665 522 646 q 435 684 475 684 q 320 636 370 684 q 239 518 269 588 q 201 382 209 448 q 337 414 261 385 q 467 492 413 442 q 522 603 522 541 z "},"ê":{"ha":702,"x_min":56,"x_max":688,"o":"m 439 1146 l 559 1146 l 688 892 l 625 846 l 481 1025 l 269 840 l 217 892 l 439 1146 m 464 784 q 570 762 527 784 q 633 702 612 740 q 654 614 654 663 q 578 439 654 510 q 396 331 502 368 q 198 288 290 294 l 197 270 q 230 145 197 197 q 340 94 262 94 q 451 121 393 94 q 566 201 509 148 l 603 126 q 540 64 581 96 q 442 11 498 33 q 325 -11 386 -11 q 173 32 233 -11 q 84 144 112 75 q 58 294 56 213 q 114 542 62 430 q 257 719 165 654 q 464 784 348 784 m 522 603 q 498 665 522 646 q 435 684 475 684 q 320 636 370 684 q 239 518 269 588 q 201 382 209 448 q 337 414 261 385 q 467 492 413 442 q 522 603 522 541 z "},"ë":{"ha":702,"x_min":56,"x_max":686,"o":"m 220 1019 q 234 1068 220 1045 q 271 1106 248 1092 q 319 1120 294 1120 q 378 1098 355 1120 q 401 1045 401 1076 q 387 995 401 1019 q 349 956 373 970 q 298 941 326 941 q 243 964 267 941 q 220 1019 220 987 m 505 1019 q 519 1068 505 1045 q 556 1106 533 1092 q 604 1120 578 1120 q 663 1098 640 1120 q 686 1045 686 1076 q 672 995 686 1019 q 634 956 658 970 q 583 941 610 941 q 528 964 551 941 q 505 1019 505 987 m 464 784 q 570 762 527 784 q 633 702 612 740 q 654 614 654 663 q 578 439 654 510 q 396 331 502 368 q 198 288 290 294 l 197 270 q 230 145 197 197 q 340 94 262 94 q 451 121 393 94 q 566 201 509 148 l 603 126 q 540 64 581 96 q 442 11 498 33 q 325 -11 386 -11 q 173 32 233 -11 q 84 144 112 75 q 58 294 56 213 q 114 542 62 430 q 257 719 165 654 q 464 784 348 784 m 522 603 q 498 665 522 646 q 435 684 475 684 q 320 636 370 684 q 239 518 269 588 q 201 382 209 448 q 337 414 261 385 q 467 492 413 442 q 522 603 522 541 z "},"ė":{"ha":702,"x_min":56,"x_max":654,"o":"m 464 784 q 570 762 527 784 q 633 702 612 740 q 654 614 654 663 q 578 439 654 510 q 396 331 502 368 q 198 288 290 294 l 197 270 q 230 145 197 197 q 340 94 262 94 q 451 121 393 94 q 566 201 509 148 l 603 126 q 540 64 581 96 q 442 11 498 33 q 325 -11 386 -11 q 173 32 233 -11 q 84 144 112 75 q 58 294 56 213 q 114 542 62 430 q 257 719 165 654 q 464 784 348 784 m 522 603 q 498 665 522 646 q 435 684 475 684 q 320 636 370 684 q 239 518 269 588 q 201 382 209 448 q 337 414 261 385 q 467 492 413 442 q 522 603 522 541 m 366 1022 q 380 1071 366 1048 q 417 1108 394 1095 q 465 1122 439 1122 q 524 1101 501 1122 q 547 1048 547 1079 q 533 997 547 1021 q 495 959 519 973 q 444 944 471 944 q 389 967 412 944 q 366 1022 366 990 z "},"è":{"ha":702,"x_min":56,"x_max":654,"o":"m 464 784 q 570 762 527 784 q 633 702 612 740 q 654 614 654 663 q 578 439 654 510 q 396 331 502 368 q 198 288 290 294 l 197 270 q 230 145 197 197 q 340 94 262 94 q 451 121 393 94 q 566 201 509 148 l 603 126 q 540 64 581 96 q 442 11 498 33 q 325 -11 386 -11 q 173 32 233 -11 q 84 144 112 75 q 58 294 56 213 q 114 542 62 430 q 257 719 165 654 q 464 784 348 784 m 522 603 q 498 665 522 646 q 435 684 475 684 q 320 636 370 684 q 239 518 269 588 q 201 382 209 448 q 337 414 261 385 q 467 492 413 442 q 522 603 522 541 m 292 1178 l 487 905 l 429 858 q 352 910 401 869 q 255 1000 302 951 q 188 1085 209 1049 l 292 1178 z "},"ē":{"ha":702,"x_min":56,"x_max":654,"o":"m 464 784 q 570 762 527 784 q 633 702 612 740 q 654 614 654 663 q 578 439 654 510 q 396 331 502 368 q 198 288 290 294 l 197 270 q 230 145 197 197 q 340 94 262 94 q 451 121 393 94 q 566 201 509 148 l 603 126 q 540 64 581 96 q 442 11 498 33 q 325 -11 386 -11 q 173 32 233 -11 q 84 144 112 75 q 58 294 56 213 q 114 542 62 430 q 257 719 165 654 q 464 784 348 784 m 522 603 q 498 665 522 646 q 435 684 475 684 q 320 636 370 684 q 239 518 269 588 q 201 382 209 448 q 337 414 261 385 q 467 492 413 442 q 522 603 522 541 m 627 1050 l 623 949 l 278 949 l 281 1050 l 627 1050 z "},"ę":{"ha":713,"x_min":56,"x_max":654,"o":"m 340 94 q 451 121 393 94 q 566 201 509 148 l 603 126 q 571 90 591 110 l 576 93 q 532 49 566 83 q 416 -74 460 -24 q 372 -150 372 -125 q 385 -185 372 -175 q 414 -195 398 -195 q 456 -189 436 -195 q 503 -164 477 -182 l 537 -231 q 466 -276 508 -256 q 371 -295 423 -295 q 298 -279 328 -295 q 254 -238 269 -262 q 240 -191 240 -214 q 290 -87 240 -134 q 406 -1 340 -40 q 325 -11 363 -11 q 173 32 233 -11 q 84 144 112 75 q 58 294 56 213 q 114 542 62 430 q 257 719 165 654 q 464 784 348 784 q 570 762 527 784 q 633 702 612 740 q 654 614 654 663 q 578 439 654 510 q 396 331 502 368 q 198 288 290 294 l 197 270 q 230 145 197 197 q 340 94 262 94 m 435 684 q 320 636 370 684 q 239 518 269 588 q 201 382 209 448 q 337 414 261 385 q 467 492 413 442 q 522 603 522 541 q 498 665 522 646 q 435 684 475 684 z "},"f":{"ha":471,"x_min":96,"x_max":601,"o":"m 96 667 l 115 773 l 205 773 l 214 837 q 306 1059 233 978 q 500 1140 379 1140 q 554 1136 530 1140 q 601 1122 578 1133 l 567 1015 q 534 1031 553 1025 q 483 1036 515 1037 q 395 989 429 1036 q 351 876 360 943 l 337 773 l 480 773 l 472 667 l 323 667 l 233 0 l 100 0 l 191 667 l 96 667 z "},"ḟ":{"ha":471,"x_min":96,"x_max":601,"o":"m 232 1221 q 246 1271 232 1247 q 282 1308 260 1294 q 330 1322 305 1322 q 390 1300 367 1322 q 413 1247 413 1278 q 399 1197 413 1221 q 361 1158 385 1173 q 310 1143 337 1143 q 255 1166 278 1143 q 232 1221 232 1190 m 96 667 l 115 773 l 205 773 l 214 837 q 306 1059 233 978 q 500 1140 379 1140 q 554 1136 530 1140 q 601 1122 578 1133 l 567 1015 q 534 1031 553 1025 q 483 1036 515 1037 q 395 989 429 1036 q 351 876 360 943 l 337 773 l 480 773 l 472 667 l 323 667 l 233 0 l 100 0 l 191 667 l 96 667 z "},"g":{"ha":785,"x_min":54,"x_max":726,"o":"m 726 784 l 610 -63 q 540 -226 595 -163 q 412 -315 485 -288 q 264 -342 339 -342 q 161 -334 220 -342 q 82 -318 102 -327 l 116 -206 q 195 -231 148 -221 q 290 -241 241 -241 q 416 -197 373 -241 q 477 -65 460 -153 l 510 130 q 401 30 465 71 q 264 -11 337 -11 q 106 67 159 -11 q 54 282 54 145 q 102 513 54 397 q 250 707 151 629 q 493 784 349 784 q 570 777 528 784 q 647 761 612 770 l 726 784 m 288 92 q 413 143 352 92 q 518 259 475 193 l 576 671 q 472 687 528 687 q 317 626 381 687 q 222 475 254 566 q 191 298 191 385 q 216 142 191 193 q 288 92 241 92 z "},"ğ":{"ha":785,"x_min":54,"x_max":726,"o":"m 726 784 l 610 -63 q 540 -226 595 -163 q 412 -315 485 -288 q 264 -342 339 -342 q 161 -334 220 -342 q 82 -318 102 -327 l 116 -206 q 195 -231 148 -221 q 290 -241 241 -241 q 416 -197 373 -241 q 477 -65 460 -153 l 510 130 q 401 30 465 71 q 264 -11 337 -11 q 106 67 159 -11 q 54 282 54 145 q 102 513 54 397 q 250 707 151 629 q 493 784 349 784 q 570 777 528 784 q 647 761 612 770 l 726 784 m 288 92 q 413 143 352 92 q 518 259 475 193 l 576 671 q 472 687 528 687 q 317 626 381 687 q 222 475 254 566 q 191 298 191 385 q 216 142 191 193 q 288 92 241 92 m 282 1109 q 283 1122 282 1118 l 374 1122 q 377 1101 376 1107 q 394 1044 385 1068 q 427 1002 404 1020 q 490 984 450 984 q 556 1003 530 984 q 595 1047 582 1023 q 620 1106 608 1072 q 625 1122 625 1122 l 715 1122 q 713 1100 715 1112 q 676 996 705 1045 q 598 915 647 946 q 485 884 549 884 q 370 917 416 884 q 303 1001 324 949 q 282 1109 282 1052 z "},"ǧ":{"ha":785,"x_min":54,"x_max":773,"o":"m 726 784 l 610 -63 q 540 -226 595 -163 q 412 -315 485 -288 q 264 -342 339 -342 q 161 -334 220 -342 q 82 -318 102 -327 l 116 -206 q 195 -231 148 -221 q 290 -241 241 -241 q 416 -197 373 -241 q 477 -65 460 -153 l 510 130 q 401 30 465 71 q 264 -11 337 -11 q 106 67 159 -11 q 54 282 54 145 q 102 513 54 397 q 250 707 151 629 q 493 784 349 784 q 570 777 528 784 q 647 761 612 770 l 726 784 m 288 92 q 413 143 352 92 q 518 259 475 193 l 576 671 q 472 687 528 687 q 317 626 381 687 q 222 475 254 566 q 191 298 191 385 q 216 142 191 193 q 288 92 241 92 m 334 1142 l 505 977 l 718 1142 l 773 1083 l 559 874 l 440 874 l 275 1082 l 334 1142 z "},"ĝ":{"ha":785,"x_min":54,"x_max":734,"o":"m 485 1146 l 606 1146 l 734 892 l 671 846 l 528 1025 l 315 840 l 263 892 l 485 1146 m 726 784 l 610 -63 q 540 -226 595 -163 q 412 -315 485 -288 q 264 -342 339 -342 q 161 -334 220 -342 q 82 -318 102 -327 l 116 -206 q 195 -231 148 -221 q 290 -241 241 -241 q 416 -197 373 -241 q 477 -65 460 -153 l 510 130 q 401 30 465 71 q 264 -11 337 -11 q 106 67 159 -11 q 54 282 54 145 q 102 513 54 397 q 250 707 151 629 q 493 784 349 784 q 570 777 528 784 q 647 761 612 770 l 726 784 m 288 92 q 413 143 352 92 q 518 259 475 193 l 576 671 q 472 687 528 687 q 317 626 381 687 q 222 475 254 566 q 191 298 191 385 q 216 142 191 193 q 288 92 241 92 z "},"ģ":{"ha":785,"x_min":54,"x_max":726,"o":"m 463 839 q 415 868 436 845 q 384 922 395 890 q 372 987 372 954 q 391 1082 372 1040 q 439 1151 410 1125 q 496 1184 468 1177 l 550 1150 l 548 1133 q 512 1091 523 1113 q 502 1031 502 1069 q 516 984 502 1007 q 551 957 531 962 l 547 920 l 463 839 m 726 784 l 610 -63 q 540 -226 595 -163 q 412 -315 485 -288 q 264 -342 339 -342 q 161 -334 220 -342 q 82 -318 102 -327 l 116 -206 q 195 -231 148 -221 q 290 -241 241 -241 q 416 -197 373 -241 q 477 -65 460 -153 l 510 130 q 401 30 465 71 q 264 -11 337 -11 q 106 67 159 -11 q 54 282 54 145 q 102 513 54 397 q 250 707 151 629 q 493 784 349 784 q 570 777 528 784 q 647 761 612 770 l 726 784 m 288 92 q 413 143 352 92 q 518 259 475 193 l 576 671 q 472 687 528 687 q 317 626 381 687 q 222 475 254 566 q 191 298 191 385 q 216 142 191 193 q 288 92 241 92 z "},"ġ":{"ha":785,"x_min":54,"x_max":726,"o":"m 726 784 l 610 -63 q 540 -226 595 -163 q 412 -315 485 -288 q 264 -342 339 -342 q 161 -334 220 -342 q 82 -318 102 -327 l 116 -206 q 195 -231 148 -221 q 290 -241 241 -241 q 416 -197 373 -241 q 477 -65 460 -153 l 510 130 q 401 30 465 71 q 264 -11 337 -11 q 106 67 159 -11 q 54 282 54 145 q 102 513 54 397 q 250 707 151 629 q 493 784 349 784 q 570 777 528 784 q 647 761 612 770 l 726 784 m 288 92 q 413 143 352 92 q 518 259 475 193 l 576 671 q 472 687 528 687 q 317 626 381 687 q 222 475 254 566 q 191 298 191 385 q 216 142 191 193 q 288 92 241 92 m 412 1022 q 426 1071 412 1048 q 463 1108 440 1095 q 511 1122 486 1122 q 570 1101 547 1122 q 593 1048 593 1079 q 579 997 593 1021 q 541 959 565 973 q 490 944 517 944 q 435 967 458 944 q 412 1022 412 990 z "},"ḡ":{"ha":785,"x_min":54,"x_max":726,"o":"m 726 784 l 610 -63 q 540 -226 595 -163 q 412 -315 485 -288 q 264 -342 339 -342 q 161 -334 220 -342 q 82 -318 102 -327 l 116 -206 q 195 -231 148 -221 q 290 -241 241 -241 q 416 -197 373 -241 q 477 -65 460 -153 l 510 130 q 401 30 465 71 q 264 -11 337 -11 q 106 67 159 -11 q 54 282 54 145 q 102 513 54 397 q 250 707 151 629 q 493 784 349 784 q 570 777 528 784 q 647 761 612 770 l 726 784 m 288 92 q 413 143 352 92 q 518 259 475 193 l 576 671 q 472 687 528 687 q 317 626 381 687 q 222 475 254 566 q 191 298 191 385 q 216 142 191 193 q 288 92 241 92 m 673 1050 l 669 949 l 324 949 l 327 1050 l 673 1050 z "},"h":{"ha":812,"x_min":60,"x_max":725,"o":"m 574 784 q 688 738 651 784 q 725 587 725 691 q 698 349 725 537 q 666 134 682 234 l 646 0 l 513 0 q 550 256 532 141 l 564 349 q 583 493 576 437 q 590 579 590 548 q 582 632 590 614 q 558 655 574 650 q 519 661 543 661 q 435 637 482 661 q 341 573 388 613 q 258 488 294 534 l 192 0 l 60 0 l 201 1111 l 333 1111 l 298 786 l 271 616 q 413 737 332 690 q 574 784 494 784 z "},"ħ":{"ha":812,"x_min":60,"x_max":725,"o":"m 574 784 q 688 738 651 784 q 725 587 725 691 q 698 349 725 537 q 666 134 682 234 l 646 0 l 513 0 q 550 256 532 141 l 564 349 q 583 493 576 437 q 590 579 590 548 q 582 632 590 614 q 558 655 574 650 q 519 661 543 661 q 435 637 482 661 q 341 573 388 613 q 258 488 294 534 l 192 0 l 60 0 l 168 856 l 90 856 l 100 944 l 180 944 l 201 1111 l 333 1111 l 315 944 l 495 944 l 484 856 l 305 856 l 298 786 l 271 616 q 413 737 332 690 q 574 784 494 784 z "},"ĥ":{"ha":812,"x_min":60,"x_max":768,"o":"m 574 784 q 688 738 651 784 q 725 587 725 691 q 698 349 725 537 q 666 134 682 234 l 646 0 l 513 0 q 550 256 532 141 l 564 349 q 583 493 576 437 q 590 579 590 548 q 582 632 590 614 q 558 655 574 650 q 519 661 543 661 q 435 637 482 661 q 341 573 388 613 q 258 488 294 534 l 192 0 l 60 0 l 201 1111 l 333 1111 l 323 1019 l 518 1225 l 639 1225 l 768 991 l 704 945 l 561 1104 l 349 939 l 317 970 l 298 786 l 271 616 q 413 737 332 690 q 574 784 494 784 z "},"i":{"ha":396,"x_min":84,"x_max":389,"o":"m 321 773 l 216 0 l 84 0 l 189 773 l 321 773 m 208 1022 q 222 1071 208 1048 q 259 1108 236 1095 q 307 1122 281 1122 q 366 1101 343 1122 q 389 1048 389 1079 q 375 997 389 1021 q 337 959 361 973 q 286 944 313 944 q 231 967 254 944 q 208 1022 208 990 z "},"ı":{"ha":396,"x_min":84,"x_max":321,"o":"m 321 773 l 216 0 l 84 0 l 189 773 l 321 773 z "},"í":{"ha":396,"x_min":84,"x_max":530,"o":"m 427 1175 l 530 1082 q 470 1009 517 1059 q 367 915 422 960 q 275 855 312 869 l 218 903 l 427 1175 m 321 773 l 216 0 l 84 0 l 189 773 l 321 773 z "},"ĭ":{"ha":396,"x_min":78,"x_max":511,"o":"m 321 773 l 216 0 l 84 0 l 189 773 l 321 773 m 78 1109 q 79 1122 78 1118 l 170 1122 q 173 1101 172 1107 q 190 1044 180 1068 q 223 1002 200 1020 q 286 984 246 984 q 352 1003 326 984 q 391 1047 378 1023 q 416 1106 404 1072 q 421 1122 421 1122 l 511 1122 q 509 1100 511 1112 q 472 996 500 1045 q 394 915 443 946 q 281 884 345 884 q 166 917 212 884 q 99 1001 120 949 q 78 1109 78 1052 z "},"ǐ":{"ha":396,"x_min":71,"x_max":569,"o":"m 321 773 l 216 0 l 84 0 l 189 773 l 321 773 m 130 1142 l 301 977 l 513 1142 l 569 1083 l 355 874 l 236 874 l 71 1082 l 130 1142 z "},"î":{"ha":396,"x_min":59,"x_max":530,"o":"m 281 1146 l 401 1146 l 530 892 l 467 846 l 323 1025 l 111 840 l 59 892 l 281 1146 m 321 773 l 216 0 l 84 0 l 189 773 l 321 773 z "},"ï":{"ha":396,"x_min":62,"x_max":528,"o":"m 62 1019 q 76 1068 62 1045 q 113 1106 90 1092 q 161 1120 136 1120 q 220 1098 197 1120 q 243 1045 243 1076 q 229 995 243 1019 q 191 956 215 970 q 140 941 168 941 q 85 964 109 941 q 62 1019 62 987 m 347 1019 q 361 1068 347 1045 q 398 1106 375 1092 q 446 1120 420 1120 q 505 1098 482 1120 q 528 1045 528 1076 q 514 995 528 1019 q 476 956 500 970 q 425 941 452 941 q 370 964 393 941 q 347 1019 347 987 m 321 773 l 216 0 l 84 0 l 189 773 l 321 773 z "},"ì":{"ha":396,"x_min":30,"x_max":329,"o":"m 321 773 l 216 0 l 84 0 l 189 773 l 321 773 m 134 1178 l 329 905 l 271 858 q 194 910 243 869 q 97 1000 144 951 q 30 1085 51 1049 l 134 1178 z "},"ĳ":{"ha":789,"x_min":84,"x_max":768,"o":"m 321 773 l 216 0 l 84 0 l 189 773 l 321 773 m 208 1022 q 222 1071 208 1048 q 259 1108 236 1095 q 307 1122 281 1122 q 366 1101 343 1122 q 389 1048 389 1079 q 375 997 389 1021 q 337 959 361 973 q 286 944 313 944 q 231 967 254 944 q 208 1022 208 990 m 716 773 l 612 3 q 558 -184 597 -104 q 461 -306 519 -263 q 331 -349 403 -349 q 240 -322 278 -349 l 275 -247 q 292 -254 280 -251 q 312 -256 304 -256 q 403 -217 369 -256 q 455 -113 437 -177 q 485 47 472 -50 l 584 773 l 716 773 m 587 1022 q 601 1071 587 1048 q 638 1108 615 1095 q 686 1122 661 1122 q 745 1101 722 1122 q 768 1048 768 1079 q 754 997 768 1021 q 716 959 740 973 q 665 944 692 944 q 610 967 633 944 q 587 1022 587 990 z "},"ī":{"ha":396,"x_min":84,"x_max":469,"o":"m 321 773 l 216 0 l 84 0 l 189 773 l 321 773 m 469 1050 l 465 949 l 120 949 l 123 1050 l 469 1050 z "},"į":{"ha":435,"x_min":-66,"x_max":395,"o":"m 313 1120 q 372 1098 349 1120 q 395 1045 395 1076 q 381 995 395 1019 q 343 956 367 970 q 292 941 319 941 q 237 964 260 941 q 214 1019 214 987 q 228 1068 214 1045 q 265 1106 242 1092 q 313 1120 288 1120 m 204 773 l 336 773 l 231 0 l 205 0 q 104 -81 143 -45 q 65 -150 65 -117 q 78 -185 65 -175 q 108 -195 92 -195 q 150 -189 130 -195 q 196 -164 170 -182 l 231 -231 q 159 -276 201 -256 q 64 -295 117 -295 q -8 -279 21 -295 q -52 -238 -38 -262 q -66 -191 -66 -214 q -39 -111 -66 -148 q 21 -51 -11 -75 q 100 0 54 -28 l 99 0 l 204 773 z "},"ĩ":{"ha":396,"x_min":19,"x_max":550,"o":"m 321 773 l 216 0 l 84 0 l 189 773 l 321 773 m 19 1007 q 64 1062 33 1036 q 134 1105 96 1089 q 207 1122 172 1122 q 271 1107 245 1122 q 326 1065 297 1093 q 362 1036 347 1046 q 395 1027 376 1027 q 441 1042 422 1027 q 480 1086 459 1057 l 492 1101 l 550 1041 q 510 979 538 1007 q 444 933 482 950 q 368 917 406 917 q 318 924 340 917 q 282 943 297 932 q 249 971 268 954 q 210 1002 227 991 q 170 1012 193 1012 q 129 1000 145 1012 q 90 964 113 988 l 78 950 l 19 1007 z "},"j":{"ha":393,"x_min":-156,"x_max":372,"o":"m 320 773 l 216 3 q 162 -184 201 -104 q 65 -306 123 -263 q -65 -349 7 -349 q -156 -322 -118 -349 l -121 -247 q -104 -254 -116 -251 q -84 -256 -92 -256 q 7 -217 -27 -256 q 59 -113 41 -177 q 89 47 76 -50 l 188 773 l 320 773 m 191 1022 q 205 1071 191 1048 q 242 1108 219 1095 q 290 1122 264 1122 q 349 1101 326 1122 q 372 1048 372 1079 q 358 997 372 1021 q 320 959 344 973 q 269 944 296 944 q 214 967 237 944 q 191 1022 191 990 z "},"ȷ":{"ha":393,"x_min":-156,"x_max":320,"o":"m 320 773 l 216 3 q 162 -184 201 -104 q 65 -306 123 -263 q -65 -349 7 -349 q -156 -322 -118 -349 l -121 -247 q -104 -254 -116 -251 q -84 -256 -92 -256 q 7 -217 -27 -256 q 59 -113 41 -177 q 89 47 76 -50 l 188 773 l 320 773 z "},"ĵ":{"ha":393,"x_min":-156,"x_max":513,"o":"m 320 773 l 216 3 q 162 -184 201 -104 q 65 -306 123 -263 q -65 -349 7 -349 q -156 -322 -118 -349 l -121 -247 q -104 -254 -116 -251 q -84 -256 -92 -256 q 7 -217 -27 -256 q 59 -113 41 -177 q 89 47 76 -50 l 188 773 l 320 773 m 264 1149 l 385 1149 l 513 895 l 450 849 l 307 1028 l 94 843 l 42 895 l 264 1149 z "},"k":{"ha":706,"x_min":60,"x_max":711,"o":"m 333 1111 l 192 0 l 60 0 l 201 1111 l 333 1111 m 624 580 q 524 477 579 523 q 420 408 468 432 l 667 3 l 513 3 l 273 430 l 273 431 l 273 431 q 462 579 382 492 q 534 671 505 626 q 585 773 564 715 l 711 773 q 684 675 706 720 q 624 580 663 629 z "},"ķ":{"ha":706,"x_min":60,"x_max":711,"o":"m 258 -116 l 359 -47 q 414 -95 395 -58 q 432 -183 432 -132 q 413 -278 432 -235 q 365 -347 394 -321 q 309 -380 336 -373 l 254 -346 l 256 -328 q 292 -287 281 -309 q 302 -227 302 -264 q 288 -180 302 -203 q 254 -153 273 -157 l 258 -116 m 333 1111 l 192 0 l 60 0 l 201 1111 l 333 1111 m 624 580 q 524 477 579 523 q 420 408 468 432 l 667 3 l 513 3 l 273 430 l 273 431 l 273 431 q 462 579 382 492 q 534 671 505 626 q 585 773 564 715 l 711 773 q 684 675 706 720 q 624 580 663 629 z "},"ĸ":{"ha":706,"x_min":56,"x_max":715,"o":"m 294 783 l 189 0 l 56 0 l 163 783 l 294 783 m 692 693 q 620 571 667 629 q 519 470 572 513 q 420 405 466 427 l 667 0 l 513 0 l 273 427 l 273 428 l 273 428 q 426 540 354 473 q 547 693 497 606 q 589 783 572 738 l 715 783 q 692 693 711 740 z "},"l":{"ha":396,"x_min":85,"x_max":368,"o":"m 368 1111 l 217 3 l 85 3 l 236 1111 l 368 1111 z "},"ĺ":{"ha":396,"x_min":85,"x_max":531,"o":"m 447 1356 l 531 1270 q 471 1194 511 1234 q 387 1124 431 1155 q 309 1080 342 1093 l 260 1124 l 447 1356 m 359 1032 l 217 0 l 85 0 l 227 1032 l 359 1032 z "},"ľ":{"ha":532,"x_min":85,"x_max":614,"o":"m 368 1111 l 217 3 l 85 3 l 236 1111 l 368 1111 m 462 726 q 490 937 490 843 q 484 1014 490 977 q 469 1066 478 1051 l 475 1088 l 595 1119 q 610 1055 606 1092 q 614 963 614 1019 q 592 815 614 895 q 534 682 570 736 l 466 709 l 462 726 z "},"ļ":{"ha":396,"x_min":60,"x_max":368,"o":"m 64 -116 l 165 -47 q 220 -95 202 -58 q 239 -183 239 -132 q 220 -278 239 -235 q 172 -347 201 -321 q 115 -380 143 -373 l 61 -346 l 63 -328 q 99 -287 88 -309 q 109 -227 109 -264 q 95 -180 109 -203 q 60 -153 80 -157 l 64 -116 m 368 1111 l 217 3 l 85 3 l 236 1111 l 368 1111 z "},"ŀ":{"ha":568,"x_min":85,"x_max":598,"o":"m 368 1111 l 217 3 l 85 3 l 236 1111 l 368 1111 m 517 608 q 578 586 558 608 q 598 532 598 564 q 569 452 598 481 q 492 423 541 423 q 434 445 458 423 q 411 499 411 466 q 424 552 411 528 q 462 592 437 577 q 517 608 486 608 z "},"ǉ":{"ha":789,"x_min":85,"x_max":768,"o":"m 368 1111 l 217 3 l 85 3 l 236 1111 l 368 1111 m 716 773 l 612 3 q 558 -184 597 -104 q 461 -306 519 -263 q 331 -349 403 -349 q 240 -322 278 -349 l 275 -247 q 292 -254 280 -251 q 312 -256 304 -256 q 403 -217 369 -256 q 455 -113 437 -177 q 485 47 472 -50 l 584 773 l 716 773 m 587 1022 q 601 1071 587 1048 q 638 1108 615 1095 q 686 1122 661 1122 q 745 1101 722 1122 q 768 1048 768 1079 q 754 997 768 1021 q 716 959 740 973 q 665 944 692 944 q 610 967 633 944 q 587 1022 587 990 z "},"ł":{"ha":396,"x_min":60,"x_max":422,"o":"m 422 680 l 303 633 l 217 3 l 85 3 l 163 578 l 60 538 l 60 631 l 177 679 l 236 1111 l 368 1111 l 317 736 l 422 779 l 422 680 z "},"m":{"ha":1200,"x_min":56,"x_max":1114,"o":"m 963 784 q 1077 738 1040 784 q 1114 587 1114 691 q 1086 349 1114 537 q 1054 130 1076 273 l 1035 3 l 902 3 q 941 269 910 67 l 952 349 q 972 493 965 437 q 979 579 979 548 q 970 632 979 614 q 947 655 962 650 q 907 661 932 661 q 805 623 863 661 q 696 526 746 585 q 673 349 689 459 q 640 130 663 273 l 621 3 l 488 3 q 527 269 496 67 l 538 349 q 558 493 551 437 q 565 579 565 548 q 556 631 565 614 q 533 655 548 649 q 493 661 517 661 q 416 638 459 661 q 331 575 373 614 q 255 490 288 536 l 189 3 l 56 3 l 161 773 l 287 773 l 273 628 q 404 741 331 698 q 549 784 476 784 q 651 750 614 784 q 697 642 688 716 q 824 745 754 705 q 963 784 894 784 z "},"ṁ":{"ha":1200,"x_min":56,"x_max":1114,"o":"m 963 784 q 1077 738 1040 784 q 1114 587 1114 691 q 1086 349 1114 537 q 1054 130 1076 273 l 1035 3 l 902 3 q 941 269 910 67 l 952 349 q 972 493 965 437 q 979 579 979 548 q 970 632 979 614 q 947 655 962 650 q 907 661 932 661 q 805 623 863 661 q 696 526 746 585 q 673 349 689 459 q 640 130 663 273 l 621 3 l 488 3 q 527 269 496 67 l 538 349 q 558 493 551 437 q 565 579 565 548 q 556 631 565 614 q 533 655 548 649 q 493 661 517 661 q 416 638 459 661 q 331 575 373 614 q 255 490 288 536 l 189 3 l 56 3 l 161 773 l 287 773 l 273 628 q 404 741 331 698 q 549 784 476 784 q 651 750 614 784 q 697 642 688 716 q 824 745 754 705 q 963 784 894 784 m 581 1022 q 595 1071 581 1048 q 632 1108 609 1095 q 680 1122 654 1122 q 739 1101 716 1122 q 762 1048 762 1079 q 748 997 762 1021 q 710 959 734 973 q 659 944 686 944 q 604 967 627 944 q 581 1022 581 990 z "},"n":{"ha":810,"x_min":56,"x_max":723,"o":"m 572 784 q 686 738 649 784 q 723 587 723 691 q 696 349 723 537 q 663 130 686 273 l 644 3 l 511 3 q 550 269 519 67 l 562 349 q 581 493 574 437 q 588 579 588 548 q 580 632 588 614 q 556 655 572 650 q 517 661 541 661 q 432 637 479 661 q 337 572 385 612 q 254 484 290 531 l 189 3 l 56 3 l 161 773 l 287 773 l 273 621 q 414 739 335 693 q 572 784 494 784 z "},"ń":{"ha":810,"x_min":56,"x_max":723,"o":"m 594 1175 l 697 1082 q 637 1009 684 1059 q 535 915 590 960 q 442 855 479 869 l 386 903 l 594 1175 m 572 784 q 686 738 649 784 q 723 587 723 691 q 696 349 723 537 q 663 130 686 273 l 644 3 l 511 3 q 550 269 519 67 l 562 349 q 581 493 574 437 q 588 579 588 548 q 580 632 588 614 q 556 655 572 650 q 517 661 541 661 q 432 637 479 661 q 337 572 385 612 q 254 484 290 531 l 189 3 l 56 3 l 161 773 l 287 773 l 273 621 q 414 739 335 693 q 572 784 494 784 z "},"ň":{"ha":810,"x_min":56,"x_max":736,"o":"m 298 1139 l 469 974 l 681 1139 l 736 1080 l 523 871 l 404 871 l 239 1080 l 298 1139 m 572 784 q 686 738 649 784 q 723 587 723 691 q 696 349 723 537 q 663 130 686 273 l 644 3 l 511 3 q 550 269 519 67 l 562 349 q 581 493 574 437 q 588 579 588 548 q 580 632 588 614 q 556 655 572 650 q 517 661 541 661 q 432 637 479 661 q 337 572 385 612 q 254 484 290 531 l 189 3 l 56 3 l 161 773 l 287 773 l 273 621 q 414 739 335 693 q 572 784 494 784 z "},"ņ":{"ha":810,"x_min":56,"x_max":723,"o":"m 242 -116 l 343 -47 q 398 -95 380 -58 q 416 -183 416 -132 q 397 -278 416 -235 q 350 -347 378 -321 q 293 -380 321 -373 l 239 -346 l 241 -328 q 276 -287 266 -309 q 287 -227 287 -264 q 272 -180 287 -203 q 238 -153 258 -157 l 242 -116 m 572 784 q 686 738 649 784 q 723 587 723 691 q 696 349 723 537 q 663 130 686 273 l 644 3 l 511 3 q 550 269 519 67 l 562 349 q 581 493 574 437 q 588 579 588 548 q 580 632 588 614 q 556 655 572 650 q 517 661 541 661 q 432 637 479 661 q 337 572 385 612 q 254 484 290 531 l 189 3 l 56 3 l 161 773 l 287 773 l 273 621 q 414 739 335 693 q 572 784 494 784 z "},"ṅ":{"ha":810,"x_min":56,"x_max":723,"o":"m 572 784 q 686 738 649 784 q 723 587 723 691 q 696 349 723 537 q 663 130 686 273 l 644 3 l 511 3 q 550 269 519 67 l 562 349 q 581 493 574 437 q 588 579 588 548 q 580 632 588 614 q 556 655 572 650 q 517 661 541 661 q 432 637 479 661 q 337 572 385 612 q 254 484 290 531 l 189 3 l 56 3 l 161 773 l 287 773 l 273 621 q 414 739 335 693 q 572 784 494 784 m 376 1022 q 390 1071 376 1048 q 426 1108 404 1095 q 474 1122 449 1122 q 534 1101 511 1122 q 557 1048 557 1079 q 543 997 557 1021 q 505 959 528 973 q 454 944 481 944 q 399 967 422 944 q 376 1022 376 990 z "},"ŋ":{"ha":810,"x_min":56,"x_max":723,"o":"m 572 784 q 686 738 649 784 q 723 587 723 691 q 705 410 723 537 q 653 58 688 282 l 644 0 q 537 -263 618 -174 q 336 -351 456 -351 q 278 -345 304 -351 q 241 -326 252 -338 l 265 -271 q 289 -277 273 -275 q 313 -279 304 -279 q 448 -191 402 -279 q 517 44 494 -102 q 570 389 553 261 q 588 579 588 516 q 580 632 588 614 q 556 655 572 650 q 517 661 541 661 q 432 636 480 661 q 337 570 385 612 q 254 481 290 529 l 189 0 l 56 0 l 161 773 l 287 773 l 273 619 q 414 738 335 692 q 572 784 494 784 z "},"ǌ":{"ha":1202,"x_min":56,"x_max":1182,"o":"m 572 784 q 686 738 649 784 q 723 587 723 691 q 696 349 723 537 q 663 130 686 273 l 644 3 l 511 3 q 550 269 519 67 l 562 349 q 581 493 574 437 q 588 579 588 548 q 580 632 588 614 q 556 655 572 650 q 517 661 541 661 q 432 637 479 661 q 337 572 385 612 q 254 484 290 531 l 189 3 l 56 3 l 161 773 l 287 773 l 273 621 q 414 739 335 693 q 572 784 494 784 m 1130 773 l 1025 3 q 972 -184 1011 -104 q 875 -306 933 -263 q 745 -349 817 -349 q 654 -322 692 -349 l 689 -247 q 706 -254 694 -251 q 726 -256 718 -256 q 817 -217 783 -256 q 868 -113 851 -177 q 899 47 886 -50 l 998 773 l 1130 773 m 1001 1022 q 1015 1071 1001 1048 q 1052 1108 1029 1095 q 1099 1122 1074 1122 q 1159 1101 1136 1122 q 1182 1048 1182 1079 q 1168 997 1182 1021 q 1130 959 1154 973 q 1079 944 1106 944 q 1024 967 1047 944 q 1001 1022 1001 990 z "},"ñ":{"ha":810,"x_min":56,"x_max":723,"o":"m 572 784 q 686 738 649 784 q 723 587 723 691 q 696 349 723 537 q 663 130 686 273 l 644 3 l 511 3 q 550 269 519 67 l 562 349 q 581 493 574 437 q 588 579 588 548 q 580 632 588 614 q 556 655 572 650 q 517 661 541 661 q 432 637 479 661 q 337 572 385 612 q 254 484 290 531 l 189 3 l 56 3 l 161 773 l 287 773 l 273 621 q 414 739 335 693 q 572 784 494 784 m 186 1007 q 232 1062 201 1036 q 301 1105 263 1089 q 374 1122 340 1122 q 439 1107 413 1122 q 494 1065 465 1093 q 529 1036 515 1046 q 562 1027 544 1027 q 608 1042 590 1027 q 648 1086 627 1057 l 660 1101 l 718 1041 q 678 979 706 1007 q 612 933 650 950 q 536 917 574 917 q 486 924 507 917 q 450 943 465 932 q 416 971 435 954 q 377 1002 394 991 q 337 1012 360 1012 q 296 1000 313 1012 q 258 964 280 988 l 245 950 l 186 1007 z "},"o":{"ha":770,"x_min":60,"x_max":706,"o":"m 448 784 q 642 701 577 784 q 706 463 706 617 q 657 231 706 340 q 521 56 608 122 q 325 -11 434 -11 q 128 73 195 -11 q 60 311 60 157 q 111 541 60 432 q 250 717 161 650 q 448 784 339 784 m 345 89 q 467 144 416 89 q 542 286 517 200 q 567 460 567 371 q 534 628 567 571 q 427 684 501 684 q 303 629 355 684 q 225 487 252 573 q 198 314 198 401 q 234 147 198 205 q 345 89 271 89 z "},"ó":{"ha":770,"x_min":60,"x_max":706,"o":"m 587 1175 l 690 1082 q 630 1009 677 1059 q 528 915 583 960 q 435 855 473 869 l 379 903 l 587 1175 m 448 784 q 642 701 577 784 q 706 463 706 617 q 657 231 706 340 q 521 56 608 122 q 325 -11 434 -11 q 128 73 195 -11 q 60 311 60 157 q 111 541 60 432 q 250 717 161 650 q 448 784 339 784 m 345 89 q 467 144 416 89 q 542 286 517 200 q 567 460 567 371 q 534 628 567 571 q 427 684 501 684 q 303 629 355 684 q 225 487 252 573 q 198 314 198 401 q 234 147 198 205 q 345 89 271 89 z "},"ŏ":{"ha":770,"x_min":60,"x_max":706,"o":"m 448 784 q 642 701 577 784 q 706 463 706 617 q 657 231 706 340 q 521 56 608 122 q 325 -11 434 -11 q 128 73 195 -11 q 60 311 60 157 q 111 541 60 432 q 250 717 161 650 q 448 784 339 784 m 345 89 q 467 144 416 89 q 542 286 517 200 q 567 460 567 371 q 534 628 567 571 q 427 684 501 684 q 303 629 355 684 q 225 487 252 573 q 198 314 198 401 q 234 147 198 205 q 345 89 271 89 m 239 1109 q 239 1122 239 1118 l 331 1122 q 334 1101 333 1107 q 351 1044 341 1068 q 384 1002 361 1020 q 446 984 407 984 q 513 1003 487 984 q 552 1047 538 1023 q 576 1106 565 1072 q 582 1122 582 1122 l 671 1122 q 669 1100 671 1112 q 632 996 661 1045 q 554 915 604 946 q 441 884 505 884 q 327 917 372 884 q 260 1001 281 949 q 239 1109 239 1052 z "},"ǒ":{"ha":770,"x_min":60,"x_max":730,"o":"m 448 784 q 642 701 577 784 q 706 463 706 617 q 657 231 706 340 q 521 56 608 122 q 325 -11 434 -11 q 128 73 195 -11 q 60 311 60 157 q 111 541 60 432 q 250 717 161 650 q 448 784 339 784 m 345 89 q 467 144 416 89 q 542 286 517 200 q 567 460 567 371 q 534 628 567 571 q 427 684 501 684 q 303 629 355 684 q 225 487 252 573 q 198 314 198 401 q 234 147 198 205 q 345 89 271 89 m 291 1142 l 462 977 l 674 1142 l 730 1083 l 516 874 l 397 874 l 232 1082 l 291 1142 z "},"ô":{"ha":770,"x_min":60,"x_max":706,"o":"m 441 1146 l 562 1146 l 691 892 l 627 846 l 484 1025 l 272 840 l 220 892 l 441 1146 m 448 784 q 642 701 577 784 q 706 463 706 617 q 657 231 706 340 q 521 56 608 122 q 325 -11 434 -11 q 128 73 195 -11 q 60 311 60 157 q 111 541 60 432 q 250 717 161 650 q 448 784 339 784 m 345 89 q 467 144 416 89 q 542 286 517 200 q 567 460 567 371 q 534 628 567 571 q 427 684 501 684 q 303 629 355 684 q 225 487 252 573 q 198 314 198 401 q 234 147 198 205 q 345 89 271 89 z "},"ö":{"ha":770,"x_min":60,"x_max":706,"o":"m 223 1019 q 237 1068 223 1045 q 274 1106 251 1092 q 321 1120 296 1120 q 381 1098 358 1120 q 404 1045 404 1076 q 390 995 404 1019 q 352 956 376 970 q 301 941 328 941 q 246 964 269 941 q 223 1019 223 987 m 508 1019 q 522 1068 508 1045 q 558 1106 536 1092 q 606 1120 581 1120 q 666 1098 643 1120 q 689 1045 689 1076 q 675 995 689 1019 q 637 956 661 970 q 586 941 613 941 q 531 964 554 941 q 508 1019 508 987 m 448 784 q 642 701 577 784 q 706 463 706 617 q 657 231 706 340 q 521 56 608 122 q 325 -11 434 -11 q 128 73 195 -11 q 60 311 60 157 q 111 541 60 432 q 250 717 161 650 q 448 784 339 784 m 345 89 q 467 144 416 89 q 542 286 517 200 q 567 460 567 371 q 534 628 567 571 q 427 684 501 684 q 303 629 355 684 q 225 487 252 573 q 198 314 198 401 q 234 147 198 205 q 345 89 271 89 z "},"ò":{"ha":770,"x_min":60,"x_max":706,"o":"m 448 784 q 642 701 577 784 q 706 463 706 617 q 657 231 706 340 q 521 56 608 122 q 325 -11 434 -11 q 128 73 195 -11 q 60 311 60 157 q 111 541 60 432 q 250 717 161 650 q 448 784 339 784 m 345 89 q 467 144 416 89 q 542 286 517 200 q 567 460 567 371 q 534 628 567 571 q 427 684 501 684 q 303 629 355 684 q 225 487 252 573 q 198 314 198 401 q 234 147 198 205 q 345 89 271 89 m 294 1178 l 490 905 l 432 858 q 354 910 404 869 q 258 1000 304 951 q 191 1085 212 1049 l 294 1178 z "},"ő":{"ha":770,"x_min":60,"x_max":821,"o":"m 427 1181 l 526 1102 q 473 1012 507 1061 q 399 921 438 962 q 330 863 361 880 l 267 899 l 427 1181 m 722 1181 l 821 1101 q 767 1014 805 1066 q 687 918 728 962 q 619 863 645 875 l 555 899 l 722 1181 m 448 784 q 642 701 577 784 q 706 463 706 617 q 657 231 706 340 q 521 56 608 122 q 325 -11 434 -11 q 128 73 195 -11 q 60 311 60 157 q 111 541 60 432 q 250 717 161 650 q 448 784 339 784 m 345 89 q 467 144 416 89 q 542 286 517 200 q 567 460 567 371 q 534 628 567 571 q 427 684 501 684 q 303 629 355 684 q 225 487 252 573 q 198 314 198 401 q 234 147 198 205 q 345 89 271 89 z "},"ō":{"ha":770,"x_min":60,"x_max":706,"o":"m 629 1047 l 626 946 l 281 946 l 283 1047 l 629 1047 m 448 784 q 642 701 577 784 q 706 463 706 617 q 657 231 706 340 q 521 56 608 122 q 325 -11 434 -11 q 128 73 195 -11 q 60 311 60 157 q 111 541 60 432 q 250 717 161 650 q 448 784 339 784 m 345 89 q 467 144 416 89 q 542 286 517 200 q 567 460 567 371 q 534 628 567 571 q 427 684 501 684 q 303 629 355 684 q 225 487 252 573 q 198 314 198 401 q 234 147 198 205 q 345 89 271 89 z "},"ø":{"ha":770,"x_min":23,"x_max":723,"o":"m 629 717 q 707 464 707 635 q 658 233 707 342 q 522 57 609 123 q 326 -9 435 -9 q 170 35 233 -9 l 83 -90 l 23 -56 l 121 85 q 61 312 61 168 q 112 543 61 433 q 251 719 162 652 q 449 785 340 785 q 574 758 522 785 l 663 884 l 723 850 l 629 717 m 428 686 q 304 630 356 686 q 225 489 252 574 q 199 315 199 403 q 211 206 199 252 l 503 665 q 428 686 472 686 m 346 90 q 467 146 417 90 q 543 287 517 201 q 568 461 568 372 q 546 606 568 554 l 245 134 q 346 90 281 90 z "},"ǿ":{"ha":770,"x_min":23,"x_max":723,"o":"m 629 717 q 707 464 707 635 q 658 233 707 342 q 522 57 609 123 q 326 -9 435 -9 q 170 35 233 -9 l 83 -90 l 23 -56 l 121 85 q 61 312 61 168 q 112 543 61 433 q 251 719 162 652 q 449 785 340 785 q 574 758 522 785 l 663 884 l 723 850 l 629 717 m 428 686 q 304 630 356 686 q 225 489 252 574 q 199 315 199 403 q 211 206 199 252 l 503 665 q 428 686 472 686 m 346 90 q 467 146 417 90 q 543 287 517 201 q 568 461 568 372 q 546 606 568 554 l 245 134 q 346 90 281 90 m 581 1175 l 684 1082 q 624 1009 671 1059 q 521 915 576 960 q 429 855 466 869 l 372 903 l 581 1175 z "},"õ":{"ha":770,"x_min":60,"x_max":711,"o":"m 448 784 q 642 701 577 784 q 706 463 706 617 q 657 231 706 340 q 521 56 608 122 q 325 -11 434 -11 q 128 73 195 -11 q 60 311 60 157 q 111 541 60 432 q 250 717 161 650 q 448 784 339 784 m 345 89 q 467 144 416 89 q 542 286 517 200 q 567 460 567 371 q 534 628 567 571 q 427 684 501 684 q 303 629 355 684 q 225 487 252 573 q 198 314 198 401 q 234 147 198 205 q 345 89 271 89 m 180 1007 q 225 1062 194 1036 q 295 1105 256 1089 q 368 1122 333 1122 q 432 1107 406 1122 q 487 1065 458 1093 q 523 1036 508 1046 q 555 1027 537 1027 q 602 1042 583 1027 q 641 1086 620 1057 l 653 1101 l 711 1041 q 671 979 699 1007 q 605 933 643 950 q 529 917 567 917 q 479 924 500 917 q 443 943 458 932 q 410 971 429 954 q 370 1002 387 991 q 330 1012 353 1012 q 290 1000 306 1012 q 251 964 273 988 l 239 950 l 180 1007 z "},"œ":{"ha":1196,"x_min":60,"x_max":1149,"o":"m 835 94 q 945 121 887 94 q 1060 201 1003 148 l 1097 126 q 1034 64 1076 96 q 937 11 993 33 q 819 -11 880 -11 q 677 25 735 -11 q 588 123 619 61 q 469 25 536 60 q 325 -11 402 -11 q 128 73 195 -11 q 60 310 60 156 q 109 540 60 431 q 245 716 158 649 q 441 784 332 784 q 584 749 526 784 q 673 647 643 714 q 800 748 728 712 q 958 784 873 784 q 1064 762 1021 784 q 1128 702 1107 740 q 1149 614 1149 663 q 1073 439 1149 510 q 890 331 996 368 q 692 288 785 294 l 692 270 q 724 145 692 197 q 835 94 756 94 m 345 89 q 445 125 401 89 q 516 222 488 162 q 557 355 544 283 q 563 395 559 375 q 567 468 567 444 q 420 684 567 684 q 298 628 349 684 q 223 487 248 572 q 198 313 198 401 q 234 146 198 204 q 345 89 271 89 m 929 684 q 814 636 865 684 q 733 518 764 588 q 696 382 703 448 q 831 414 755 385 q 962 492 907 442 q 1016 603 1016 541 q 993 665 1016 646 q 929 684 970 684 z "},"p":{"ha":793,"x_min":10,"x_max":724,"o":"m 514 784 q 671 706 618 784 q 724 491 724 628 q 676 260 724 376 q 528 66 627 144 q 285 -11 429 -11 q 189 -1 243 -11 l 142 -348 l 10 -348 l 159 773 l 278 773 l 267 646 q 375 744 311 704 q 514 784 439 784 m 306 86 q 460 147 397 86 q 556 298 524 208 q 587 475 587 388 q 562 631 587 581 q 490 681 537 681 q 362 630 425 681 q 256 515 299 580 l 202 102 q 306 86 250 86 z "},"ṗ":{"ha":793,"x_min":10,"x_max":724,"o":"m 514 784 q 671 706 618 784 q 724 491 724 628 q 676 260 724 376 q 528 66 627 144 q 285 -11 429 -11 q 189 -1 243 -11 l 142 -348 l 10 -348 l 159 773 l 278 773 l 267 646 q 375 744 311 704 q 514 784 439 784 m 306 86 q 460 147 397 86 q 556 298 524 208 q 587 475 587 388 q 562 631 587 581 q 490 681 537 681 q 362 630 425 681 q 256 515 299 580 l 202 102 q 306 86 250 86 m 415 1022 q 429 1071 415 1048 q 466 1108 443 1095 q 513 1122 488 1122 q 573 1101 550 1122 q 596 1048 596 1079 q 582 997 596 1021 q 544 959 568 973 q 493 944 520 944 q 438 967 461 944 q 415 1022 415 990 z "},"þ":{"ha":789,"x_min":8,"x_max":726,"o":"m 515 784 q 673 706 620 784 q 726 491 726 628 q 677 260 726 376 q 529 66 629 144 q 286 -11 430 -11 q 189 -1 243 -11 l 175 -92 l 137 -350 l 8 -350 l 56 -11 l 205 1111 l 330 1111 l 293 778 l 269 647 q 377 744 313 705 q 515 784 441 784 m 307 86 q 462 147 398 86 q 557 298 526 208 q 589 475 589 388 q 564 631 589 581 q 492 681 538 681 q 363 630 426 681 q 258 515 300 580 l 203 102 q 307 86 251 86 z "},"q":{"ha":786,"x_min":54,"x_max":722,"o":"m 722 788 l 572 -343 l 440 -343 l 486 3 l 510 130 q 401 30 465 71 q 264 -11 337 -11 q 106 67 159 -11 q 54 282 54 145 q 102 513 54 397 q 250 707 151 629 q 493 784 349 784 q 564 778 525 784 q 638 764 603 772 l 722 788 m 574 671 q 472 687 525 687 q 317 626 381 687 q 222 475 254 566 q 191 298 191 385 q 216 142 191 193 q 288 92 241 92 q 413 142 352 92 q 517 259 474 193 l 574 671 z "},"r":{"ha":533,"x_min":56,"x_max":553,"o":"m 511 784 q 553 775 544 784 l 523 634 q 456 644 504 644 q 388 621 427 644 q 313 556 350 599 q 250 456 276 513 l 188 0 l 56 0 l 161 773 l 287 773 l 274 635 q 328 702 294 669 q 409 760 362 736 q 511 784 456 784 z "},"ŕ":{"ha":533,"x_min":56,"x_max":553,"o":"m 391 1175 l 494 1082 q 434 1009 481 1059 q 332 915 387 960 q 239 855 277 869 l 183 903 l 391 1175 m 511 784 q 553 775 544 784 l 523 634 q 456 644 504 644 q 388 621 427 644 q 313 556 350 599 q 250 456 276 513 l 188 0 l 56 0 l 161 773 l 287 773 l 274 635 q 328 702 294 669 q 409 760 362 736 q 511 784 456 784 z "},"ř":{"ha":533,"x_min":36,"x_max":553,"o":"m 95 1139 l 266 974 l 478 1139 l 534 1080 l 320 871 l 201 871 l 36 1080 l 95 1139 m 511 784 q 553 775 544 784 l 523 634 q 456 644 504 644 q 388 621 427 644 q 313 556 350 599 q 250 456 276 513 l 188 0 l 56 0 l 161 773 l 287 773 l 274 635 q 328 702 294 669 q 409 760 362 736 q 511 784 456 784 z "},"ŗ":{"ha":533,"x_min":14,"x_max":553,"o":"m 18 -116 l 119 -47 q 174 -95 156 -58 q 193 -183 193 -132 q 174 -278 193 -235 q 126 -347 155 -321 q 69 -380 97 -373 l 15 -346 l 17 -328 q 53 -287 42 -309 q 63 -227 63 -264 q 48 -180 63 -203 q 14 -153 34 -157 l 18 -116 m 511 784 q 553 775 544 784 l 523 634 q 456 644 504 644 q 388 621 427 644 q 313 556 350 599 q 250 456 276 513 l 188 0 l 56 0 l 161 773 l 287 773 l 274 635 q 328 702 294 669 q 409 760 362 736 q 511 784 456 784 z "},"s":{"ha":591,"x_min":30,"x_max":547,"o":"m 55 145 q 236 89 140 89 q 329 111 292 89 q 365 185 365 133 q 354 237 365 214 q 323 278 342 259 q 267 328 304 297 l 255 339 q 179 410 208 380 q 133 480 151 440 q 115 572 115 520 q 150 687 115 639 q 244 759 185 734 q 373 784 302 784 q 478 775 431 784 q 547 758 526 767 l 521 633 q 496 653 515 641 q 446 674 477 665 q 374 684 414 684 q 280 661 317 684 q 243 589 243 637 q 256 530 243 555 q 288 486 269 505 q 347 435 307 467 q 425 366 395 395 q 475 295 454 336 q 496 200 496 253 q 463 85 496 132 q 368 13 429 37 q 229 -11 308 -11 q 106 1 165 -11 q 30 29 48 14 l 55 145 z "},"ś":{"ha":591,"x_min":30,"x_max":618,"o":"m 515 1175 l 618 1082 q 558 1009 606 1059 q 456 915 511 960 q 363 855 401 869 l 307 903 l 515 1175 m 55 145 q 236 89 140 89 q 329 111 292 89 q 365 185 365 133 q 354 237 365 214 q 323 278 342 259 q 267 328 304 297 l 255 339 q 179 410 208 380 q 133 480 151 440 q 115 572 115 520 q 150 687 115 639 q 244 759 185 734 q 373 784 302 784 q 478 775 431 784 q 547 758 526 767 l 521 633 q 496 653 515 641 q 446 674 477 665 q 374 684 414 684 q 280 661 317 684 q 243 589 243 637 q 256 530 243 555 q 288 486 269 505 q 347 435 307 467 q 425 366 395 395 q 475 295 454 336 q 496 200 496 253 q 463 85 496 132 q 368 13 429 37 q 229 -11 308 -11 q 106 1 165 -11 q 30 29 48 14 l 55 145 z "},"š":{"ha":591,"x_min":30,"x_max":658,"o":"m 219 1139 l 390 974 l 602 1139 l 658 1080 l 444 871 l 325 871 l 160 1080 l 219 1139 m 55 145 q 236 89 140 89 q 329 111 292 89 q 365 185 365 133 q 354 237 365 214 q 323 278 342 259 q 267 328 304 297 l 255 339 q 179 410 208 380 q 133 480 151 440 q 115 572 115 520 q 150 687 115 639 q 244 759 185 734 q 373 784 302 784 q 478 775 431 784 q 547 758 526 767 l 521 633 q 496 653 515 641 q 446 674 477 665 q 374 684 414 684 q 280 661 317 684 q 243 589 243 637 q 256 530 243 555 q 288 486 269 505 q 347 435 307 467 q 425 366 395 395 q 475 295 454 336 q 496 200 496 253 q 463 85 496 132 q 368 13 429 37 q 229 -11 308 -11 q 106 1 165 -11 q 30 29 48 14 l 55 145 z "},"ş":{"ha":591,"x_min":30,"x_max":547,"o":"m 373 784 q 478 775 431 784 q 547 758 526 767 l 521 633 q 496 653 515 641 q 446 674 477 665 q 374 684 414 684 q 280 661 317 684 q 243 589 243 637 q 256 530 243 555 q 288 486 269 505 q 347 435 307 467 q 425 366 395 395 q 475 295 454 336 q 496 200 496 253 q 445 63 496 115 q 303 -5 393 10 q 319 -109 319 -47 q 267 -264 319 -216 q 131 -312 214 -312 q 72 -307 103 -312 q 31 -293 41 -301 l 47 -191 q 96 -200 65 -200 q 174 -174 144 -200 q 203 -78 203 -147 l 203 -33 l 203 -10 q 96 4 145 -7 q 30 29 47 15 l 55 145 q 236 89 140 89 q 329 111 292 89 q 365 185 365 133 q 354 237 365 214 q 323 278 342 259 q 267 328 304 297 l 255 339 q 179 410 208 380 q 133 480 151 440 q 115 572 115 520 q 150 687 115 639 q 244 759 185 734 q 373 784 302 784 z "},"ŝ":{"ha":591,"x_min":30,"x_max":619,"o":"m 370 1146 l 490 1146 l 619 892 l 555 846 l 412 1025 l 200 840 l 148 892 l 370 1146 m 55 145 q 236 89 140 89 q 329 111 292 89 q 365 185 365 133 q 354 237 365 214 q 323 278 342 259 q 267 328 304 297 l 255 339 q 179 410 208 380 q 133 480 151 440 q 115 572 115 520 q 150 687 115 639 q 244 759 185 734 q 373 784 302 784 q 478 775 431 784 q 547 758 526 767 l 521 633 q 496 653 515 641 q 446 674 477 665 q 374 684 414 684 q 280 661 317 684 q 243 589 243 637 q 256 530 243 555 q 288 486 269 505 q 347 435 307 467 q 425 366 395 395 q 475 295 454 336 q 496 200 496 253 q 463 85 496 132 q 368 13 429 37 q 229 -11 308 -11 q 106 1 165 -11 q 30 29 48 14 l 55 145 z "},"ș":{"ha":591,"x_min":30,"x_max":547,"o":"m 155 -116 l 256 -47 q 311 -95 293 -58 q 330 -183 330 -132 q 311 -278 330 -235 q 263 -347 292 -321 q 206 -380 234 -373 l 152 -346 l 154 -328 q 190 -287 179 -309 q 200 -227 200 -264 q 185 -180 200 -203 q 151 -153 171 -157 l 155 -116 m 55 145 q 236 89 140 89 q 329 111 292 89 q 365 185 365 133 q 354 237 365 214 q 323 278 342 259 q 267 328 304 297 l 255 339 q 179 410 208 380 q 133 480 151 440 q 115 572 115 520 q 150 687 115 639 q 244 759 185 734 q 373 784 302 784 q 478 775 431 784 q 547 758 526 767 l 521 633 q 496 653 515 641 q 446 674 477 665 q 374 684 414 684 q 280 661 317 684 q 243 589 243 637 q 256 530 243 555 q 288 486 269 505 q 347 435 307 467 q 425 366 395 395 q 475 295 454 336 q 496 200 496 253 q 463 85 496 132 q 368 13 429 37 q 229 -11 308 -11 q 106 1 165 -11 q 30 29 48 14 l 55 145 z "},"ṡ":{"ha":591,"x_min":30,"x_max":547,"o":"m 55 145 q 236 89 140 89 q 329 111 292 89 q 365 185 365 133 q 354 237 365 214 q 323 278 342 259 q 267 328 304 297 l 255 339 q 179 410 208 380 q 133 480 151 440 q 115 572 115 520 q 150 687 115 639 q 244 759 185 734 q 373 784 302 784 q 478 775 431 784 q 547 758 526 767 l 521 633 q 496 653 515 641 q 446 674 477 665 q 374 684 414 684 q 280 661 317 684 q 243 589 243 637 q 256 530 243 555 q 288 486 269 505 q 347 435 307 467 q 425 366 395 395 q 475 295 454 336 q 496 200 496 253 q 463 85 496 132 q 368 13 429 37 q 229 -11 308 -11 q 106 1 165 -11 q 30 29 48 14 l 55 145 m 297 1022 q 311 1071 297 1048 q 348 1108 325 1095 q 395 1122 370 1122 q 455 1101 432 1122 q 478 1048 478 1079 q 464 997 478 1021 q 426 959 450 973 q 375 944 402 944 q 320 967 343 944 q 297 1022 297 990 z "},"ß":{"ha":800,"x_min":52,"x_max":743,"o":"m 132 631 q 219 919 155 820 q 359 1047 282 1017 q 528 1078 436 1078 q 639 1055 591 1078 q 715 988 688 1033 q 743 880 743 943 q 728 790 743 829 q 692 725 713 751 q 637 664 671 698 q 588 606 604 629 q 572 555 572 583 q 585 518 572 538 q 625 463 598 497 q 652 427 638 446 q 712 322 689 374 q 736 212 736 271 q 704 97 736 147 q 609 18 671 46 q 460 -11 547 -11 q 366 -1 418 -11 q 290 21 313 9 l 308 148 q 368 110 330 127 q 447 92 407 92 q 535 103 503 92 q 582 138 567 113 q 596 205 596 162 q 578 280 596 239 q 536 357 560 322 q 472 451 499 401 q 445 541 445 500 q 462 616 445 585 q 515 687 479 648 q 583 778 560 734 q 606 876 606 822 q 576 952 606 922 q 490 982 546 982 q 388 949 431 982 q 311 831 345 917 q 258 591 278 745 l 184 3 l 52 3 l 132 631 z "},"t":{"ha":503,"x_min":90,"x_max":497,"o":"m 169 667 l 90 667 l 119 773 l 190 773 l 232 963 l 344 963 l 319 773 l 497 773 l 481 667 l 304 667 l 253 267 l 248 229 q 244 203 247 223 q 241 168 241 184 q 249 114 241 134 q 279 94 257 94 q 351 118 303 94 q 424 161 398 141 l 441 87 q 388 44 425 67 q 307 5 351 20 q 228 -11 264 -11 q 138 17 172 -11 q 104 111 104 45 q 112 201 104 138 l 169 667 z "},"ŧ":{"ha":503,"x_min":56,"x_max":497,"o":"m 304 667 l 284 509 l 461 509 l 450 421 l 273 421 l 253 267 l 248 229 q 244 203 247 223 q 241 168 241 184 q 249 114 241 134 q 279 94 257 94 q 351 118 303 94 q 424 161 398 141 l 441 87 q 388 44 425 67 q 307 5 351 20 q 228 -11 264 -11 q 138 17 172 -11 q 104 111 104 45 q 112 201 104 138 l 139 421 l 56 421 l 66 509 l 150 509 l 169 667 l 90 667 l 119 773 l 190 773 l 232 963 l 344 963 l 319 773 l 497 773 l 481 667 l 304 667 z "},"ť":{"ha":503,"x_min":90,"x_max":593,"o":"m 169 667 l 90 667 l 119 773 l 190 773 l 232 963 l 344 963 l 319 773 l 497 773 l 481 667 l 304 667 l 253 267 l 248 229 q 244 203 247 223 q 241 168 241 184 q 249 114 241 134 q 279 94 257 94 q 351 118 303 94 q 424 161 398 141 l 441 87 q 388 44 425 67 q 307 5 351 20 q 228 -11 264 -11 q 138 17 172 -11 q 104 111 104 45 q 112 201 104 138 l 169 667 m 441 888 q 469 1099 469 1006 q 463 1177 469 1140 q 448 1229 457 1214 l 454 1251 l 574 1282 q 589 1218 585 1255 q 593 1126 593 1181 q 571 978 593 1057 q 513 844 549 899 l 445 871 l 441 888 z "},"ţ":{"ha":503,"x_min":-20,"x_max":497,"o":"m 253 267 l 248 229 q 244 203 247 223 q 241 168 241 184 q 249 114 241 134 q 279 94 257 94 q 351 118 303 94 q 424 161 398 141 l 441 87 q 396 49 427 70 q 327 13 365 28 q 255 -9 289 -3 q 269 -109 269 -50 q 217 -264 269 -216 q 81 -312 164 -312 q 22 -307 53 -312 q -20 -293 -9 -301 l -3 -191 q 45 -200 15 -200 q 124 -174 94 -200 q 153 -78 153 -147 l 154 -30 q 153 6 154 -14 q 104 114 104 35 q 112 201 104 136 l 169 667 l 90 667 l 119 773 l 190 773 l 232 963 l 344 963 l 319 773 l 497 773 l 481 667 l 304 667 l 253 267 z "},"ț":{"ha":503,"x_min":90,"x_max":497,"o":"m 105 -116 l 206 -47 q 261 -95 243 -58 q 279 -183 279 -132 q 260 -278 279 -235 q 213 -347 241 -321 q 156 -380 184 -373 l 102 -346 l 104 -328 q 139 -287 129 -309 q 150 -227 150 -264 q 135 -180 150 -203 q 101 -153 121 -157 l 105 -116 m 169 667 l 90 667 l 119 773 l 190 773 l 232 963 l 344 963 l 319 773 l 497 773 l 481 667 l 304 667 l 253 267 l 248 229 q 244 203 247 223 q 241 168 241 184 q 249 114 241 134 q 279 94 257 94 q 351 118 303 94 q 424 161 398 141 l 441 87 q 388 44 425 67 q 307 5 351 20 q 228 -11 264 -11 q 138 17 172 -11 q 104 111 104 45 q 112 201 104 138 l 169 667 z "},"ṫ":{"ha":503,"x_min":90,"x_max":497,"o":"m 169 667 l 90 667 l 119 773 l 190 773 l 232 963 l 344 963 l 319 773 l 497 773 l 481 667 l 304 667 l 253 267 l 248 229 q 244 203 247 223 q 241 168 241 184 q 249 114 241 134 q 279 94 257 94 q 351 118 303 94 q 424 161 398 141 l 441 87 q 388 44 425 67 q 307 5 351 20 q 228 -11 264 -11 q 138 17 172 -11 q 104 111 104 45 q 112 201 104 138 l 169 667 m 220 1093 q 234 1142 220 1119 q 271 1180 248 1166 q 319 1194 294 1194 q 378 1172 355 1194 q 401 1119 401 1150 q 387 1068 401 1093 q 349 1030 373 1044 q 298 1015 326 1015 q 243 1038 267 1015 q 220 1093 220 1061 z "},"u":{"ha":795,"x_min":69,"x_max":734,"o":"m 734 773 l 632 0 l 509 0 l 524 148 q 396 31 468 75 q 247 -14 325 -14 q 113 33 156 -14 q 69 183 69 79 q 83 338 69 226 q 144 773 108 530 l 277 773 q 250 576 264 680 q 217 337 227 414 q 204 191 204 238 q 226 121 204 140 q 296 102 248 102 q 419 154 352 102 q 537 280 487 205 l 602 773 l 734 773 z "},"ú":{"ha":795,"x_min":69,"x_max":734,"o":"m 607 1175 l 710 1082 q 650 1009 697 1059 q 548 915 603 960 q 455 855 492 869 l 399 903 l 607 1175 m 734 773 l 632 0 l 509 0 l 524 148 q 396 31 468 75 q 247 -14 325 -14 q 113 33 156 -14 q 69 183 69 79 q 83 338 69 226 q 144 773 108 530 l 277 773 q 250 576 264 680 q 217 337 227 414 q 204 191 204 238 q 226 121 204 140 q 296 102 248 102 q 419 154 352 102 q 537 280 487 205 l 602 773 l 734 773 z "},"ŭ":{"ha":795,"x_min":69,"x_max":734,"o":"m 734 773 l 632 0 l 509 0 l 524 148 q 396 31 468 75 q 247 -14 325 -14 q 113 33 156 -14 q 69 183 69 79 q 83 338 69 226 q 144 773 108 530 l 277 773 q 250 576 264 680 q 217 337 227 414 q 204 191 204 238 q 226 121 204 140 q 296 102 248 102 q 419 154 352 102 q 537 280 487 205 l 602 773 l 734 773 m 258 1109 q 259 1122 258 1118 l 351 1122 q 353 1101 353 1107 q 371 1044 361 1068 q 404 1002 380 1020 q 466 984 427 984 q 532 1003 507 984 q 571 1047 558 1023 q 596 1106 585 1072 q 602 1122 602 1122 l 691 1122 q 689 1100 691 1112 q 652 996 681 1045 q 574 915 623 946 q 461 884 525 884 q 346 917 392 884 q 279 1001 300 949 q 258 1109 258 1052 z "},"ǔ":{"ha":795,"x_min":69,"x_max":749,"o":"m 734 773 l 632 0 l 509 0 l 524 148 q 396 31 468 75 q 247 -14 325 -14 q 113 33 156 -14 q 69 183 69 79 q 83 338 69 226 q 144 773 108 530 l 277 773 q 250 576 264 680 q 217 337 227 414 q 204 191 204 238 q 226 121 204 140 q 296 102 248 102 q 419 154 352 102 q 537 280 487 205 l 602 773 l 734 773 m 311 1142 l 481 977 l 694 1142 l 749 1083 l 536 874 l 416 874 l 252 1082 l 311 1142 z "},"û":{"ha":795,"x_min":69,"x_max":734,"o":"m 461 1146 l 582 1146 l 711 892 l 647 846 l 504 1025 l 292 840 l 239 892 l 461 1146 m 734 773 l 632 0 l 509 0 l 524 148 q 396 31 468 75 q 247 -14 325 -14 q 113 33 156 -14 q 69 183 69 79 q 83 338 69 226 q 144 773 108 530 l 277 773 q 250 576 264 680 q 217 337 227 414 q 204 191 204 238 q 226 121 204 140 q 296 102 248 102 q 419 154 352 102 q 537 280 487 205 l 602 773 l 734 773 z "},"ü":{"ha":795,"x_min":69,"x_max":734,"o":"m 243 1019 q 257 1068 243 1045 q 293 1106 271 1092 q 341 1120 316 1120 q 401 1098 378 1120 q 424 1045 424 1076 q 410 995 424 1019 q 372 956 395 970 q 321 941 348 941 q 266 964 289 941 q 243 1019 243 987 m 528 1019 q 542 1068 528 1045 q 578 1106 555 1092 q 626 1120 601 1120 q 686 1098 663 1120 q 709 1045 709 1076 q 694 995 709 1019 q 656 956 680 970 q 606 941 633 941 q 551 964 574 941 q 528 1019 528 987 m 734 773 l 632 0 l 509 0 l 524 148 q 396 31 468 75 q 247 -14 325 -14 q 113 33 156 -14 q 69 183 69 79 q 83 338 69 226 q 144 773 108 530 l 277 773 q 250 576 264 680 q 217 337 227 414 q 204 191 204 238 q 226 121 204 140 q 296 102 248 102 q 419 154 352 102 q 537 280 487 205 l 602 773 l 734 773 z "},"ù":{"ha":795,"x_min":69,"x_max":734,"o":"m 734 773 l 632 0 l 509 0 l 524 148 q 396 31 468 75 q 247 -14 325 -14 q 113 33 156 -14 q 69 183 69 79 q 83 338 69 226 q 144 773 108 530 l 277 773 q 250 576 264 680 q 217 337 227 414 q 204 191 204 238 q 226 121 204 140 q 296 102 248 102 q 419 154 352 102 q 537 280 487 205 l 602 773 l 734 773 m 314 1178 l 509 905 l 452 858 q 374 910 424 869 q 278 1000 324 951 q 210 1085 231 1049 l 314 1178 z "},"ű":{"ha":795,"x_min":69,"x_max":840,"o":"m 734 773 l 632 0 l 509 0 l 524 148 q 396 31 468 75 q 247 -14 325 -14 q 113 33 156 -14 q 69 183 69 79 q 83 338 69 226 q 144 773 108 530 l 277 773 q 250 576 264 680 q 217 337 227 414 q 204 191 204 238 q 226 121 204 140 q 296 102 248 102 q 419 154 352 102 q 537 280 487 205 l 602 773 l 734 773 m 447 1184 l 545 1105 q 492 1015 527 1064 q 419 924 458 965 q 350 865 380 883 l 286 902 l 447 1184 m 742 1184 l 840 1104 q 786 1017 825 1069 q 706 921 748 964 q 639 865 665 878 l 574 902 l 742 1184 z "},"ū":{"ha":795,"x_min":69,"x_max":734,"o":"m 734 773 l 632 0 l 509 0 l 524 148 q 396 31 468 75 q 247 -14 325 -14 q 113 33 156 -14 q 69 183 69 79 q 83 338 69 226 q 144 773 108 530 l 277 773 q 250 576 264 680 q 217 337 227 414 q 204 191 204 238 q 226 121 204 140 q 296 102 248 102 q 419 154 352 102 q 537 280 487 205 l 602 773 l 734 773 m 649 1050 l 646 949 l 300 949 l 303 1050 l 649 1050 z "},"ų":{"ha":802,"x_min":69,"x_max":734,"o":"m 515 -195 q 557 -189 536 -195 q 603 -164 577 -182 l 637 -231 q 566 -276 608 -256 q 471 -295 524 -295 q 398 -279 428 -295 q 355 -238 369 -262 q 340 -191 340 -214 q 368 -111 340 -148 q 428 -51 396 -75 q 507 0 460 -28 l 509 1 l 524 148 q 396 31 468 75 q 247 -14 325 -14 q 113 33 156 -14 q 69 183 69 79 q 83 338 69 226 q 144 773 108 530 l 277 773 q 250 576 264 680 q 217 337 227 414 q 204 191 204 238 q 226 121 204 140 q 296 102 248 102 q 419 154 352 102 q 537 280 487 205 l 602 773 l 734 773 l 632 0 l 612 0 q 511 -81 550 -45 q 472 -150 472 -117 q 485 -185 472 -175 q 515 -195 498 -195 z "},"ů":{"ha":795,"x_min":69,"x_max":734,"o":"m 280 1025 q 315 1126 280 1084 q 404 1190 349 1168 q 515 1211 458 1211 q 652 1163 602 1211 q 703 1031 703 1116 q 672 931 703 972 q 589 870 641 890 q 475 850 537 850 q 331 896 382 850 q 280 1025 280 941 m 606 1043 q 578 1111 606 1084 q 505 1138 550 1138 q 412 1111 450 1138 q 374 1021 374 1084 q 388 971 374 994 q 425 935 401 948 q 478 922 449 922 q 572 948 538 922 q 606 1043 606 974 m 734 773 l 632 0 l 509 0 l 524 148 q 396 31 468 75 q 247 -14 325 -14 q 113 33 156 -14 q 69 183 69 79 q 83 338 69 226 q 144 773 108 530 l 277 773 q 250 576 264 680 q 217 337 227 414 q 204 191 204 238 q 226 121 204 140 q 296 102 248 102 q 419 154 352 102 q 537 280 487 205 l 602 773 l 734 773 z "},"ũ":{"ha":795,"x_min":69,"x_max":734,"o":"m 734 773 l 632 0 l 509 0 l 524 148 q 396 31 468 75 q 247 -14 325 -14 q 113 33 156 -14 q 69 183 69 79 q 83 338 69 226 q 144 773 108 530 l 277 773 q 250 576 264 680 q 217 337 227 414 q 204 191 204 238 q 226 121 204 140 q 296 102 248 102 q 419 154 352 102 q 537 280 487 205 l 602 773 l 734 773 m 199 1007 q 245 1062 214 1036 q 314 1105 276 1089 q 387 1122 353 1122 q 452 1107 426 1122 q 507 1065 477 1093 q 542 1036 528 1046 q 575 1027 557 1027 q 621 1042 603 1027 q 661 1086 640 1057 l 673 1101 l 730 1041 q 691 979 719 1007 q 625 933 663 950 q 549 917 587 917 q 499 924 520 917 q 463 943 477 932 q 429 971 448 954 q 390 1002 407 991 q 350 1012 373 1012 q 309 1000 326 1012 q 271 964 293 988 l 258 950 l 199 1007 z "},"v":{"ha":683,"x_min":69,"x_max":675,"o":"m 69 773 l 217 773 l 262 243 l 269 104 l 367 232 q 437 350 412 305 q 483 449 462 394 q 523 579 505 504 q 540 673 531 612 q 549 764 549 734 l 548 773 l 674 773 q 675 731 675 746 q 673 682 675 706 q 587 392 661 536 q 411 125 513 248 l 302 -3 l 183 -11 l 144 243 l 69 773 z "},"w":{"ha":1127,"x_min":73,"x_max":1103,"o":"m 1103 773 q 1103 746 1103 763 q 1101 694 1103 722 q 1055 488 1093 593 q 963 289 1018 383 q 847 121 909 195 l 745 -3 l 626 -11 l 587 243 l 564 401 q 411 125 486 214 l 309 -3 l 190 -11 l 151 243 l 73 773 l 221 773 l 269 243 l 276 104 l 367 232 q 470 422 428 330 q 533 622 511 514 l 511 773 l 656 773 l 706 243 l 714 104 l 803 228 q 872 345 847 298 q 916 448 897 391 q 949 579 935 504 q 974 763 974 718 q 973 773 974 770 l 1103 773 z "},"ẃ":{"ha":1127,"x_min":73,"x_max":1103,"o":"m 789 1175 l 892 1082 q 832 1009 880 1059 q 730 915 785 960 q 637 855 675 869 l 581 903 l 789 1175 m 1103 773 q 1103 746 1103 763 q 1101 694 1103 722 q 1055 488 1093 593 q 963 289 1018 383 q 847 121 909 195 l 745 -3 l 626 -11 l 587 243 l 564 401 q 411 125 486 214 l 309 -3 l 190 -11 l 151 243 l 73 773 l 221 773 l 269 243 l 276 104 l 367 232 q 470 422 428 330 q 533 622 511 514 l 511 773 l 656 773 l 706 243 l 714 104 l 803 228 q 872 345 847 298 q 916 448 897 391 q 949 579 935 504 q 974 763 974 718 q 973 773 974 770 l 1103 773 z "},"ŵ":{"ha":1127,"x_min":73,"x_max":1103,"o":"m 644 1146 l 764 1146 l 893 892 l 829 846 l 686 1025 l 474 840 l 422 892 l 644 1146 m 1103 773 q 1103 746 1103 763 q 1101 694 1103 722 q 1055 488 1093 593 q 963 289 1018 383 q 847 121 909 195 l 745 -3 l 626 -11 l 587 243 l 564 401 q 411 125 486 214 l 309 -3 l 190 -11 l 151 243 l 73 773 l 221 773 l 269 243 l 276 104 l 367 232 q 470 422 428 330 q 533 622 511 514 l 511 773 l 656 773 l 706 243 l 714 104 l 803 228 q 872 345 847 298 q 916 448 897 391 q 949 579 935 504 q 974 763 974 718 q 973 773 974 770 l 1103 773 z "},"ẅ":{"ha":1127,"x_min":73,"x_max":1103,"o":"m 425 1019 q 439 1068 425 1045 q 476 1106 453 1092 q 524 1120 498 1120 q 583 1098 560 1120 q 606 1045 606 1076 q 592 995 606 1019 q 554 956 578 970 q 503 941 530 941 q 448 964 471 941 q 425 1019 425 987 m 710 1019 q 724 1068 710 1045 q 761 1106 738 1092 q 808 1120 783 1120 q 868 1098 845 1120 q 891 1045 891 1076 q 877 995 891 1019 q 839 956 863 970 q 788 941 815 941 q 733 964 756 941 q 710 1019 710 987 m 1103 773 q 1103 746 1103 763 q 1101 694 1103 722 q 1055 488 1093 593 q 963 289 1018 383 q 847 121 909 195 l 745 -3 l 626 -11 l 587 243 l 564 401 q 411 125 486 214 l 309 -3 l 190 -11 l 151 243 l 73 773 l 221 773 l 269 243 l 276 104 l 367 232 q 470 422 428 330 q 533 622 511 514 l 511 773 l 656 773 l 706 243 l 714 104 l 803 228 q 872 345 847 298 q 916 448 897 391 q 949 579 935 504 q 974 763 974 718 q 973 773 974 770 l 1103 773 z "},"ẁ":{"ha":1127,"x_min":73,"x_max":1103,"o":"m 1103 773 q 1103 746 1103 763 q 1101 694 1103 722 q 1055 488 1093 593 q 963 289 1018 383 q 847 121 909 195 l 745 -3 l 626 -11 l 587 243 l 564 401 q 411 125 486 214 l 309 -3 l 190 -11 l 151 243 l 73 773 l 221 773 l 269 243 l 276 104 l 367 232 q 470 422 428 330 q 533 622 511 514 l 511 773 l 656 773 l 706 243 l 714 104 l 803 228 q 872 345 847 298 q 916 448 897 391 q 949 579 935 504 q 974 763 974 718 q 973 773 974 770 l 1103 773 m 496 1178 l 692 905 l 634 858 q 556 910 606 869 q 460 1000 507 951 q 393 1085 414 1049 l 496 1178 z "},"x":{"ha":646,"x_min":-37,"x_max":665,"o":"m 379 385 l 566 3 l 410 3 l 296 294 l 105 3 l -37 3 l 252 401 l 80 773 l 239 773 l 336 494 l 522 773 l 665 773 l 379 385 z "},"y":{"ha":712,"x_min":-132,"x_max":680,"o":"m 679 773 q 680 733 680 747 q 678 683 680 709 q 509 155 661 441 q 340 -104 432 10 q 331 -115 332 -115 q 232 -227 278 -182 q 119 -306 186 -273 q -36 -340 51 -340 q -83 -334 -54 -340 q -132 -321 -112 -328 l -94 -212 q -81 -218 -92 -213 q -53 -228 -70 -224 q -14 -232 -35 -232 q 76 -213 33 -232 q 169 -145 119 -194 q 279 -11 219 -97 l 196 -11 l 152 243 l 78 773 l 224 773 l 281 243 l 309 39 l 378 162 q 544 682 514 380 q 549 773 547 723 l 679 773 z "},"ý":{"ha":712,"x_min":-132,"x_max":680,"o":"m 679 773 q 680 733 680 747 q 678 683 680 709 q 509 155 661 441 q 340 -104 432 10 q 331 -115 332 -115 q 232 -227 278 -182 q 119 -306 186 -273 q -36 -340 51 -340 q -83 -334 -54 -340 q -132 -321 -112 -328 l -94 -212 q -81 -218 -92 -213 q -53 -228 -70 -224 q -14 -232 -35 -232 q 76 -213 33 -232 q 169 -145 119 -194 q 279 -11 219 -97 l 196 -11 l 152 243 l 78 773 l 224 773 l 281 243 l 309 39 l 378 162 q 544 682 514 380 q 549 773 547 723 l 679 773 m 534 1178 l 637 1085 q 577 1012 624 1061 q 474 917 530 962 q 382 858 419 872 l 326 906 l 534 1178 z "},"ŷ":{"ha":712,"x_min":-132,"x_max":680,"o":"m 679 773 q 680 733 680 747 q 678 683 680 709 q 509 155 661 441 q 340 -104 432 10 q 331 -115 332 -115 q 232 -227 278 -182 q 119 -306 186 -273 q -36 -340 51 -340 q -83 -334 -54 -340 q -132 -321 -112 -328 l -94 -212 q -81 -218 -92 -213 q -53 -228 -70 -224 q -14 -232 -35 -232 q 76 -213 33 -232 q 169 -145 119 -194 q 279 -11 219 -97 l 196 -11 l 152 243 l 78 773 l 224 773 l 281 243 l 309 39 l 378 162 q 544 682 514 380 q 549 773 547 723 l 679 773 m 388 1149 l 509 1149 l 637 895 l 574 849 l 431 1028 l 218 843 l 166 895 l 388 1149 z "},"ÿ":{"ha":712,"x_min":-132,"x_max":680,"o":"m 679 773 q 680 733 680 747 q 678 683 680 709 q 509 155 661 441 q 340 -104 432 10 q 331 -115 332 -115 q 232 -227 278 -182 q 119 -306 186 -273 q -36 -340 51 -340 q -83 -334 -54 -340 q -132 -321 -112 -328 l -94 -212 q -81 -218 -92 -213 q -53 -228 -70 -224 q -14 -232 -35 -232 q 76 -213 33 -232 q 169 -145 119 -194 q 279 -11 219 -97 l 196 -11 l 152 243 l 78 773 l 224 773 l 281 243 l 309 39 l 378 162 q 544 682 514 380 q 549 773 547 723 l 679 773 m 170 1022 q 183 1071 170 1048 q 220 1108 197 1095 q 268 1122 243 1122 q 328 1101 304 1122 q 351 1048 351 1079 q 336 997 351 1021 q 298 959 322 973 q 248 944 275 944 q 193 967 216 944 q 170 1022 170 990 m 454 1022 q 468 1071 454 1048 q 505 1108 482 1095 q 553 1122 528 1122 q 612 1101 589 1122 q 635 1048 635 1079 q 621 997 635 1021 q 583 959 607 973 q 532 944 559 944 q 477 967 500 944 q 454 1022 454 990 z "},"ẏ":{"ha":712,"x_min":-132,"x_max":680,"o":"m 679 773 q 680 733 680 747 q 678 683 680 709 q 509 155 661 441 q 340 -104 432 10 q 331 -115 332 -115 q 232 -227 278 -182 q 119 -306 186 -273 q -36 -340 51 -340 q -83 -334 -54 -340 q -132 -321 -112 -328 l -94 -212 q -81 -218 -92 -213 q -53 -228 -70 -224 q -14 -232 -35 -232 q 76 -213 33 -232 q 169 -145 119 -194 q 279 -11 219 -97 l 196 -11 l 152 243 l 78 773 l 224 773 l 281 243 l 309 39 l 378 162 q 544 682 514 380 q 549 773 547 723 l 679 773 m 315 1022 q 329 1071 315 1048 q 366 1108 343 1095 q 414 1122 389 1122 q 473 1101 450 1122 q 496 1048 496 1079 q 482 997 496 1021 q 444 959 468 973 q 393 944 420 944 q 338 967 361 944 q 315 1022 315 990 z "},"ỳ":{"ha":712,"x_min":-132,"x_max":680,"o":"m 679 773 q 680 733 680 747 q 678 683 680 709 q 509 155 661 441 q 340 -104 432 10 q 331 -115 332 -115 q 232 -227 278 -182 q 119 -306 186 -273 q -36 -340 51 -340 q -83 -334 -54 -340 q -132 -321 -112 -328 l -94 -212 q -81 -218 -92 -213 q -53 -228 -70 -224 q -14 -232 -35 -232 q 76 -213 33 -232 q 169 -145 119 -194 q 279 -11 219 -97 l 196 -11 l 152 243 l 78 773 l 224 773 l 281 243 l 309 39 l 378 162 q 544 682 514 380 q 549 773 547 723 l 679 773 m 241 1178 l 436 905 l 378 858 q 301 910 351 869 q 204 1000 251 951 q 137 1085 158 1049 l 241 1178 z "},"z":{"ha":654,"x_min":-19,"x_max":654,"o":"m 153 106 l 557 106 l 547 0 l 20 0 l -19 40 l 374 553 l 482 667 l 117 667 l 132 773 l 622 773 l 654 738 l 250 208 l 153 106 z "},"ź":{"ha":654,"x_min":-19,"x_max":654,"o":"m 546 1175 l 649 1082 q 589 1009 636 1059 q 487 915 542 960 q 394 855 431 869 l 338 903 l 546 1175 m 153 106 l 557 106 l 547 0 l 20 0 l -19 40 l 374 553 l 482 667 l 117 667 l 132 773 l 622 773 l 654 738 l 250 208 l 153 106 z "},"ž":{"ha":654,"x_min":-19,"x_max":688,"o":"m 250 1139 l 420 974 l 633 1139 l 688 1080 l 475 871 l 355 871 l 191 1080 l 250 1139 m 153 106 l 557 106 l 547 0 l 20 0 l -19 40 l 374 553 l 482 667 l 117 667 l 132 773 l 622 773 l 654 738 l 250 208 l 153 106 z "},"ż":{"ha":654,"x_min":-19,"x_max":654,"o":"m 153 106 l 557 106 l 547 0 l 20 0 l -19 40 l 374 553 l 482 667 l 117 667 l 132 773 l 622 773 l 654 738 l 250 208 l 153 106 m 328 1022 q 341 1071 328 1048 q 378 1108 355 1095 q 426 1122 401 1122 q 486 1101 463 1122 q 509 1048 509 1079 q 494 997 509 1021 q 456 959 480 973 q 406 944 433 944 q 351 967 374 944 q 328 1022 328 990 z "},"ﬁ":{"ha":867,"x_min":96,"x_max":861,"o":"m 96 667 l 115 773 l 205 773 l 214 837 q 306 1059 233 978 q 500 1140 379 1140 q 554 1136 530 1140 q 601 1122 578 1133 l 567 1015 q 534 1031 553 1025 q 483 1036 515 1037 q 395 989 429 1036 q 351 876 360 943 l 337 773 l 480 773 l 472 667 l 323 667 l 233 0 l 100 0 l 191 667 l 96 667 m 793 773 l 688 0 l 555 0 l 661 773 l 793 773 m 680 1022 q 693 1071 680 1048 q 730 1108 707 1095 q 778 1122 753 1122 q 838 1101 814 1122 q 861 1048 861 1079 q 846 997 861 1021 q 808 959 832 973 q 758 944 785 944 q 703 967 726 944 q 680 1022 680 990 z "},"ﬂ":{"ha":867,"x_min":96,"x_max":840,"o":"m 96 667 l 115 773 l 205 773 l 214 837 q 306 1059 233 978 q 500 1140 379 1140 q 554 1136 530 1140 q 601 1122 578 1133 l 567 1015 q 534 1031 553 1025 q 483 1036 515 1037 q 395 989 429 1036 q 351 876 360 943 l 337 773 l 480 773 l 472 667 l 323 667 l 233 0 l 100 0 l 191 667 l 96 667 m 840 1111 l 688 3 l 556 3 l 707 1111 l 840 1111 z "},"ª":{"ha":579,"x_min":64,"x_max":592,"o":"m 592 1067 l 493 504 l 380 504 l 396 590 q 323 528 363 552 q 226 504 282 504 q 105 557 146 504 q 64 705 64 610 q 109 877 64 792 q 232 1015 154 961 q 406 1069 311 1069 q 468 1064 435 1069 q 524 1050 500 1058 l 592 1067 m 273 584 q 401 661 323 584 l 454 975 q 423 994 441 987 q 389 1000 405 1000 q 280 957 327 1000 q 207 847 233 913 q 182 715 182 781 q 202 617 182 650 q 273 584 223 584 z "},"º":{"ha":579,"x_min":66,"x_max":585,"o":"m 66 749 q 110 924 66 849 q 222 1038 154 998 q 361 1078 290 1078 q 477 1045 427 1078 q 557 955 528 1013 q 585 823 585 897 q 544 649 585 723 q 434 536 502 575 q 292 497 367 497 q 180 528 231 497 q 97 617 128 559 q 66 749 66 674 m 459 811 q 433 947 459 896 q 356 998 408 998 q 260 960 297 998 q 207 868 223 922 q 191 762 191 814 q 204 667 191 708 q 241 604 218 627 q 295 582 264 582 q 423 650 387 582 q 459 811 459 718 z "},"Δ":{"ha":954,"x_min":-22,"x_max":903,"o":"m 517 1023 l 903 18 l 892 0 l -14 0 l -22 15 l 496 1023 l 517 1023 m 492 728 l 193 115 l 713 115 l 492 728 z "},"Ω":{"ha":1125,"x_min":39,"x_max":1041,"o":"m 1041 615 q 1008 434 1041 532 q 916 250 975 337 q 784 109 857 163 l 1035 109 l 1026 0 l 629 0 l 615 94 q 761 213 694 136 q 867 391 827 290 q 907 602 907 492 q 861 794 907 717 q 743 907 814 871 q 597 943 672 943 q 411 896 492 943 q 284 752 330 848 q 237 511 237 655 q 268 331 237 416 q 346 186 298 247 q 443 94 393 125 l 416 0 l 39 0 l 52 102 l 302 102 q 209 204 254 139 q 135 351 163 269 q 106 515 106 433 q 171 813 106 694 q 350 991 237 933 q 610 1048 463 1048 q 828 994 730 1048 q 984 840 926 939 q 1041 615 1041 741 z "},"μ":{"ha":925,"x_min":82,"x_max":849,"o":"m 82 -252 l 205 577 q 208 613 208 593 q 190 656 208 656 q 158 646 173 656 q 126 620 142 636 l 83 698 q 114 730 91 710 q 174 766 136 749 q 257 783 211 783 q 321 755 296 783 q 347 675 347 728 q 345 646 347 661 q 315 420 333 551 q 290 235 297 289 q 288 211 288 218 q 318 130 288 155 q 395 106 348 106 q 493 143 442 106 q 578 224 543 180 l 651 773 l 783 773 l 704 161 q 703 147 703 157 q 710 117 703 128 q 726 105 717 105 q 763 117 745 105 q 807 154 781 128 l 849 81 q 816 46 840 68 q 756 6 793 24 q 677 -12 720 -12 q 606 12 635 -12 q 573 83 577 35 q 513 30 536 48 q 452 -1 490 12 q 357 -14 413 -14 q 297 2 331 -13 q 251 38 262 16 l 208 -252 l 82 -252 z "},"π":{"ha":1055,"x_min":81,"x_max":984,"o":"m 779 106 q 836 135 806 106 q 883 197 866 164 l 956 163 q 918 81 949 121 q 839 15 887 41 q 736 -11 791 -11 q 631 28 667 -11 q 595 136 595 66 q 597 174 595 156 l 659 648 l 440 648 l 394 290 q 376 171 390 216 q 342 97 363 125 q 285 35 321 69 q 182 -16 245 -1 l 92 66 q 126 80 102 68 q 174 109 151 92 q 228 168 210 135 q 252 235 245 200 q 264 330 258 271 l 315 648 l 281 648 q 210 632 238 648 q 157 588 181 615 l 81 624 q 154 738 100 703 q 304 773 207 773 l 788 773 q 855 785 831 773 q 888 824 879 797 l 984 824 q 928 689 979 731 q 784 648 878 648 l 781 648 l 732 178 q 779 106 729 106 z "},"⁄":{"ha":696,"x_min":96,"x_max":665,"o":"m 665 1038 l 203 0 l 96 0 l 557 1038 l 665 1038 z "},"½":{"ha":1736,"x_min":209,"x_max":1526,"o":"m 213 911 l 209 994 q 313 1029 254 1006 q 423 1077 373 1053 q 491 1116 473 1101 l 538 1101 l 446 431 l 321 431 l 390 946 l 213 911 m 1048 1038 l 586 0 l 478 0 l 940 1038 l 1048 1038 m 952 12 q 1134 122 1033 55 q 1316 269 1236 189 q 1396 419 1396 350 q 1359 503 1396 478 q 1264 528 1323 528 q 1152 505 1206 528 q 1053 435 1098 481 l 1006 498 q 1069 560 1028 529 q 1166 611 1110 591 q 1282 632 1221 632 q 1414 606 1358 632 q 1497 539 1469 580 q 1526 456 1526 498 q 1478 295 1526 366 q 1358 171 1430 225 q 1147 33 1285 117 l 1515 55 l 1510 -53 l 983 -53 l 952 12 z "},"¼":{"ha":1736,"x_min":209,"x_max":1552,"o":"m 538 1101 l 446 431 l 321 431 l 390 946 l 213 911 l 209 994 q 313 1029 254 1006 q 423 1077 373 1053 q 491 1116 473 1101 l 538 1101 m 1048 1038 l 587 0 l 479 0 l 941 1038 l 1048 1038 m 1539 113 l 1360 113 l 1329 -120 l 1191 -120 l 1223 113 l 890 113 l 865 177 l 1276 754 l 1308 754 l 1398 684 l 1065 271 l 1012 209 l 1238 218 l 1262 390 l 1399 406 l 1375 224 l 1552 231 l 1539 113 z "},"¾":{"ha":1736,"x_min":75,"x_max":1552,"o":"m 608 605 q 558 471 608 526 q 429 389 508 416 q 265 362 350 362 q 168 375 224 362 q 75 411 111 388 l 87 484 q 165 459 120 468 q 246 450 210 450 q 348 464 298 450 q 432 510 397 477 q 468 594 467 543 q 438 672 471 642 q 349 703 405 701 l 240 679 l 254 777 q 405 834 344 795 q 467 943 467 873 q 443 1000 467 981 q 368 1019 419 1019 q 178 955 275 1019 l 146 1031 q 410 1115 268 1115 q 520 1096 473 1115 q 592 1044 567 1077 q 617 972 617 1012 q 567 846 617 901 q 439 762 517 792 q 540 738 502 762 q 593 678 578 713 q 608 605 608 642 m 1048 1038 l 586 0 l 478 0 l 940 1038 l 1048 1038 m 1539 113 l 1360 113 l 1329 -120 l 1191 -120 l 1223 113 l 890 113 l 865 177 l 1276 754 l 1308 754 l 1398 684 l 1065 271 l 1012 209 l 1238 218 l 1262 390 l 1399 406 l 1375 224 l 1552 231 l 1539 113 z "},"*":{"ha":926,"x_min":157,"x_max":835,"o":"m 346 747 l 442 780 l 353 812 l 180 894 l 258 1006 l 406 891 l 473 827 l 465 923 l 466 1121 l 596 1121 l 556 923 l 527 827 l 608 891 l 783 1007 l 835 894 l 646 812 l 549 779 l 639 747 l 812 666 l 734 553 l 585 669 l 517 735 l 528 637 l 528 439 l 395 439 l 435 637 l 463 735 l 383 669 l 209 553 l 157 666 l 346 747 z "},"\\":{"ha":579,"x_min":18,"x_max":526,"o":"m 135 1083 l 18 1083 l 408 -245 l 526 -245 l 135 1083 z "},"·":{"ha":465,"x_min":141,"x_max":328,"o":"m 248 608 q 308 586 288 608 q 328 532 328 564 q 299 452 328 481 q 222 423 271 423 q 164 445 188 423 q 141 499 141 466 q 154 552 141 528 q 192 592 168 577 q 248 608 216 608 z "},"•":{"ha":582,"x_min":158,"x_max":448,"o":"m 158 463 q 181 545 158 504 q 243 611 203 585 q 328 637 282 637 q 389 622 362 637 q 432 580 416 606 q 448 520 448 553 q 426 438 448 479 q 366 370 405 397 q 277 344 327 344 q 217 360 244 344 q 174 403 189 376 q 158 463 158 431 z "},":":{"ha":357,"x_min":46,"x_max":296,"o":"m 153 170 q 213 148 193 170 q 233 94 233 126 q 204 14 233 43 q 127 -15 176 -15 q 70 6 93 -15 q 46 61 46 28 q 59 114 46 90 q 97 154 73 139 q 153 170 121 170 m 216 718 q 276 696 256 718 q 296 642 296 675 q 268 563 296 592 q 190 534 239 534 q 133 555 156 534 q 109 610 109 576 q 122 663 109 638 q 160 703 136 688 q 216 718 184 718 z "},",":{"ha":357,"x_min":-8,"x_max":253,"o":"m 52 93 l 123 180 q 223 95 194 153 q 253 -28 253 36 q 226 -164 253 -102 q 152 -272 199 -227 q 41 -340 104 -317 l -8 -279 l -6 -265 q 79 -188 46 -239 q 112 -73 112 -136 q 94 10 112 -27 q 47 56 76 47 l 52 93 z "},"…":{"ha":1071,"x_min":59,"x_max":962,"o":"m 167 170 q 229 150 208 170 q 249 99 249 130 q 248 85 249 90 q 228 33 244 56 q 186 -2 211 10 q 134 -15 161 -15 q 80 4 100 -15 q 59 56 59 23 q 74 113 59 87 q 115 154 90 139 q 167 170 140 170 m 524 170 q 585 150 565 170 q 606 99 606 130 q 605 85 606 90 q 584 33 601 56 q 543 -2 568 10 q 491 -15 518 -15 q 436 4 457 -15 q 416 56 416 23 q 431 113 416 87 q 471 154 446 139 q 524 170 496 170 m 880 170 q 942 150 922 170 q 962 99 962 130 q 962 85 962 90 q 941 33 958 56 q 900 -2 924 10 q 848 -15 875 -15 q 793 4 814 -15 q 772 56 772 23 q 788 113 772 87 q 828 154 803 139 q 880 170 853 170 z "},"!":{"ha":465,"x_min":88,"x_max":425,"o":"m 425 1206 l 274 331 l 167 331 l 273 1206 l 425 1206 m 209 170 q 270 150 250 170 q 290 99 290 130 q 290 85 290 90 q 249 13 283 40 q 170 -15 215 -15 q 112 5 135 -15 q 88 58 88 25 q 105 114 88 88 q 151 155 123 140 q 209 170 178 170 z "},"‼":{"ha":884,"x_min":88,"x_max":844,"o":"m 844 1206 l 692 331 l 585 331 l 691 1206 l 844 1206 m 627 170 q 688 150 668 170 q 709 99 709 130 q 708 85 709 90 q 668 13 702 40 q 588 -15 633 -15 q 530 5 553 -15 q 507 58 507 25 q 524 114 507 88 q 569 155 541 140 q 627 170 597 170 m 425 1206 l 274 331 l 167 331 l 273 1206 l 425 1206 m 209 170 q 270 150 250 170 q 290 99 290 130 q 290 85 290 90 q 249 13 283 40 q 170 -15 215 -15 q 112 5 135 -15 q 88 58 88 25 q 105 114 88 88 q 151 155 123 140 q 209 170 178 170 z "},"¡":{"ha":465,"x_min":63,"x_max":400,"o":"m 279 742 q 218 762 239 742 q 198 812 198 781 q 199 827 198 822 q 239 899 205 871 q 319 926 273 926 q 377 906 353 926 q 400 853 400 886 q 383 798 400 823 q 338 757 366 772 q 279 742 310 742 m 63 -294 l 214 581 l 321 581 l 216 -294 l 63 -294 z "},"#":{"ha":953,"x_min":75,"x_max":886,"o":"m 75 248 l 81 334 l 234 334 l 277 609 l 128 609 l 134 695 l 291 695 l 327 920 l 439 920 l 404 695 l 615 695 l 653 920 l 765 920 l 728 695 l 886 695 l 880 609 l 715 609 l 671 334 l 825 334 l 819 248 l 657 248 l 618 0 l 510 0 l 545 248 l 333 248 l 291 0 l 181 0 l 220 248 l 75 248 m 602 609 l 391 609 l 347 334 l 558 334 l 602 609 z "},".":{"ha":357,"x_min":60,"x_max":248,"o":"m 167 170 q 228 148 208 170 q 248 94 248 126 q 219 14 248 43 q 141 -15 190 -15 q 84 6 107 -15 q 60 61 60 28 q 74 114 60 90 q 111 154 87 139 q 167 170 136 170 z "},"?":{"ha":692,"x_min":182,"x_max":680,"o":"m 182 469 q 230 575 182 528 q 378 678 277 623 q 496 751 450 715 q 551 828 542 787 q 557 893 557 853 q 524 1004 557 958 q 439 1074 491 1050 q 330 1098 387 1098 q 255 1093 287 1098 q 183 1076 223 1088 l 202 1171 q 258 1196 216 1185 q 340 1206 299 1206 q 534 1165 458 1206 q 645 1058 610 1124 q 680 914 680 991 q 647 770 680 829 q 569 678 614 712 q 452 605 524 644 q 376 559 404 578 q 330 515 348 541 q 311 456 311 490 q 317 418 311 438 q 332 374 323 398 q 341 348 340 354 l 255 314 l 243 315 q 200 380 218 336 q 182 469 182 424 m 333 170 q 394 148 374 170 q 414 94 414 126 q 385 14 414 43 q 307 -15 356 -15 q 250 6 273 -15 q 227 61 227 28 q 240 114 227 90 q 277 154 253 139 q 333 170 302 170 z "},"¿":{"ha":697,"x_min":59,"x_max":556,"o":"m 325 865 q 354 945 325 916 q 431 974 382 974 q 489 952 465 974 q 512 898 512 931 q 499 845 512 869 q 461 805 486 820 q 406 789 437 789 q 345 811 365 789 q 325 865 325 833 m 408 -139 q 484 -134 452 -139 q 555 -117 515 -130 l 536 -212 q 481 -237 522 -227 q 399 -248 439 -248 q 204 -206 281 -248 q 94 -99 128 -165 q 59 45 59 -33 q 92 189 59 130 q 170 281 124 247 q 286 354 215 315 q 363 399 335 380 q 409 444 391 418 q 427 503 427 469 q 421 541 427 521 q 406 585 416 561 q 397 611 399 605 l 484 645 l 495 644 q 538 579 520 623 q 556 490 556 535 q 509 384 556 431 q 360 281 462 336 q 243 208 289 244 q 188 131 197 172 q 182 66 182 106 q 215 -45 182 1 q 299 -115 248 -92 q 408 -139 351 -139 z "},"\"":{"ha":680,"x_min":152,"x_max":683,"o":"m 358 1144 l 247 655 l 152 655 l 204 1144 l 358 1144 m 683 1144 l 572 655 l 477 655 l 529 1144 l 683 1144 z "},"'":{"ha":355,"x_min":152,"x_max":358,"o":"m 358 1144 l 247 655 l 152 655 l 204 1144 l 358 1144 z "},";":{"ha":357,"x_min":-8,"x_max":298,"o":"m 52 93 l 123 180 q 223 95 194 153 q 253 -28 253 36 q 226 -164 253 -102 q 152 -272 199 -227 q 41 -340 104 -317 l -8 -279 l -6 -265 q 79 -188 46 -239 q 112 -73 112 -136 q 94 10 112 -27 q 47 56 76 47 l 52 93 m 218 718 q 278 696 258 718 q 298 642 298 675 q 270 563 298 592 q 192 534 241 534 q 135 555 158 534 q 111 610 111 576 q 124 663 111 638 q 162 703 138 688 q 218 718 186 718 z "},"/":{"ha":579,"x_min":-63,"x_max":639,"o":"m 521 1083 l 639 1083 l 54 -245 l -63 -245 l 521 1083 z "},"_":{"ha":905,"x_min":-75,"x_max":873,"o":"m 859 -229 l -75 -229 l -62 -127 l 873 -127 l 859 -229 z "},"{":{"ha":694,"x_min":109,"x_max":683,"o":"m 256 393 q 247 415 256 404 q 220 438 237 427 q 169 465 199 452 q 109 484 139 477 l 121 568 q 251 612 207 589 q 295 655 292 633 l 347 1006 q 375 1111 358 1075 q 422 1162 391 1147 q 507 1177 452 1177 q 573 1170 534 1177 q 643 1155 612 1162 q 683 1145 674 1147 q 678 1116 682 1137 q 674 1086 675 1094 l 487 1086 l 422 658 q 401 612 418 632 q 355 574 385 592 q 307 549 343 566 q 257 526 270 532 q 353 464 330 488 q 382 401 382 434 q 381 390 382 394 l 317 -37 l 503 -37 q 498 -70 501 -51 q 495 -97 496 -89 q 398 -121 437 -114 q 309 -129 359 -129 q 240 -120 265 -129 q 205 -90 216 -111 q 195 -32 194 -69 q 221 155 195 -20 q 256 393 246 329 z "},"}":{"ha":694,"x_min":45,"x_max":619,"o":"m 472 656 q 481 633 472 645 q 507 610 490 621 q 559 584 529 596 q 619 564 589 572 l 607 480 q 477 436 521 459 q 433 393 436 415 l 380 43 q 353 -62 370 -26 q 306 -113 336 -98 q 221 -128 275 -128 q 155 -121 194 -128 q 85 -106 116 -114 q 45 -96 54 -99 q 50 -67 46 -89 q 54 -37 53 -45 l 241 -37 l 306 391 q 327 436 310 416 q 372 475 343 456 q 421 499 385 482 q 471 522 458 517 q 374 585 397 561 q 346 648 346 614 q 347 659 346 654 l 411 1086 l 224 1086 q 229 1118 227 1099 q 233 1145 232 1137 q 330 1170 291 1162 q 419 1177 369 1177 q 487 1168 463 1177 q 523 1139 512 1160 q 533 1080 534 1118 q 507 894 532 1068 q 472 656 481 720 z "},"[":{"ha":579,"x_min":122,"x_max":591,"o":"m 258 1006 q 283 1109 267 1073 q 330 1161 299 1145 q 414 1177 360 1177 q 480 1170 441 1177 q 551 1155 519 1162 q 591 1145 582 1147 l 582 1086 l 395 1086 l 244 -37 l 338 -38 q 431 -39 370 -39 q 424 -97 428 -56 q 327 -121 365 -114 q 239 -129 288 -129 q 170 -120 195 -129 q 133 -90 144 -111 q 122 -32 122 -69 q 125 43 122 7 q 150 288 131 149 q 204 643 170 427 q 258 1006 243 894 z "},"]":{"ha":579,"x_min":31,"x_max":499,"o":"m 363 50 q 338 -54 354 -18 q 292 -106 322 -90 q 207 -121 261 -121 q 141 -114 180 -121 q 71 -100 102 -107 q 31 -90 39 -92 l 39 -31 l 226 -31 l 377 1093 l 283 1093 q 191 1094 252 1094 q 197 1152 193 1112 q 295 1177 256 1169 q 382 1184 333 1184 q 452 1175 427 1184 q 488 1145 477 1166 q 499 1087 499 1124 q 496 1013 499 1048 q 471 768 490 907 q 417 412 452 629 q 363 50 378 161 z "},"(":{"ha":579,"x_min":138,"x_max":620,"o":"m 148 491 q 253 817 172 668 q 424 1060 335 965 q 561 1181 513 1155 l 620 1141 q 515 1034 582 1116 q 385 819 448 951 q 292 524 321 686 q 279 347 279 422 q 310 101 279 211 q 381 -78 340 -9 q 453 -173 422 -146 l 380 -216 l 368 -216 q 277 -122 330 -191 q 181 66 224 -53 q 138 342 138 185 q 148 491 138 413 z "},")":{"ha":579,"x_min":-26,"x_max":456,"o":"m 446 477 q 340 152 422 300 q 169 -92 258 3 q 33 -212 80 -186 l -26 -172 q 78 -65 12 -148 q 209 150 145 18 q 301 444 273 282 q 315 621 315 547 q 284 867 315 758 q 212 1046 253 977 q 140 1141 172 1115 l 214 1185 l 225 1185 q 316 1090 263 1159 q 413 902 370 1021 q 456 626 456 783 q 446 477 456 556 z "},"—":{"ha":1377,"x_min":148,"x_max":1246,"o":"m 1246 577 l 1226 471 l 148 471 l 168 577 l 1246 577 z "},"–":{"ha":1043,"x_min":148,"x_max":912,"o":"m 912 577 l 892 471 l 148 471 l 168 577 l 912 577 z "},"-":{"ha":859,"x_min":148,"x_max":728,"o":"m 728 577 l 715 470 l 148 470 l 160 577 l 728 577 z "},"«":{"ha":1274,"x_min":166,"x_max":1135,"o":"m 650 736 l 676 659 l 330 417 l 611 179 l 564 103 l 166 359 l 181 468 l 650 736 m 1109 736 l 1135 659 l 789 417 l 1069 179 l 1022 103 l 625 359 l 640 468 l 1109 736 z "},"»":{"ha":1274,"x_min":148,"x_max":1116,"o":"m 174 103 l 148 181 l 494 422 l 213 661 l 260 736 l 658 480 l 643 372 l 174 103 m 632 103 l 606 181 l 952 422 l 671 661 l 719 736 l 1116 480 l 1101 372 l 632 103 z "},"‹":{"ha":807,"x_min":159,"x_max":669,"o":"m 643 736 l 669 659 l 323 417 l 604 179 l 556 103 l 159 359 l 174 468 l 643 736 z "},"›":{"ha":807,"x_min":119,"x_max":629,"o":"m 144 103 l 119 181 l 465 422 l 184 661 l 231 736 l 629 480 l 614 372 l 144 103 z "},"„":{"ha":787,"x_min":68,"x_max":656,"o":"m 332 -22 q 298 -178 332 -111 q 217 -288 265 -245 q 119 -355 170 -330 l 68 -279 l 69 -264 q 121 -220 94 -252 q 166 -145 148 -189 q 184 -50 184 -100 q 169 28 184 -8 q 122 91 153 64 l 125 119 l 208 197 q 266 153 237 185 q 313 76 294 121 q 332 -22 332 30 m 656 -22 q 623 -178 656 -111 q 542 -288 590 -245 q 444 -355 494 -330 l 393 -279 l 394 -264 q 446 -220 419 -252 q 491 -145 473 -189 q 509 -50 509 -100 q 494 28 509 -8 q 447 91 478 64 l 450 119 l 533 197 q 591 153 562 185 q 638 76 619 121 q 656 -22 656 30 z "},"“":{"ha":787,"x_min":128,"x_max":717,"o":"m 453 848 q 486 1004 453 937 q 567 1114 519 1072 q 666 1181 615 1156 l 717 1105 l 715 1090 q 664 1046 690 1078 q 618 971 637 1015 q 600 876 600 926 q 616 798 600 834 q 663 735 631 762 l 659 707 l 576 629 q 519 673 547 641 q 472 750 490 705 q 453 848 453 796 m 128 848 q 161 1004 128 937 q 242 1114 195 1072 q 341 1181 290 1156 l 392 1105 l 391 1090 q 339 1046 366 1078 q 294 971 312 1015 q 275 876 275 926 q 291 798 275 834 q 338 735 307 762 l 334 707 l 252 629 q 194 673 222 641 q 147 750 165 705 q 128 848 128 796 z "},"”":{"ha":787,"x_min":193,"x_max":781,"o":"m 456 954 q 423 798 456 865 q 342 688 390 730 q 243 621 294 646 l 193 696 l 194 711 q 246 755 219 724 q 291 831 273 787 q 309 926 309 876 q 294 1004 309 968 q 247 1067 278 1040 l 250 1095 l 333 1173 q 391 1129 362 1161 q 438 1052 419 1097 q 456 954 456 1006 m 781 954 q 748 798 781 865 q 667 688 715 730 q 568 621 619 646 l 517 696 l 519 711 q 571 755 544 724 q 616 831 597 787 q 634 926 634 876 q 618 1004 634 968 q 572 1067 603 1040 l 575 1095 l 658 1173 q 715 1129 687 1161 q 763 1052 744 1097 q 781 954 781 1006 z "},"‘":{"ha":463,"x_min":128,"x_max":392,"o":"m 128 848 q 161 1004 128 937 q 242 1114 195 1072 q 341 1181 290 1156 l 392 1105 l 391 1090 q 339 1046 366 1078 q 294 971 312 1015 q 275 876 275 926 q 291 798 275 834 q 338 735 307 762 l 334 707 l 252 629 q 194 673 222 641 q 147 750 165 705 q 128 848 128 796 z "},"‛":{"ha":463,"x_min":127,"x_max":376,"o":"m 140 985 q 184 1074 154 1034 q 250 1136 214 1113 q 317 1164 286 1160 l 376 1066 l 372 1038 q 310 990 335 1021 q 275 920 286 959 q 267 851 267 885 q 286 750 267 797 q 330 682 305 704 l 328 667 l 258 608 q 166 724 205 654 q 127 884 127 795 q 140 985 127 935 z "},"’":{"ha":463,"x_min":145,"x_max":409,"o":"m 409 954 q 376 798 409 865 q 295 688 342 730 q 196 621 247 646 l 145 696 l 146 711 q 198 755 172 724 q 243 831 225 787 q 262 926 262 876 q 246 1004 262 968 q 199 1067 231 1040 l 203 1095 l 286 1173 q 343 1129 315 1161 q 390 1052 372 1097 q 409 954 409 1006 z "},"‚":{"ha":463,"x_min":68,"x_max":332,"o":"m 332 -22 q 298 -178 332 -111 q 217 -288 265 -245 q 119 -355 170 -330 l 68 -279 l 69 -264 q 121 -220 94 -252 q 166 -145 148 -189 q 184 -50 184 -100 q 169 28 184 -8 q 122 91 153 64 l 125 119 l 208 197 q 266 153 237 185 q 313 76 294 121 q 332 -22 332 30 z "}," ":{"ha":329,"x_min":0,"x_max":0,"o":"z "},"₵":{"ha":945,"x_min":98,"x_max":877,"o":"m 410 -7 q 234 74 304 7 q 131 238 163 141 q 98 441 98 334 q 157 731 98 602 q 319 940 215 860 q 559 1042 424 1021 l 585 1231 l 684 1231 l 659 1048 q 775 1038 726 1048 q 877 1012 825 1028 l 833 901 q 768 930 819 917 q 644 945 717 944 l 524 92 q 657 114 602 96 q 763 163 712 132 l 802 76 q 688 17 764 39 q 509 -10 611 -5 l 477 -239 l 378 -239 l 410 -7 m 245 444 q 289 212 245 303 q 425 98 332 120 l 544 937 q 382 854 450 918 q 280 686 315 790 q 245 444 245 582 z "},"¢":{"ha":717,"x_min":93,"x_max":635,"o":"m 475 684 q 359 635 416 684 q 265 499 302 586 q 228 308 228 413 q 263 140 228 191 q 369 90 298 90 q 454 112 413 90 q 547 184 496 134 l 591 113 q 502 34 560 71 q 372 -10 444 -4 l 347 -146 l 245 -146 l 271 -1 q 139 98 184 22 q 93 294 93 174 q 129 496 93 393 q 237 675 165 599 q 408 775 309 752 l 444 921 l 546 921 l 511 783 q 579 776 547 782 q 635 758 612 770 l 601 645 q 545 675 576 666 q 475 684 513 684 z "},"₡":{"ha":904,"x_min":100,"x_max":880,"o":"m 467 -11 l 466 -11 q 376 -1 417 -11 l 328 -239 l 249 -239 l 303 26 q 188 128 234 62 q 121 274 142 193 q 100 441 100 355 q 151 715 100 592 q 294 919 202 838 q 508 1031 387 1000 l 549 1231 l 628 1231 l 590 1045 q 652 1048 624 1048 q 683 1048 673 1048 l 720 1231 l 799 1231 l 760 1040 q 880 1012 814 1032 l 836 901 q 801 921 827 911 q 739 937 776 930 l 568 95 q 675 119 629 102 q 766 163 722 136 l 804 76 q 703 21 770 43 q 547 -8 636 -1 l 499 -239 l 420 -239 l 467 -11 m 630 945 q 569 941 598 945 l 398 106 q 486 91 437 91 l 488 91 l 662 945 q 630 945 652 945 m 247 441 q 267 273 247 347 q 329 153 287 199 l 485 919 q 309 750 370 872 q 247 441 247 627 z "},"¤":{"ha":1044,"x_min":155,"x_max":909,"o":"m 829 468 q 815 379 829 422 q 777 300 802 336 l 908 168 l 831 92 l 699 223 q 530 171 623 171 q 444 183 486 171 q 366 220 401 196 l 235 88 l 157 165 l 288 295 q 246 376 260 332 q 232 468 232 420 q 246 558 232 515 q 286 639 260 602 l 155 770 l 232 847 l 363 715 q 530 765 439 765 q 622 751 578 765 q 704 710 667 736 l 833 838 l 909 761 l 780 631 q 816 554 804 595 q 829 468 829 512 m 530 261 q 630 289 585 261 q 702 365 675 317 q 728 468 728 412 q 702 571 728 524 q 630 647 675 618 q 530 675 585 675 q 431 647 476 675 q 359 571 385 618 q 332 468 332 524 q 359 365 332 412 q 431 289 385 317 q 530 261 476 261 z "},"$":{"ha":817,"x_min":87,"x_max":740,"o":"m 578 1044 q 740 990 680 1033 l 697 888 q 616 931 668 918 q 516 945 564 945 q 385 915 440 945 q 326 806 330 884 q 339 715 324 752 q 388 647 355 678 q 485 572 421 616 q 591 491 548 530 q 664 399 635 452 q 692 279 692 347 q 656 134 692 196 q 555 36 620 73 q 406 -12 491 -1 l 382 -156 l 260 -156 l 283 -13 q 163 11 218 -7 q 87 46 108 28 l 125 155 q 172 125 138 140 q 252 100 207 110 q 337 90 296 90 q 444 106 395 90 q 523 160 492 123 q 553 253 553 197 q 520 362 553 312 q 406 465 487 412 q 296 549 342 507 q 221 648 251 591 q 192 777 192 705 q 225 910 192 853 q 318 1002 258 968 q 456 1045 378 1036 l 477 1173 l 600 1173 l 578 1044 z "},"₫":{"ha":905,"x_min":31,"x_max":975,"o":"m 680 1031 l 697 1149 l 830 1149 l 814 1031 l 975 1031 l 959 930 l 800 930 l 696 197 l 595 197 q 583 216 583 197 q 589 272 583 219 q 367 197 500 197 q 243 224 298 197 q 156 305 188 251 q 124 438 124 359 q 173 643 124 549 q 311 791 221 736 q 522 846 401 846 q 648 816 591 846 l 665 930 l 479 930 l 495 1031 l 680 1031 m 503 735 q 372 696 425 735 q 292 595 318 656 q 265 467 265 533 q 296 350 265 389 q 386 311 328 311 q 504 329 463 311 q 560 363 544 348 q 581 382 576 379 l 627 709 q 586 726 618 718 q 503 735 553 735 m 799 121 l 781 0 l 31 0 l 50 121 l 799 121 z "},"€":{"ha":942,"x_min":17,"x_max":844,"o":"m 631 1048 q 718 1043 680 1048 q 780 1031 756 1038 q 844 1012 804 1025 l 800 904 q 729 934 785 920 q 594 948 673 948 q 430 884 496 948 q 329 701 363 821 l 696 701 l 684 606 l 309 606 q 296 471 299 546 l 666 471 l 653 376 l 296 376 q 490 89 309 89 q 627 109 572 89 q 736 168 682 130 l 774 75 q 657 12 739 35 q 470 -11 576 -11 q 303 43 371 -11 q 199 184 235 97 q 155 376 163 272 l 17 376 l 31 471 l 153 471 q 167 606 155 542 l 47 606 l 61 701 l 192 701 q 292 887 228 808 q 444 1007 357 965 q 631 1048 530 1048 z "},"ƒ":{"ha":718,"x_min":132,"x_max":690,"o":"m 132 677 l 141 747 l 294 783 l 301 834 q 359 999 314 930 q 466 1103 405 1067 q 585 1138 527 1138 q 654 1134 626 1138 q 690 1126 682 1131 l 683 1011 q 645 1026 666 1020 q 583 1032 623 1032 q 514 1021 542 1032 q 467 975 487 1009 q 439 873 448 940 l 427 783 l 612 783 l 602 677 l 412 677 l 293 -241 l 159 -241 l 280 677 l 132 677 z "},"₣":{"ha":833,"x_min":24,"x_max":818,"o":"m 189 312 l 281 1038 l 818 1038 l 808 928 l 406 933 l 361 580 l 679 585 l 670 468 l 349 479 l 328 312 l 537 312 l 524 203 l 313 203 l 288 0 l 149 0 l 174 203 l 24 203 l 37 312 l 189 312 z "},"₲":{"ha":1011,"x_min":128,"x_max":902,"o":"m 902 1002 l 860 877 q 769 918 830 900 q 627 937 709 937 q 425 862 505 937 q 307 675 344 787 q 269 450 269 563 q 291 277 269 357 q 363 147 313 197 q 494 97 413 97 q 600 110 542 97 q 711 146 659 123 l 742 387 l 585 387 l 598 498 l 892 498 l 836 63 q 743 41 806 60 l 719 34 q 633 11 667 19 q 560 -4 600 2 l 534 -175 l 414 -175 l 439 -9 q 262 66 332 0 q 160 231 193 132 q 128 439 128 330 q 185 735 128 604 q 342 947 242 867 q 567 1044 441 1027 l 588 1196 l 709 1196 l 688 1046 q 792 1033 748 1043 q 875 1010 837 1023 l 902 1002 z "},"₤":{"ha":1018,"x_min":21,"x_max":931,"o":"m 318 672 q 379 859 334 774 q 503 996 425 944 q 691 1048 581 1048 q 790 1036 739 1048 q 871 992 842 1023 l 812 897 q 786 917 805 905 q 738 940 768 930 q 671 949 707 949 q 579 927 618 949 q 510 844 541 905 q 458 672 479 783 l 711 672 l 699 578 l 442 578 l 427 489 l 671 489 l 658 395 l 410 395 q 373 254 393 304 q 313 142 353 203 l 347 131 q 468 97 416 109 q 574 85 519 85 q 740 122 691 85 q 789 226 789 159 q 771 287 789 254 q 728 333 753 319 l 836 415 q 904 333 878 382 q 931 231 931 283 q 594 -14 931 -14 q 475 -1 530 -14 q 341 37 420 12 q 235 68 271 60 q 164 10 208 33 q 80 -14 121 -14 q 39 0 56 -14 q 21 41 21 14 q 66 112 21 79 q 193 160 111 144 q 238 231 223 184 q 261 334 254 278 l 271 395 l 109 395 l 122 489 l 288 489 l 302 578 l 149 578 l 162 672 l 318 672 z "},"₺":{"ha":1004,"x_min":101,"x_max":954,"o":"m 334 745 l 375 1042 l 518 1042 l 485 807 l 833 951 l 817 830 l 468 686 l 448 540 l 781 676 l 765 562 l 431 426 l 389 122 l 389 121 l 389 121 q 581 160 492 121 q 731 281 669 199 q 810 488 792 363 l 954 488 l 948 450 q 848 213 929 315 q 642 55 766 111 q 372 0 517 0 l 229 0 l 280 364 l 101 291 l 117 405 l 296 478 l 317 623 l 130 547 l 146 667 l 334 745 z "},"₦":{"ha":1266,"x_min":33,"x_max":1293,"o":"m 33 316 l 47 416 l 239 416 l 267 614 l 78 614 l 92 714 l 280 714 l 325 1032 l 446 1032 l 618 714 l 965 714 l 1010 1032 l 1139 1032 l 1095 714 l 1293 714 l 1280 614 l 1081 614 l 1053 416 l 1242 416 l 1229 316 l 1039 316 l 995 0 l 877 0 l 704 316 l 355 316 l 311 0 l 180 0 l 224 316 l 33 316 m 425 840 l 410 714 l 489 714 l 425 840 m 541 614 l 397 614 l 369 416 l 650 416 l 541 614 m 781 416 l 923 416 l 951 614 l 673 614 l 781 416 m 893 178 l 910 316 l 831 316 l 893 178 z "},"₧":{"ha":1002,"x_min":90,"x_max":1028,"o":"m 239 748 l 275 1038 l 355 1038 q 457 1043 388 1038 q 572 1048 532 1048 q 803 982 723 1048 q 883 781 882 916 q 882 748 883 759 l 1028 748 l 1015 648 l 869 648 q 789 489 846 556 q 649 387 732 422 q 465 351 566 351 q 328 357 363 351 l 283 0 l 144 0 l 226 648 l 90 648 l 104 748 l 239 748 m 743 769 q 549 945 747 945 q 474 941 520 945 q 400 931 429 937 l 377 748 l 742 748 l 743 769 m 342 469 q 397 462 359 465 q 462 459 434 459 q 637 507 572 459 q 728 648 703 554 l 364 648 l 342 469 z "},"₱":{"ha":999,"x_min":94,"x_max":1034,"o":"m 250 838 l 275 1038 l 354 1038 q 455 1043 386 1038 q 568 1048 528 1048 q 780 996 702 1048 q 876 838 859 944 l 1034 838 l 1024 766 l 880 766 q 862 635 879 694 l 1013 635 l 1003 562 l 834 562 q 686 405 783 461 q 463 349 589 349 q 380 351 417 349 q 327 356 342 353 l 281 0 l 143 0 l 214 562 l 94 562 l 104 635 l 224 635 l 240 766 l 115 766 l 125 838 l 250 838 m 546 945 q 472 941 518 945 q 399 932 427 937 l 387 838 l 732 838 q 546 945 701 945 m 721 635 q 740 766 738 690 l 378 766 l 361 635 l 721 635 m 340 468 q 394 461 357 465 q 459 458 431 458 q 688 562 620 458 l 353 562 l 340 468 z "},"₹":{"ha":945,"x_min":100,"x_max":918,"o":"m 918 1038 l 903 929 l 751 929 q 786 795 784 869 l 916 795 l 901 687 l 775 687 q 566 456 736 524 q 617 374 596 425 q 668 235 639 323 q 718 95 696 149 q 771 0 741 41 l 608 0 q 570 44 588 0 q 525 181 553 87 q 473 339 495 281 q 424 425 451 397 q 244 417 334 417 q 157 419 197 417 q 100 423 117 421 l 113 534 q 205 531 133 532 q 361 530 277 530 q 523 570 455 530 q 623 687 591 610 l 137 687 l 152 795 l 644 795 q 645 814 645 802 q 632 879 645 848 q 589 929 619 911 l 138 929 l 153 1038 l 918 1038 z "},"₪":{"ha":1248,"x_min":106,"x_max":1164,"o":"m 251 1032 l 694 1032 q 851 979 808 1032 q 895 834 895 926 q 888 747 895 800 l 806 249 l 676 249 l 759 752 q 762 800 762 781 q 748 873 762 845 q 700 914 733 901 q 612 927 667 927 l 363 927 l 230 0 l 106 0 l 251 1032 m 1020 0 l 629 0 q 449 45 515 0 q 383 188 383 91 q 385 221 383 204 l 472 791 l 602 791 l 512 228 q 511 205 511 212 q 532 144 511 165 q 600 113 554 122 q 723 104 645 104 l 907 104 q 934 307 920 212 q 975 573 948 401 q 1015 823 1000 720 q 1042 1032 1030 925 l 1164 1032 l 1020 0 z "},"£":{"ha":928,"x_min":-7,"x_max":868,"o":"m 773 407 q 842 325 815 373 q 868 223 868 276 q 557 -14 868 -14 q 404 4 474 -14 q 242 55 333 22 l 201 69 q 131 10 174 33 q 46 -14 87 -14 q -7 35 -7 -14 q -5 50 -7 39 q 24 99 -2 73 q 86 141 50 125 q 154 158 123 158 q 204 233 185 182 q 229 334 222 283 l 258 505 l 138 505 l 150 593 l 273 593 l 283 655 q 342 850 298 761 q 467 993 387 939 q 658 1048 546 1048 q 763 1037 722 1048 q 835 992 804 1025 l 772 897 q 750 920 768 907 q 704 942 732 932 q 638 952 675 952 q 551 924 594 952 q 473 830 509 896 q 420 656 438 764 l 410 593 l 620 593 l 608 505 l 393 505 l 388 472 q 360 323 372 374 q 331 234 348 272 q 282 147 314 196 q 340 127 313 137 q 447 93 403 104 q 540 82 491 82 q 685 117 642 82 q 728 218 728 151 q 710 279 728 245 q 667 326 692 312 l 773 407 z "},"₩":{"ha":1318,"x_min":31,"x_max":1341,"o":"m 194 692 l 142 1038 l 281 1038 l 324 692 l 591 692 l 667 888 l 650 1038 l 783 1038 l 819 692 l 1069 692 l 1201 1038 l 1341 1038 l 1200 692 l 1333 692 l 1322 602 l 1164 602 l 1102 450 l 1302 450 l 1291 361 l 1065 361 l 916 -7 l 772 -7 l 732 361 l 583 361 l 441 -7 l 298 -7 l 243 361 l 31 361 l 42 450 l 230 450 l 208 602 l 62 602 l 74 692 l 194 692 m 496 450 l 555 602 l 336 602 l 355 450 l 496 450 m 616 450 l 722 450 l 709 568 l 706 602 l 673 602 l 662 568 l 616 450 m 978 450 l 1036 602 l 829 602 l 845 450 l 978 450 m 395 152 l 437 298 l 461 361 l 366 361 l 374 299 l 395 152 m 871 152 l 920 298 l 944 361 l 854 361 l 861 299 l 871 152 z "},"¥":{"ha":1006,"x_min":156,"x_max":977,"o":"m 639 585 l 881 585 l 869 496 l 583 496 l 566 343 l 849 343 l 838 255 l 555 255 l 525 0 l 405 0 l 435 255 l 156 255 l 168 343 l 446 343 l 464 496 l 188 496 l 199 585 l 435 585 l 220 1038 l 351 1038 l 523 661 l 551 586 l 595 667 l 845 1038 l 977 1038 l 639 585 z "},"Ω":{"ha":1125,"x_min":39,"x_max":1041,"o":"m 1041 615 q 1008 434 1041 532 q 916 250 975 337 q 784 109 857 163 l 1035 109 l 1026 0 l 629 0 l 615 94 q 761 213 694 136 q 867 391 827 290 q 907 602 907 492 q 861 794 907 717 q 743 907 814 871 q 597 943 672 943 q 411 896 492 943 q 284 752 330 848 q 237 511 237 655 q 268 331 237 416 q 346 186 298 247 q 443 94 393 125 l 416 0 l 39 0 l 52 102 l 302 102 q 209 204 254 139 q 135 351 163 269 q 106 515 106 433 q 171 813 106 694 q 350 991 237 933 q 610 1048 463 1048 q 828 994 730 1048 q 984 840 926 939 q 1041 615 1041 741 z "},"≈":{"ha":721,"x_min":37,"x_max":700,"o":"m 37 280 q 80 347 49 314 q 156 401 111 380 q 249 422 200 422 q 315 406 286 422 q 383 357 344 389 q 436 319 414 332 q 481 306 457 306 q 618 385 564 306 l 666 336 q 625 266 656 299 q 549 213 594 233 q 454 193 504 193 q 388 210 417 193 q 321 258 359 226 q 268 297 290 284 q 222 310 247 310 q 85 231 139 310 l 37 280 m 71 583 q 114 649 83 616 q 190 704 145 682 q 283 725 234 725 q 349 708 319 725 q 417 660 378 692 q 470 621 448 634 q 515 608 491 608 q 652 688 598 608 l 700 638 q 659 569 690 602 q 583 516 628 536 q 488 496 538 496 q 422 512 451 496 q 355 560 393 528 q 302 600 323 587 q 256 612 281 612 q 119 533 173 612 l 71 583 z "},"~":{"ha":771,"x_min":90,"x_max":718,"o":"m 90 575 q 132 642 101 609 q 208 696 163 675 q 301 718 252 718 q 367 701 338 718 q 435 652 396 684 q 488 614 467 627 q 533 601 509 601 q 670 680 616 601 l 718 631 q 677 561 708 594 q 601 508 646 528 q 507 488 556 488 q 440 505 469 488 q 374 553 412 521 q 320 592 342 579 q 275 605 299 605 q 138 526 191 605 l 90 575 z "},"∙":{"ha":465,"x_min":141,"x_max":328,"o":"m 248 608 q 308 586 288 608 q 328 532 328 564 q 299 452 328 481 q 222 423 271 423 q 164 445 188 423 q 141 499 141 466 q 154 552 141 528 q 192 592 168 577 q 248 608 216 608 z "},"÷":{"ha":907,"x_min":163,"x_max":765,"o":"m 399 770 q 418 826 399 800 q 464 866 436 851 q 519 880 492 880 q 581 860 560 880 q 602 808 602 840 q 584 751 602 777 q 538 710 566 725 q 483 696 511 696 q 424 716 448 696 q 399 770 399 736 m 765 578 l 753 472 l 163 472 l 176 578 l 765 578 m 334 245 q 352 300 334 275 q 398 340 370 326 q 454 355 426 355 q 515 335 494 355 q 536 283 536 315 q 518 225 536 251 q 474 185 501 200 q 418 171 446 171 q 358 191 382 171 q 334 245 334 212 z "},"∕":{"ha":579,"x_min":-63,"x_max":639,"o":"m 521 1083 l 639 1083 l 54 -245 l -63 -245 l 521 1083 z "},"=":{"ha":721,"x_min":65,"x_max":677,"o":"m 677 682 l 665 575 l 113 575 l 125 682 l 677 682 m 630 336 l 618 230 l 65 230 l 77 336 l 630 336 z "},">":{"ha":928,"x_min":170,"x_max":865,"o":"m 170 121 l 186 253 l 712 517 l 248 780 l 261 900 l 865 554 l 854 467 l 170 121 z "},"≥":{"ha":928,"x_min":96,"x_max":822,"o":"m 822 520 l 219 817 l 203 694 l 628 498 l 150 298 l 134 167 l 815 467 l 822 520 m 752 100 l 109 100 l 96 -1 l 739 -1 l 752 100 z "},"∆":{"ha":954,"x_min":-22,"x_max":903,"o":"m 517 1023 l 903 18 l 892 0 l -14 0 l -22 15 l 496 1023 l 517 1023 m 492 728 l 193 115 l 713 115 l 492 728 z "},"∞":{"ha":1223,"x_min":50,"x_max":1173,"o":"m 50 408 q 88 561 50 499 q 191 653 126 623 q 335 684 255 684 q 451 661 400 684 q 539 601 502 637 q 615 513 577 565 q 741 635 669 587 q 897 684 812 684 q 1050 647 988 684 q 1143 552 1113 610 q 1173 428 1173 494 q 1139 280 1173 342 q 1039 185 1104 218 q 882 153 973 153 q 770 175 819 153 q 685 232 721 197 q 612 317 650 267 q 488 199 560 244 q 328 153 415 153 q 181 188 245 153 q 84 281 118 223 q 50 408 50 340 m 537 418 q 478 498 504 467 q 420 551 453 529 q 349 572 387 572 q 257 551 294 572 q 202 493 220 529 q 184 416 184 458 q 203 335 184 371 q 258 278 221 299 q 350 256 296 256 q 451 296 404 256 q 545 407 498 335 l 537 418 m 905 256 q 978 278 948 256 q 1024 337 1008 300 q 1039 416 1039 373 q 1020 494 1039 458 q 963 551 1000 530 q 875 572 926 572 q 776 534 821 572 q 684 422 732 496 q 749 339 718 374 q 820 280 781 304 q 905 256 859 256 z "},"∫":{"ha":707,"x_min":75,"x_max":654,"o":"m 279 -240 q 367 -221 334 -240 q 418 -155 401 -203 q 436 -20 436 -107 q 418 107 436 42 q 374 232 400 172 q 302 383 347 292 q 228 541 256 477 q 180 676 199 605 q 161 816 161 747 q 193 986 161 912 q 291 1101 225 1059 q 452 1143 356 1143 q 573 1122 521 1143 q 654 1057 625 1101 l 578 980 q 528 1017 562 1002 q 448 1031 494 1031 q 297 815 297 1031 q 315 688 297 753 q 359 563 333 623 q 430 414 386 503 q 504 256 476 320 q 552 120 532 192 q 571 -20 571 49 q 507 -263 571 -174 q 298 -351 443 -351 q 165 -327 226 -351 q 75 -268 104 -302 l 132 -177 q 191 -220 155 -200 q 279 -240 228 -240 z "},"<":{"ha":928,"x_min":132,"x_max":827,"o":"m 827 898 l 811 766 l 285 503 l 749 239 l 736 119 l 132 465 l 143 552 l 827 898 z "},"≤":{"ha":928,"x_min":94,"x_max":817,"o":"m 817 817 l 802 692 l 329 491 l 755 290 l 741 167 l 134 467 l 140 520 l 817 817 m 749 100 l 737 -1 l 94 -1 l 106 100 l 749 100 z "},"¬":{"ha":929,"x_min":143,"x_max":806,"o":"m 806 578 l 764 218 l 644 218 l 674 475 l 143 475 l 155 578 l 806 578 z "},"µ":{"ha":925,"x_min":82,"x_max":849,"o":"m 82 -252 l 205 577 q 208 613 208 593 q 190 656 208 656 q 158 646 173 656 q 126 620 142 636 l 83 698 q 114 730 91 710 q 174 766 136 749 q 257 783 211 783 q 321 755 296 783 q 347 675 347 728 q 345 646 347 661 q 315 420 333 551 q 290 235 297 289 q 288 211 288 218 q 318 130 288 155 q 395 106 348 106 q 493 143 442 106 q 578 224 543 180 l 651 773 l 783 773 l 704 161 q 703 147 703 157 q 710 117 703 128 q 726 105 717 105 q 763 117 745 105 q 807 154 781 128 l 849 81 q 816 46 840 68 q 756 6 793 24 q 677 -12 720 -12 q 606 12 635 -12 q 573 83 577 35 q 513 30 536 48 q 452 -1 490 12 q 357 -14 413 -14 q 297 2 331 -13 q 251 38 262 16 l 208 -252 l 82 -252 z "},"−":{"ha":859,"x_min":148,"x_max":728,"o":"m 728 577 l 715 470 l 148 470 l 160 577 l 728 577 z "},"×":{"ha":929,"x_min":157,"x_max":812,"o":"m 416 519 l 212 741 l 302 824 l 492 587 l 743 824 l 812 741 l 552 519 l 756 297 l 667 214 l 476 451 l 226 214 l 157 297 l 416 519 z "},"≠":{"ha":721,"x_min":65,"x_max":677,"o":"m 477 575 l 367 336 l 630 336 l 618 230 l 317 230 l 212 0 l 104 0 l 210 230 l 65 230 l 77 336 l 259 336 l 369 575 l 113 575 l 125 682 l 418 682 l 518 898 l 626 898 l 526 682 l 677 682 l 665 575 l 477 575 z "},"∂":{"ha":927,"x_min":112,"x_max":831,"o":"m 503 712 q 685 682 601 712 q 586 937 667 842 q 342 1031 504 1031 q 255 1021 300 1031 q 183 995 209 1011 l 134 1080 q 243 1127 176 1111 q 371 1143 309 1143 q 637 1059 534 1143 q 786 843 741 975 q 831 557 831 711 q 742 146 831 304 q 454 -11 653 -11 q 285 29 361 -11 q 163 142 209 68 q 113 313 117 215 q 112 341 112 322 q 163 543 112 459 q 304 669 215 627 q 503 712 393 712 m 690 569 q 600 600 648 591 q 492 608 553 608 q 378 581 432 608 q 289 497 323 554 q 255 357 255 441 q 256 336 255 343 q 310 162 262 224 q 467 99 357 99 q 644 236 597 99 q 690 569 690 374 z "},"%":{"ha":1296,"x_min":136,"x_max":1171,"o":"m 1019 1038 l 376 0 l 269 0 l 911 1038 l 1019 1038 m 136 715 q 173 854 136 787 q 274 962 210 921 q 416 1004 338 1004 q 558 950 513 1004 q 604 804 604 897 q 569 660 604 728 q 471 548 534 591 q 325 505 407 505 q 222 532 264 505 q 158 607 180 559 q 136 715 136 655 m 489 798 q 465 888 489 855 q 397 921 441 921 q 315 888 349 921 q 263 808 281 856 q 245 717 245 760 q 272 624 245 659 q 345 589 298 589 q 424 623 391 589 q 473 706 457 657 q 489 798 489 755 m 983 542 q 1125 488 1080 542 q 1171 342 1171 435 q 1136 198 1171 267 q 1038 86 1101 129 q 892 43 974 43 q 789 71 831 43 q 725 145 747 98 q 703 254 703 193 q 740 392 703 326 q 841 500 777 459 q 983 542 905 542 m 911 127 q 991 161 958 127 q 1040 244 1024 195 q 1056 336 1056 294 q 1032 426 1056 393 q 964 459 1008 459 q 882 427 916 459 q 830 346 848 394 q 812 255 812 298 q 839 162 812 197 q 911 127 865 127 z "},"‰":{"ha":1830,"x_min":136,"x_max":1705,"o":"m 1019 1038 l 376 0 l 269 0 l 911 1038 l 1019 1038 m 136 715 q 173 854 136 787 q 274 962 210 921 q 416 1004 338 1004 q 558 950 513 1004 q 604 804 604 897 q 569 660 604 728 q 471 548 534 591 q 325 505 407 505 q 222 532 264 505 q 158 607 180 559 q 136 715 136 655 m 489 798 q 465 888 489 855 q 397 921 441 921 q 315 888 349 921 q 263 808 281 856 q 245 717 245 760 q 272 624 245 659 q 345 589 298 589 q 424 623 391 589 q 473 706 457 657 q 489 798 489 755 m 983 542 q 1125 488 1080 542 q 1171 342 1171 435 q 1136 198 1171 267 q 1038 86 1101 129 q 892 43 974 43 q 789 71 831 43 q 725 145 747 98 q 703 254 703 193 q 740 392 703 326 q 841 500 777 459 q 983 542 905 542 m 1517 542 q 1659 488 1613 542 q 1705 342 1705 435 q 1670 198 1705 267 q 1571 86 1635 129 q 1426 43 1508 43 q 1323 71 1365 43 q 1259 145 1280 98 q 1237 254 1237 193 q 1274 392 1237 326 q 1375 500 1310 459 q 1517 542 1439 542 m 911 127 q 991 161 958 127 q 1040 244 1024 195 q 1056 336 1056 294 q 1032 426 1056 393 q 964 459 1008 459 q 882 427 916 459 q 830 346 848 394 q 812 255 812 298 q 839 162 812 197 q 911 127 865 127 m 1445 127 q 1525 161 1492 127 q 1574 244 1558 195 q 1590 336 1590 294 q 1566 426 1590 393 q 1498 459 1541 459 q 1416 427 1450 459 q 1364 346 1381 394 q 1346 255 1346 298 q 1372 162 1346 197 q 1445 127 1398 127 z "},"+":{"ha":926,"x_min":163,"x_max":784,"o":"m 412 475 l 316 470 l 163 470 l 176 577 l 329 577 l 422 570 l 431 682 l 450 838 l 570 838 l 553 682 l 533 570 l 611 577 l 784 577 l 772 470 l 599 470 l 523 475 q 519 408 522 442 l 516 363 l 497 200 l 376 200 l 394 363 l 412 475 z "},"±":{"ha":926,"x_min":117,"x_max":784,"o":"m 412 475 l 316 470 l 163 470 l 176 577 l 328 577 l 422 570 l 427 627 q 432 682 429 644 l 450 838 l 570 838 l 553 682 l 533 570 l 611 577 l 784 577 l 772 470 l 599 470 l 523 475 q 519 419 522 455 l 515 363 l 497 200 l 376 200 l 394 363 l 412 475 m 718 122 l 706 20 l 117 20 l 128 122 l 718 122 z "},"∏":{"ha":1124,"x_min":94,"x_max":1030,"o":"m 94 920 l 94 1032 l 1030 1032 l 1030 920 l 899 920 l 899 -115 l 747 -115 l 747 920 l 377 920 l 377 -115 l 224 -115 l 224 920 l 94 920 z "},"√":{"ha":1086,"x_min":57,"x_max":1073,"o":"m 181 486 l 308 486 l 524 -63 l 930 1268 l 1073 1268 l 589 -240 l 472 -240 l 205 358 l 117 311 l 57 410 l 181 486 z "},"∑":{"ha":1080,"x_min":154,"x_max":885,"o":"m 154 978 l 174 1032 l 875 1032 l 875 920 l 351 920 l 684 462 l 361 -9 l 885 -9 l 885 -115 l 172 -115 l 154 -79 l 528 458 l 154 978 z "},"◊":{"ha":797,"x_min":34,"x_max":763,"o":"m 34 526 l 397 1028 l 400 1028 l 763 526 l 763 517 l 400 0 l 397 0 l 34 517 l 34 526 m 616 522 l 616 524 l 399 831 l 397 831 l 181 524 l 181 519 l 397 199 l 399 199 l 616 522 z "},"|":{"ha":579,"x_min":240,"x_max":357,"o":"m 357 1207 l 357 -126 l 240 -126 l 240 1207 l 357 1207 z "},"¦":{"ha":579,"x_min":240,"x_max":357,"o":"m 357 1207 l 357 601 l 240 601 l 240 1207 l 357 1207 m 357 480 l 357 -126 l 240 -126 l 240 480 l 357 480 z "},"@":{"ha":1335,"x_min":82,"x_max":1267,"o":"m 804 1048 q 1051 993 946 1048 q 1212 838 1156 939 q 1267 603 1267 738 q 1204 288 1267 424 q 1043 80 1140 153 q 852 7 947 7 q 811 26 824 7 q 794 72 798 44 q 791 153 791 100 q 794 197 791 174 q 797 225 796 220 l 800 252 q 687 72 751 138 q 550 5 623 5 q 459 35 503 5 q 389 129 416 66 q 361 283 361 191 q 402 496 361 390 q 525 671 442 602 q 728 741 608 741 q 807 731 762 741 q 877 704 851 722 l 989 724 q 947 510 969 647 q 915 271 924 374 q 911 192 911 230 l 911 144 q 921 125 911 125 q 1034 194 977 125 q 1127 369 1090 262 q 1164 583 1164 476 q 1059 874 1164 789 q 778 959 954 959 q 467 860 602 959 q 258 603 332 762 q 185 270 185 444 q 244 -1 185 105 q 401 -156 303 -107 q 619 -204 499 -204 q 759 -188 677 -204 q 876 -154 840 -172 l 898 -220 q 773 -277 850 -256 q 609 -298 695 -298 q 336 -233 456 -298 q 150 -43 217 -168 q 82 254 82 82 q 178 673 82 493 q 438 950 273 853 q 804 1048 603 1048 m 571 109 q 675 196 615 109 q 785 404 736 284 q 844 605 834 524 q 792 642 829 629 q 722 656 755 656 q 595 602 649 656 q 512 467 541 549 q 483 303 483 385 q 571 109 483 109 z "},"&":{"ha":1040,"x_min":64,"x_max":976,"o":"m 970 464 l 867 464 q 875 397 875 433 q 848 234 875 307 q 771 109 822 161 q 845 83 806 91 q 936 77 885 76 l 954 77 l 939 -4 q 838 -14 895 -14 q 751 -1 798 -14 q 668 36 704 12 q 435 -12 570 -12 q 251 15 335 -12 q 116 100 168 41 q 64 250 64 159 q 93 362 64 312 q 171 451 123 412 q 288 528 219 489 q 244 649 261 585 q 227 765 227 712 q 263 910 227 846 q 363 1012 299 975 q 508 1048 427 1048 q 637 1017 583 1048 q 721 936 692 985 q 749 839 749 887 q 708 701 749 760 q 609 602 667 642 q 454 509 550 562 l 437 500 q 555 319 495 400 q 684 176 616 239 q 752 368 752 251 q 737 463 752 416 q 669 448 692 459 l 676 539 q 713 556 686 549 q 781 563 739 563 l 976 562 l 970 464 m 349 769 q 391 583 349 671 q 514 656 465 623 q 593 730 562 688 q 623 825 623 772 q 592 922 623 885 q 503 958 560 958 q 421 932 456 958 q 368 863 387 906 q 349 769 349 819 m 202 252 q 237 154 202 191 q 327 100 272 116 q 446 83 382 83 q 585 109 524 83 q 484 218 526 165 q 411 317 441 271 q 335 441 381 363 q 237 354 271 399 q 202 252 202 309 z "},"¶":{"ha":925,"x_min":109,"x_max":915,"o":"m 350 525 q 173 590 237 528 q 109 766 109 652 q 200 986 109 907 q 486 1065 292 1065 q 563 1063 525 1065 q 633 1058 600 1061 q 739 1053 705 1053 l 915 1053 l 907 983 l 794 960 q 761 696 781 852 q 733 476 741 540 q 673 0 690 150 l 544 0 l 663 959 l 531 959 l 411 0 l 281 0 l 350 525 z "},"©":{"ha":1444,"x_min":132,"x_max":1312,"o":"m 722 1248 q 1019 1168 884 1248 q 1234 952 1155 1088 q 1312 653 1312 815 q 1233 353 1312 490 q 1019 136 1154 216 q 722 56 884 56 q 424 136 559 56 q 210 353 289 216 q 132 653 132 490 q 210 952 132 815 q 424 1168 289 1088 q 722 1248 559 1248 m 722 143 q 974 212 861 143 q 1151 397 1086 280 q 1215 653 1215 514 q 1151 909 1215 792 q 974 1094 1086 1025 q 722 1162 861 1162 q 470 1094 583 1162 q 292 909 357 1025 q 228 653 228 792 q 292 397 228 514 q 470 212 357 280 q 722 143 583 143 m 758 983 q 919 945 852 983 l 897 834 q 745 877 832 877 q 641 848 684 877 q 575 770 597 820 q 553 659 553 720 q 576 535 553 587 q 641 458 600 484 q 738 431 683 431 q 831 444 787 431 q 905 473 876 456 l 936 389 q 844 342 902 360 q 720 325 785 325 q 561 370 629 325 q 457 489 493 414 q 421 648 421 563 q 460 821 421 745 q 575 940 499 897 q 758 983 651 983 z "},"®":{"ha":1444,"x_min":132,"x_max":1312,"o":"m 722 1248 q 1019 1168 884 1248 q 1234 952 1155 1088 q 1312 653 1312 815 q 1233 353 1312 490 q 1019 136 1154 216 q 722 56 884 56 q 424 136 559 56 q 210 353 289 216 q 132 653 132 490 q 210 952 132 815 q 424 1168 289 1088 q 722 1248 559 1248 m 722 143 q 974 212 861 143 q 1151 397 1086 280 q 1215 653 1215 514 q 1151 909 1215 792 q 974 1094 1086 1025 q 722 1162 861 1162 q 470 1094 583 1162 q 292 909 357 1025 q 228 653 228 792 q 292 397 228 514 q 470 212 357 280 q 722 143 583 143 m 553 977 q 594 978 575 977 q 629 979 614 979 q 728 982 692 982 q 865 957 810 982 q 945 891 920 932 q 971 796 971 849 q 940 666 971 718 q 840 593 909 614 q 883 546 865 574 q 926 470 901 518 l 944 433 q 987 366 956 413 l 1014 325 l 876 326 q 849 366 861 345 q 822 419 838 387 l 812 440 q 782 505 795 480 q 749 549 768 529 q 705 576 730 569 q 621 575 687 575 l 621 325 l 500 325 l 500 977 l 553 977 m 709 662 q 813 689 779 662 q 846 781 846 717 q 816 864 846 836 q 707 892 786 892 q 659 891 677 892 q 621 885 640 890 l 621 665 q 709 662 648 662 z "}}}
